<?xml version="1.0" standalone="no"?>
<!DOCTYPE svg PUBLIC "-//W3C//DTD SVG 1.1//EN" "http://www.w3.org/Graphics/SVG/1.1/DTD/svg11.dtd" >
<svg xmlns="http://www.w3.org/2000/svg" xmlns:xlink="http://www.w3.org/1999/xlink" version="1.1">
<metadata>
Created by FontForge 20150318 at Fri Jul 17 14:06:02 2015
 By uniteet7
Copyright (c) 2013 by Laura Worthington. All rights reserved.
</metadata>
<defs>
<font id="LauraWorthingtonCharcuterieSansBold" horiz-adv-x="452" >
  <font-face 
    font-family="LauraWorthingtonCharcuterieSansBold"
    font-weight="700"
    font-stretch="normal"
    units-per-em="1000"
    panose-1="2 0 8 3 0 0 0 2 0 3"
    ascent="765"
    descent="-235"
    x-height="681"
    cap-height="763"
    bbox="-40 -294 829 998"
    underline-thickness="50"
    underline-position="-50"
    unicode-range="U+000D-F8FF"
  />
<missing-glyph horiz-adv-x="251" 
 />
    <glyph glyph-name=".notdef" horiz-adv-x="251" 
 />
    <glyph glyph-name=".null" horiz-adv-x="0" 
 />
    <glyph glyph-name="nonmarkingreturn" horiz-adv-x="333" 
 />
    <glyph glyph-name="NULL" horiz-adv-x="0" 
 />
    <glyph glyph-name="NULL" horiz-adv-x="0" 
 />
    <glyph glyph-name="CR" unicode="&#xd;" horiz-adv-x="251" 
 />
    <glyph glyph-name="space" unicode=" " horiz-adv-x="251" 
 />
    <glyph glyph-name="exclam" unicode="!" horiz-adv-x="190" 
d="M39 618q-1 14 -3.5 27.5t-2.5 16.5q0 4 1.5 9t1.5 7t-1.5 11t-1.5 21q3 13 14.5 23t22.5 14q4 1 58 1q34 0 34 -24v-22q0 -38 -3 -51q-3 -10 -4 -37t-3 -36q-2 -10 -2 -15t1.5 -18.5t1.5 -22.5q0 -2 -0.5 -6.5t-0.5 -6.5q-1 -9 -1 -23v-40q-5 -45 -5 -92q0 -46 5 -63
q8 -41 8 -86q0 -6 -3.5 -11.5t-10 -9t-13 -6.5t-16.5 -5t-15.5 -3t-14.5 -2.5t-10 -1.5h-5q-13 0 -23.5 6.5t-10.5 15.5v16q0 36 4 53q6 27 6 54q0 11 -1 17q-2 8 -2 25v24q0 7 2 34t2 44q0 15 -2 31q-2 20 -3 50t-4 39q-2 6 -2 9q0 1 1.5 6.5t1.5 13.5q0 2 -0.5 6.5
t-0.5 7.5zM54 107q18 15 55 15q32 -10 52 -31q9 -9 9 -27q0 -19 -11 -37q-8 -13 -26 -21.5t-25 -15.5q-9 -10 -32 -10q-18 0 -34 10q-9 9 -16 27t-7 31q0 16 35 59z" />
    <glyph glyph-name="quotedbl" unicode="&#x22;" horiz-adv-x="273" 
d="M55 753q6 0 16 1t14 1q10 0 12 -1q22 -14 26 -34q1 -6 1 -18q0 -7 -7 -49q0 -6 -4 -14t-6 -22q-3 -17 -7 -29t-4 -17q-2 -24 -22 -24q-6 0 -10.5 2t-6 4t-3.5 6.5t-3 6.5q-4 4 -5.5 11t-1.5 17l-1 9q0 3 -3 11t-3 12q0 1 -2.5 13t-2.5 21q0 5 -1 7q-3 3 -4.5 8.5t-2 11.5
t-0.5 7q-4 14 -4 22q0 6 1 11q10 26 34 26zM185 753q6 0 16 1t14 1q10 0 12 -1q22 -14 26 -34q1 -6 1 -18q0 -7 -7 -49q0 -6 -4 -14t-6 -22q-3 -17 -7 -29t-4 -17q-2 -24 -22 -24q-6 0 -10.5 2t-6 4t-3.5 6.5t-3 6.5q-4 4 -5.5 11t-1.5 17l-1 9q0 3 -3 11t-3 12q0 1 -2.5 13
t-2.5 21q0 5 -1 7q-3 3 -4.5 8.5t-2 11.5t-0.5 7q-4 14 -4 22q0 6 1 11q10 26 34 26z" />
    <glyph glyph-name="numbersign" unicode="#" horiz-adv-x="472" 
d="M120 490q4 6 5 21.5t6 23.5q6 8 8 20t3 16q1 2 5 15.5t7.5 21.5t8.5 11q7 6 23.5 11.5t26.5 5.5q8 -1 15.5 -13.5t7.5 -22.5q0 -7 -10 -24.5t-13 -29.5q-2 -9 -3.5 -17.5t-2.5 -13t-1 -9.5q0 -13 29 -13q4 0 10.5 0.5t11.5 0.5q32 6 36 9q9 8 15 43q3 12 6 34.5t7 32.5
q2 5 7 17t9 18.5t11 8.5q8 2 33 2q12 0 33 -6q7 -5 7 -21q0 -13 -9 -42q-17 -50 -21 -70q0 -8 14 -8q3 0 10.5 1.5t10.5 1.5l2 1h5q8 0 15.5 -20t7.5 -34q-2 -29 -35 -33q-5 0 -15 0.5t-16 0.5q-9 0 -14 -1q-21 -7 -21 -42q0 -2 -2 -13.5t-2 -17.5q0 -16 7 -16q3 0 23 2.5
t31 2.5q23 -8 23 -22q0 -1 -0.5 -3t-0.5 -3q-1 -3 -4 -19.5t-8.5 -27.5t-14.5 -15q-1 -1 -7 -1q-5 0 -16 2.5t-18 2.5q-2 0 -5 -0.5t-5 -0.5q-11 -2 -15.5 -10t-7.5 -28q-1 -12 0 -21t-0.5 -18t-5.5 -16q-11 -25 -11 -71q0 -6 2 -18t2 -18q0 -16 -15 -20q-18 -2 -39 -2
q-26 0 -33 10t-7 25t5 32q4 13 6 40t4 34q0 1 3.5 22t3.5 22l3 33q-16 1 -39 1q-13 0 -47 -8q-7 -2 -12.5 -9t-7.5 -12t-5 -17.5t-3 -13.5q-2 -7 -6 -42.5t-7 -44.5q-2 -10 -16.5 -18.5t-27.5 -8.5q-18 0 -23 5q-3 3 -10.5 8t-9.5 8t-2 9q0 2 2 16q3 14 12 43t12 40
q2 4 3 6.5t0.5 3.5t-1 3.5t-0.5 5.5q0 12 -8 12q-3 0 -11 -1t-14 -1q-16 0 -17 4q-2 3 -2.5 13t0.5 25t1 19q0 9 1 12q11 21 34 21q7 0 8 -1q23 -7 30 -7q5 0 6 3q13 21 13 59q0 3 1.5 11t1.5 12t-4 4q-1 0 -14.5 -3.5t-24.5 -3.5q-15 0 -25 7t-10 19q0 6 1 8q17 50 30 52
q5 1 40 1q20 0 20 -4zM177 339q2 -4 13 -4q8 0 23.5 2t19.5 2q3 0 8.5 -0.5t9.5 -0.5q11 0 15 9q9 19 9 51q0 13 -10 13q-8 0 -14 -1q-5 -4 -15 -4q-9 0 -22.5 2.5t-14.5 2.5q-5 0 -10.5 -9t-5.5 -14q-7 -19 -7 -41q0 -6 1 -8z" />
    <glyph glyph-name="dollar" unicode="$" horiz-adv-x="388" 
d="M127 620q1 0 2.5 7.5t4 17t4.5 13.5q14 14 45 27h7q18 0 18 -31q0 -5 -1 -14t-1 -14q0 -20 9 -20q58 0 93 -29q24 -19 24 -50q0 -13 -6 -21q-15 -22 -36 -22q-8 0 -9 3q-2 3 -7.5 8.5t-10 11.5t-5.5 13q-3 20 -34 26q-3 0 -3 1t-1 1q-10 0 -11 -16q0 -13 3 -32t3 -25
q0 -5 -1 -9q-2 -4 -2 -19v-13v-14.5v-12t1.5 -9.5t4.5 -4q102 -16 122 -65q3 -8 13 -25t10 -31q0 -25 -9.5 -67t-24.5 -51q-11 -5 -13.5 -14.5t-9.5 -13.5q-5 -3 -54 -25q-21 -6 -36 -9q-19 0 -19 -7q0 -6 3 -10q7 -21 7 -39q0 -22 -9 -29l-1 -1q-1 -1 -2 -1q-7 -5 -29 -11
t-33 -6q-8 0 -13 2q-11 5 -11 17q0 7 1 26.5t1 38.5q0 7 -2 7q-24 0 -40 7q-45 18 -50 38q0 1 -0.5 6t-0.5 7q0 28 17 40q18 9 34 9q10 0 17 -9q2 -3 4 -9l3.5 -10.5t3.5 -8t5 -3.5l4 -1h6l3 -1q7 7 7 45q0 23 2 44.5t2 25.5v69q0 8 -11 10.5t-27.5 5.5t-25.5 11
q-5 5 -18 14t-22 17.5t-13 16.5q-9 20 -9 50q0 9 3 33q3 15 13 37.5t21 28.5q6 3 16.5 11t19 14t13.5 6l36 6q3 29 5 30zM123 523q-8 0 -18 -10t-16 -22q-4 -9 -4 -28q0 -17 2 -23q1 -3 5.5 -6.5t12.5 -8.5t12 -9q5 -3 7 -3t3.5 1t2 3.5t0.5 4.5t-0.5 6.5t-0.5 7.5v13
q0 6 0.5 20.5t0.5 21.5q0 25 -7 32zM206 194v-11q1 -10 3 -12t9 -2h3q19 7 31 14q5 3 8.5 6.5t6 8t3.5 7t3.5 8.5t3.5 9q5 12 5 29q1 12 -7.5 25.5t-26.5 18.5q-2 1 -10 8t-14 7q-8 0 -9 -8q-6 -20 -6 -39q0 -12 -1.5 -37t-1.5 -32z" />
    <glyph glyph-name="percent" unicode="%" horiz-adv-x="608" 
d="M66 662q24 27 86 30q39 0 59 -12q30 -11 41 -28q27 -33 29 -48q2 -14 2 -35q0 -6 -2.5 -18t-2.5 -19q0 -3 1 -8t1 -9q0 -5 -6 -15.5t-6 -16.5q0 -8 -18 -32q-5 -8 -21 -12.5t-19 -6.5q-5 -6 -13.5 -8.5t-22.5 -5t-22 -4.5q-4 -1 -14 -1q-18 0 -39.5 5t-28.5 10
q-2 2 -12 10.5t-17 15.5t-8 10q-17 28 -17 41q0 1 8 49q0 4 -0.5 13t-0.5 16q0 18 6 30q3 9 7 15.5t7 9.5t10 10.5t13 13.5zM130 607q-4 -2 -14 -20q-13 -23 -13 -27v-6q2 -6 3.5 -20.5t4.5 -18.5q7 -15 28 -18h11q22 0 30 7q18 10 21 33v17q0 17 -5 24q-12 24 -25 28
q-9 3 -23 3t-18 -2zM400 664q11 27 14 43q14 40 25 43h3q4 1 6 1q50 0 59 -11q13 -16 13 -22q0 -2 -0.5 -4t-1 -3.5l-1.5 -4.5t-2 -5q-4 -10 -7 -23.5t-11 -22.5q-7 -8 -11 -16t-8 -21.5t-7 -21.5q-17 -48 -28 -62q-5 -7 -13.5 -31.5t-17.5 -33.5q-7 -8 -24.5 -48.5
t-28.5 -51.5t-15.5 -33t-9.5 -30t-13 -23t-14.5 -26t-11.5 -14q-10 -5 -12 -27q-2 -24 -14 -36q-4 -2 -13 -28t-13 -42q-1 -10 -18 -45t-19 -47q-4 -27 -68 -33q-16 0 -30 9t-14 15q0 5 9 28.5t15 29.5q24 34 28 54q8 29 23 55q5 6 12 20t10 19q9 11 19 38q4 10 14 17t12 13
t4.5 17t5.5 19.5t7 13.5q5 5 36 73l28 67q3 6 14 26.5t14 30.5q4 14 21 52q1 3 9 14.5t9 13.5t5.5 22t10.5 32zM366 242q24 27 86 30q39 0 59 -12q30 -11 41 -28q27 -33 29 -48q2 -14 2 -35q0 -6 -2.5 -18t-2.5 -19q0 -3 1 -8t1 -9q0 -5 -6 -15.5t-6 -16.5q0 -8 -18 -32
q-5 -8 -21 -12.5t-19 -6.5q-5 -6 -13.5 -8.5t-22.5 -5t-22 -4.5q-4 -1 -14 -1q-18 0 -39.5 5t-28.5 10q-2 2 -12 10.5t-17 15.5t-8 10q-17 28 -17 41q0 1 8 49q0 4 -0.5 13t-0.5 16q0 18 6 30q3 9 7 15.5t7 9.5t10 10.5t13 13.5zM430 187q-4 -2 -14 -20q-13 -23 -13 -27v-6
q2 -6 3.5 -20.5t4.5 -18.5q7 -15 28 -18h11q22 0 30 7q18 10 21 33v17q0 17 -5 24q-12 24 -25 28q-9 3 -23 3t-18 -2z" />
    <glyph glyph-name="ampersand" unicode="&#x26;" horiz-adv-x="503" 
d="M336 560q-14 0 -27.5 12.5t-14.5 31.5q0 11 6 21t4 24q-4 27 -33 21q-36 -8 -38 -17q-1 -3 -8.5 -14.5t-14.5 -26.5l-4 -8q-5 -7 -6.5 -15.5t-1.5 -27.5q0 -28 13 -45t25 -18q4 0 32.5 3t37.5 0q11 -4 11 -30.5t-8 -41.5q-3 -5 -5.5 -12t-3.5 -8.5t-4.5 -3.5t-10.5 -3
q-9 -1 -27.5 1.5t-28.5 0.5q-3 0 -7.5 -1t-6 -1t-5 -1t-5.5 -2.5t-5.5 -4t-7.5 -6t-9 -8.5q-11 -11 -15.5 -17.5t-8 -15.5t-8.5 -17q-4 -6 -6 -11t-3.5 -8t-2.5 -11l-1.5 -12t-1.5 -19t-2 -24q-2 -26 0.5 -41t10.5 -31t11 -24q2 -5 3 -10.5t1.5 -8t3 -5.5t6 -5.5t11.5 -6.5
q3 -1 14.5 -8.5t20.5 -11.5t20 -4q39 -2 65 24q3 3 7.5 6l7.5 5t7 6.5t8 11.5q19 37 21 82q1 35 -8 50q-5 4 -9.5 3.5t-15 -3t-16.5 -2.5q-21 1 -21 73q0 8 4.5 12.5t8.5 5.5t14.5 2t14.5 2q2 3 27.5 0t32.5 -3q11 0 38.5 3t39.5 1q17 -3 21.5 -6t7.5 -14t1 -28.5t-8 -24.5
q-11 -14 -31 -14q-16 0 -13 -32q1 -10 4 -21t3.5 -18.5t-0.5 -34.5q-1 -22 -6.5 -34t-13.5 -24t-13 -25q-6 -16 -14 -28.5t-21 -26t-14 -15.5q-6 -8 -20.5 -9.5t-23.5 -10.5q-13 -12 -96 -12q-10 0 -20 3t-22 8t-16 7q-8 3 -21 4t-22 5q-6 3 -11.5 8t-8.5 10t-6 9l-3 5l-7 3
q-8 2 -18.5 8.5t-18.5 17.5q-30 41 -36 88q-11 80 -1 119q3 12 9.5 27.5t10.5 30.5q5 17 23.5 37t21.5 24q7 10 31 28.5t26 26.5q1 7 -3.5 14t-12 13.5t-8.5 7.5q-7 11 -18 38.5t-10 48.5q1 15 3 23t6.5 19t7.5 21q11 35 32 56q7 7 19 14.5t18 16.5q2 4 6 6.5t9 4.5t9 3.5
t11 2.5t11 1.5l12 1.5t11 1q11 1 20.5 4t23.5 3q16 0 50 -10q14 -4 31.5 -14.5t21.5 -17.5q1 -1 5 -8.5t6.5 -12.5t4 -13.5t0.5 -15.5q-2 -11 1 -46q2 -20 -18 -46q-11 -15 -49 -15z" />
    <glyph glyph-name="quotesingle" unicode="'" horiz-adv-x="141" 
d="M55 753q6 0 16 1t14 1q10 0 12 -1q22 -14 26 -34q1 -6 1 -18q0 -7 -7 -49q0 -6 -4 -14t-6 -22q-3 -17 -7 -29t-4 -17q-2 -24 -22 -24q-6 0 -10.5 2t-6 4t-3.5 6.5t-3 6.5q-4 4 -5.5 11t-1.5 17l-1 9q0 3 -3 11t-3 12q0 1 -2.5 13t-2.5 21q0 5 -1 7q-3 3 -4.5 8.5t-2 11.5
t-0.5 7q-4 14 -4 22q0 6 1 11q10 26 34 26z" />
    <glyph glyph-name="parenleft" unicode="(" horiz-adv-x="275" 
d="M225 750q21 -2 33.5 -12t12.5 -22q0 -28 -12 -38q-7 -5 -19.5 -15t-25.5 -20q-20 -16 -27.5 -24.5t-16.5 -27.5q-23 -53 -28 -65q0 -2 -1 -3q-2 -5 -8.5 -17.5t-11 -23.5t-5.5 -22q0 -8 -3 -22.5t-3 -21.5q0 -3 1.5 -7.5t1.5 -6.5q1 -3 1 -12q0 -6 -1 -20t-1 -18
q0 -3 1.5 -13.5t1.5 -18.5v-26q0 -20 1 -28q8 -62 14 -74q13 -29 26 -50q23 -40 35 -46q2 -1 12 -9.5t21 -8.5q2 0 10 -2t13 -1q10 0 17.5 -13t9.5 -28q0 -11 -6.5 -24.5t-16.5 -19.5q-9 -3 -16 -3q-19 0 -48 7.5t-42 15.5q-29 18 -73 66q-19 19 -39 71q-6 11 -17 83
q-1 2 -1 3q0 5 -4.5 20.5t-4.5 24.5q0 2 0.5 6.5t0.5 5.5q0 2 1.5 7t1.5 8q0 9 -4.5 35.5t-4.5 45.5q0 27 15.5 92t22.5 83q27 62 37 70q8 5 13.5 20t10.5 20q6 6 21.5 22.5t23.5 24.5q36 32 80 32z" />
    <glyph glyph-name="parenright" unicode=")" horiz-adv-x="282" 
d="M50 -13q-21 2 -33.5 12t-12.5 22q0 28 12 38q7 5 19.5 15t25.5 20q20 16 27.5 24.5t16.5 27.5q23 53 28 65q0 2 1 3q2 5 8.5 17.5t11 23.5t5.5 22q0 8 3 22.5t3 21.5q0 3 -1.5 7.5t-1.5 6.5q-1 3 -1 12q0 7 1 21t1 17t-1.5 13.5t-1.5 18.5v26q0 20 -1 28q-8 62 -14 74
q-13 29 -26 50q-23 40 -35 46q-2 1 -12 9.5t-21 8.5q-2 0 -10 2t-13 1q-10 0 -17.5 13t-9.5 28q0 11 6.5 24.5t16.5 19.5q9 3 16 3q19 0 48 -7.5t42 -15.5q29 -18 73 -66q19 -19 39 -71q6 -11 17 -83q1 -2 1 -3q0 -5 4.5 -20.5t4.5 -24.5q0 -1 -0.5 -6t-0.5 -6q0 -2 -1.5 -7
t-1.5 -8q0 -9 4.5 -35.5t4.5 -45.5q0 -27 -15.5 -92t-22.5 -83q-27 -62 -37 -70q-8 -5 -13.5 -20t-10.5 -20q-6 -6 -21.5 -22.5t-23.5 -24.5q-36 -32 -80 -32z" />
    <glyph glyph-name="asterisk" unicode="*" horiz-adv-x="298" 
d="M121 533q-1 0 -4 -2.5t-7.5 -5.5t-6.5 -5q-4 -4 -7 -6.5t-4.5 -3.5t-3 -3t-3.5 -5q-4 -5 -13 -13t-11 -11q-1 -3 -20 -3q-9 0 -21 17q-18 18 -18 30q0 13 3 16q2 5 36 22q22 4 33 10l13 10q0 1 -2.5 3t-8 5.5t-11.5 5.5t-37 12q-23 6 -23 25q0 12 6 27t12 20q19 16 29 16
q18 0 25 -11q7 -9 13 -20.5t11 -17.5q4 -7 9 -12t8 -7l3 -1q-3 26 -6 35q-6 24 -6 36q0 10 10 20.5t19 12.5h15q25 0 28 -10q6 -10 6 -22q0 -1 0.5 -4.5t0.5 -6.5v-6l-11 -45q13 15 19 23q3 5 10.5 15.5t9.5 13.5q7 10 32 10q9 0 18 -7q8 -6 13.5 -21t5.5 -24
q-1 -8 -13.5 -18.5t-19.5 -12.5q-24 -6 -36 -12l-23 -9q-1 0 1.5 -1.5t8.5 -4.5t11 -6q9 -9 39 -9q5 0 29 -16q9 -6 3 -33q-6 -23 -10 -26q-14 -11 -26 -12q-5 -1 -20 3q-22 9 -31 22q-2 2 -7 5.5t-9 6t-4 3.5q0 -4 3.5 -12.5t4.5 -14.5q1 -8 6.5 -24t5.5 -19
q0 -15 -14 -23.5t-30 -8.5q-15 0 -29 8.5t-14 23.5q0 2 0.5 5t0.5 4q2 6 2 18q0 3 3.5 13.5t3.5 11.5v26z" />
    <glyph glyph-name="plus" unicode="+" horiz-adv-x="492" 
d="M189 393l-1 5q0 4 -1 16.5t-3 25.5q-6 47 -7 49q-2 8 -2 41q0 4 14 25q5 9 12.5 14.5t11.5 7t19 7.5q10 2 20 2q17 0 33.5 -6t16.5 -19t-3.5 -32t-3.5 -31q0 -7 1 -24.5t1 -25.5q0 -6 -2 -16t-2 -13q0 -14 9 -25q4 -2 13 -2q3 0 13 0.5t29 0.5q7 0 15 -0.5t11.5 -1t8 1
t8.5 4.5q12 9 43 9q24 0 31 -13q8 -12 8 -58q0 -4 -12 -34q-3 -5 -14 -5t-24.5 1.5t-29.5 -0.5q-7 -1 -64 -1q-37 0 -42 -3q1 -13 2.5 -46t3.5 -44q1 -4 1 -51q-2 -12 -25 -23.5t-45 -10.5q-1 0 -4 -0.5t-4 -0.5q-14 0 -28 11.5t-14 20.5q0 2 1 7v4q0 6 3 24t3 30
q0 16 -2.5 28.5t-2.5 18.5v32l-42 -1h-3q-24 0 -41.5 0.5t-18.5 0.5q-10 0 -32 -1q-29 0 -32 17q0 2 -5 12t-5 13q0 11 7.5 32t12.5 24q31 7 46 7q10 0 14 -1q14 -3 39 -3.5t30 -1.5q2 0 0.5 -1t0.5 -1q4 0 9 0.5t9.5 1t8 1t5.5 0.5z" />
    <glyph glyph-name="comma" unicode="," horiz-adv-x="169" 
d="M31 -96q-11 1 -18 11.5t-7 19.5q0 20 13 28q13 5 28 34q4 11 4 23q0 10 -17 30q-10 11 -10 41q1 8 6 15t13 15t11 12q15 10 36 10q8 0 21 -3.5t16 -3.5q12 -2 20 -17.5t8 -27.5q3 -15 3 -34q0 -12 -3 -17q-2 -4 -4.5 -16t-9.5 -22q-3 -3 -10 -19.5t-12 -24.5
q-2 -6 -8 -13.5t-12 -8.5q-8 -2 -17.5 -9.5t-11.5 -7.5q-27 -15 -39 -15z" />
    <glyph glyph-name="hyphen" unicode="-" horiz-adv-x="363" 
d="M103 323q12 0 37.5 3.5t30.5 3.5q6 -1 31 -1h8q1 0 3 -1t5 -1q5 0 20.5 2t24.5 2q34 0 40 -14q7 -5 12.5 -25.5t5.5 -32.5q-1 -17 -40 -17h-52q-24 0 -24 -2h-27q-6 0 -17.5 1t-13.5 1q-1 1 -4 1q-11 0 -34 -5q-4 -1 -8 -1t-12 1.5t-10 1.5q-26 4 -33 12q-7 14 -7 50
q0 8 9 19q12 8 21 8q6 0 17.5 -3t16.5 -3z" />
    <glyph glyph-name="period" unicode="." horiz-adv-x="184" 
d="M55 111q17 14 51 14q22 -8 52 -39q9 -8 9 -25t-10 -34q-7 -12 -28.5 -21.5t-27.5 -16.5q-8 -9 -29 -9q-14 0 -32 9q-21 21 -21 54q0 23 36 68z" />
    <glyph glyph-name="slash" unicode="/" horiz-adv-x="447" 
d="M316 664q11 27 14 43q14 40 25 43h3q4 1 6 1q50 0 59 -11q13 -16 13 -22q0 -2 -0.5 -4t-1 -3.5l-1.5 -4.5t-2 -5q-4 -10 -7 -23.5t-11 -22.5q-7 -8 -11 -16t-8 -21.5t-7 -21.5q-17 -48 -28 -62q-5 -7 -13.5 -31.5t-17.5 -33.5q-7 -8 -24.5 -48.5t-28.5 -51.5t-15.5 -33
t-9.5 -30t-13 -23t-14.5 -26t-11.5 -14q-10 -5 -12 -27q-2 -24 -14 -36q-4 -2 -13 -28t-13 -42q-1 -10 -18 -45t-19 -47q-4 -27 -68 -33q-16 0 -30 9t-14 15q0 5 9 28.5t15 29.5q24 34 28 54q8 29 23 55q5 6 12 20t10 19q9 11 19 38q4 10 14 17t12 13t4.5 17t5.5 19.5
t7 13.5q5 5 36 73l28 67q3 6 14 26.5t14 30.5q4 14 21 52q1 3 9 14.5t9 13.5t5.5 22t10.5 32z" />
    <glyph glyph-name="zero" unicode="0" horiz-adv-x="416" 
d="M196 693h49q1 0 4 -0.5t5 -0.5q31 -7 46 -22q4 -4 24 -18t26 -24q42 -71 42 -108q0 -2 -0.5 -6t-0.5 -6q0 -16 5.5 -34t6.5 -23l3 -21q-2 -2 -2 -32q0 -56 -5 -93q-1 -7 -1 -22q0 -8 0.5 -23.5t0.5 -22.5q0 -10 -2 -22q-3 -15 -28 -101q-3 -10 -8.5 -21t-10 -17.5
t-12.5 -18.5t-11 -16q-6 -9 -15.5 -14.5t-21 -9t-16.5 -5.5q-19 -10 -38 -15q-24 -6 -39 -6q-11 0 -22 3q-8 2 -22.5 4.5t-24.5 5.5q-54 17 -76 65q-16 35 -25 78q-15 79 -16 88q-1 6 -1 26q0 11 0.5 32.5t0.5 29.5q0 7 -0.5 23t-0.5 25q0 18 1 28t1.5 34.5t2.5 44t7 31.5
q6 13 9 33t10 34q6 12 11.5 19.5t12.5 15t12 14.5q27 36 48 47q25 12 71 21zM205 600q-8 -1 -31 -15q-19 -12 -34 -43q-2 -3 -9 -13t-9 -23q-2 -11 -4 -44.5t-4 -42.5q-3 -12 -3 -31q0 -24 4 -41q2 -10 2 -46q0 -4 2 -48q5 -80 32 -126q2 -4 6 -11t5.5 -9.5t4.5 -7t5.5 -6.5
t6 -4.5t7.5 -4.5q4 -1 9.5 -0.5t13.5 1t9 0.5q34 0 48 49q4 13 7.5 15.5t8.5 16.5q5 15 7 38.5t4 30.5q13 52 13 94q0 16 -1 40.5t-2.5 50.5t-1.5 33q-1 27 -10 55q-2 7 -4.5 11.5t-3.5 8.5t-1 16q-1 19 -10.5 33t-21.5 17q-30 7 -34 7q-7 0 -11 -1z" />
    <glyph glyph-name="one" unicode="1" horiz-adv-x="194" 
d="M5 568q0 7 10.5 16.5t25 19.5t19.5 16q12 14 32 41q18 24 39 24q4 0 5 -1q12 -5 25 -17t13 -28q0 -55 -3 -92q-1 -10 3 -42t1 -46q-6 -30 -6 -47q0 -10 -1 -22.5t-1.5 -17t0.5 -10.5q2 -8 2 -24q0 -6 3.5 -29.5t2.5 -38.5q-6 -70 -6 -78q0 -3 0.5 -8.5t0.5 -8.5
q1 -13 -0.5 -29t-0.5 -23q10 -50 10 -70q-3 -27 -23 -42q-12 -9 -35.5 -15t-33.5 -6q-13 0 -21 10t-10 22q-3 17 -3 47q0 6 1 9q0 9 4 26.5t4 26.5q0 7 -1 16.5t-1 12.5q0 13 -1.5 46t-0.5 42q0 9 -2.5 42.5t-2.5 53.5q0 12 2 32q2 18 2 27q0 16 -2.5 40t-2.5 32v30
q0 1 -0.5 4t-0.5 5q-1 9 -7 9q-2 0 -9 -2t-10 -2q-8 1 -14 17.5t-6 31.5z" />
    <glyph glyph-name="two" unicode="2" horiz-adv-x="378" 
d="M82 398q-34 0 -47 29q-3 8 -4 16t0 19.5t1 16.5q0 9 -0.5 17.5t-0.5 9.5q0 32 12 53q4 9 9.5 28.5t11.5 27.5q34 47 61 61q38 18 76 18q19 0 46 -8t39 -17q43 -32 60 -76q12 -31 12 -81q0 -5 2 -19.5t1 -19.5q-3 -31 -12.5 -69.5t-21.5 -54.5q-17 -23 -32 -50
q-4 -8 -8 -17.5t-6 -14t-6.5 -10t-11.5 -10.5q-9 -7 -11.5 -9.5t-3.5 -7.5t-3 -10q-6 -17 -45 -59q-12 -14 -21.5 -22t-15.5 -15l-28 -35q47 5 67 5q9 -1 20.5 -5.5t18.5 -4.5q4 0 11 7t8 7q12 3 14.5 3.5t9 -0.5t19.5 -1q1 0 13 1t17 1q17 0 22 -11q2 -4 2 -56
q0 -7 -7.5 -21t-12.5 -16q-15 -6 -42 -6q-5 0 -17 2q-43 10 -55 10q-10 0 -16 -1q-22 -3 -67 -3q-6 0 -20.5 1.5t-22.5 1.5q-12 0 -21 -3q-11 -4 -23 -4q-22 0 -36 6q-17 8 -17 25q0 1 -1 11.5t-1 20t2 12.5q6 8 16 19t19 26q16 27 35 47q8 8 28 29.5t25 26.5q18 17 29.5 35
t18.5 26q25 27 33 47q2 4 13.5 27.5t17.5 43.5q13 43 13 96q0 26 -7 61q-6 31 -35 31q-30 0 -45 -23q-13 -20 -16 -45q-1 -6 -1 -19q0 -12 5.5 -30t5.5 -22q0 -15 -24.5 -32t-48.5 -17z" />
    <glyph glyph-name="three" unicode="3" horiz-adv-x="355" 
d="M133 502q-4 -10 -29.5 -17.5t-47.5 -7.5q-11 0 -20.5 10t-9.5 22q0 6 1 24t1 28q0 22 10 47t19 36q26 29 41 38q23 13 63 17q36 3 37 3q7 0 24.5 -4t22.5 -8q6 -6 27 -16t26 -19q24 -39 28 -80q1 -13 4.5 -25.5t3.5 -17.5q0 -8 -4 -20q-22 -61 -25 -66q-15 -25 -34 -38
q-8 -5 -8 -12q0 -5 17 -14.5t20 -13.5q41 -58 44 -74q6 -57 6 -66q0 -3 -0.5 -7.5t-0.5 -6.5q0 -4 -0.5 -21t-1.5 -29t-5.5 -28t-11.5 -27q-11 -15 -23 -39t-19 -33q-6 -8 -14.5 -14t-20 -12t-18.5 -11q-5 -4 -12.5 -6t-18.5 -3t-17.5 -1h-22h-19.5q-45 0 -75 20
q-15 10 -28.5 24.5t-13.5 24.5q0 1 -2.5 8t-6 17.5t-5.5 18.5q-1 4 -2 7.5t-1.5 5t-0.5 2.5q0 19 19 40q6 8 23 17.5t24 9.5q16 0 24 -10q12 -20 12 -49q0 -8 1 -14.5t3.5 -10.5t4.5 -6.5t5.5 -5.5t4.5 -4q14 -14 34 -8q6 2 13.5 1.5t11.5 2.5t11 13q3 4 7.5 10.5t6.5 9.5
l5 7.5t4 8t2.5 7.5t1.5 8l3 25q3 26 3 51q0 17 -0.5 24t-0.5 9t-2 5.5t-3 7.5q-12 32 -33 50q-15 13 -22 13q-3 0 -4 -1q-28 -14 -45 -15q-11 0 -20 22.5t-10 36.5q0 27 15 34q4 2 28 9.5t32 10.5q10 5 21.5 16t15.5 20q19 45 20 49q2 14 2 25q0 22 -7 42q-20 46 -33 46
q-15 0 -45 -7q-16 -6 -16 -33q0 -4 -1 -11t-1 -10q0 -7 8 -19t8 -18q0 -3 -8 -25z" />
    <glyph glyph-name="four" unicode="4" horiz-adv-x="431" 
d="M90 662q21 21 41 21q37 0 41 -4q10 -10 18.5 -28.5t8.5 -30.5v-22q0 -31 -10 -47q-5 -7 -5 -16q0 -5 3 -16t3 -17q0 -4 -1 -7q-2 -6 -6.5 -22t-8.5 -27q-4 -10 -8.5 -30t-6.5 -26q-1 -3 -5 -12t-4 -12q0 -5 7 -6q21 -3 45 -3q8 0 17 1.5t18.5 3.5t13.5 3q6 1 10 1
q26 0 27 9q3 17 3 80q0 25 -1.5 53t-1.5 40v45q0 29 1 39q2 21 28 40q15 11 65 11q13 0 14 -4q3 -6 3 -26q0 -25 -3 -41q-2 -12 -2.5 -72.5t-0.5 -64.5q0 -5 -2 -48.5t-3 -64.5q0 -5 11 -29.5t11 -27.5q-2 -19 -15.5 -27.5t-13.5 -14.5q1 -11 1 -89q0 -28 5 -63q1 -5 1 -13
q0 -7 -2 -26.5t-3 -37.5q0 -19 -6 -25q-7 -7 -28 -15t-30 -8q-32 0 -37 28q-1 6 -3 15.5t-3.5 16.5t-1.5 13q0 9 3 16q7 15 7 41v12q1 11 1 26q0 25 -1 46q0 9 1 21t1 18q0 9 -1 11q-1 5 -7.5 6.5t-19 2t-21.5 3.5q-12 3 -17 3q-6 0 -21 -2.5t-22 -3.5q-15 -2 -67 -4
q-7 0 -26 -2t-29 -2q-9 0 -19.5 11t-15.5 23q-12 36 -12 43t3 10q2 2 13 10t19.5 17.5t11.5 20.5q2 6 17.5 47t16.5 53q0 9 2.5 24.5t3.5 27.5q1 23 1 51q0 10 -5 31t-5 29q0 9 4 13z" />
    <glyph glyph-name="five" unicode="5" horiz-adv-x="351" 
d="M31 647q0 30 58 35q8 1 45 1.5t47 2.5q17 4 67 4q11 -1 31 -10t22 -19q1 -4 1 -42q0 -24 -16 -24q-54 0 -73 -3h-49q-26 0 -30 -7q-2 -3 -4 -5t-3 -2.5t-2.5 -5t-2.5 -12.5q-1 -6 -1 -20q0 -9 1 -20.5t1 -19.5q0 -6 7 -6q5 0 19 7q18 11 35 11q31 0 47 -6
q12 -5 34.5 -24.5t29.5 -32.5q1 -3 7 -13t10 -17.5t9 -19t8 -23.5t4 -24q3 -32 3 -57t-3 -41q-1 -6 -2.5 -27.5t-4.5 -45.5t-11 -44q-17 -46 -33 -70q-28 -43 -47 -53q-31 -17 -54 -22q-9 -2 -21 -2t-25 1t-16 1q-9 0 -34.5 11.5t-32.5 18.5q-28 28 -35 54q-7 28 -7 38
q0 17 9 29q16 22 38 22q8 0 13 -4q3 0 10 -3t15.5 -12t10.5 -21q6 -37 21 -41q2 0 9 -4.5t9 -4.5q9 0 16 3.5t13 8.5t7 6q23 14 27 31q13 48 14 66q1 16 5.5 40t4.5 38q-1 37 -7 73q0 2 -1 12.5t-2.5 18t-5.5 17.5t-10 17q-20 21 -45 21q-1 0 -2.5 -0.5t-2.5 -0.5
q-2 -1 -8.5 -2t-9.5 -2t-7.5 -3.5t-7.5 -7t-5 -11.5l-8 -20t-9 -11t-17 -6l-1 -1q-1 0 -3 -0.5t-5 -0.5q-8 0 -16 2q-15 3 -31 16t-16 33q0 17 3 29q3 16 4 30t0.5 28.5t-0.5 22.5q0 11 4.5 28t4.5 27q0 4 -1 9.5t-1 8.5q0 10 2.5 27t2.5 25z" />
    <glyph glyph-name="six" unicode="6" horiz-adv-x="386" 
d="M265 514q-12 0 -23 10.5t-11 24.5v7.5v9v8.5t-1.5 8l-3 6t-5 4.5t-7.5 1.5h-13.5t-10.5 -1.5t-10.5 -5.5t-6.5 -11l-19 -76q-3 -10 -7.5 -26t-7 -26t-2.5 -22q0 -5 -0.5 -19.5t-0.5 -22.5q0 -10 -1 -18.5t-1 -11.5l-1 -4q1 0 7.5 7.5t21.5 20.5t33 23l12 6t6.5 2t10 0.5
t17.5 2.5q1 0 15 -3t15 -3q4 0 8.5 -0.5t8.5 -2.5l7 -3.5t6.5 -4.5t5.5 -5t5.5 -6t5 -5.5t5 -6t4.5 -5.5q28 -37 32 -83q2 -24 2 -59q0 -9 -0.5 -23.5t-0.5 -19.5q0 -21 -3.5 -37t-10 -34.5t-8.5 -28.5q-2 -7 -4.5 -13t-7.5 -12.5t-8.5 -10.5t-11 -10.5t-9.5 -8.5t-11 -9
l-9 -6q-33 -26 -68 -26q-7 0 -11 1q-1 0 -12.5 -1.5t-12.5 -1.5q-41 8 -59 31q-4 5 -17.5 14t-24 21t-14.5 27q-2 11 -14.5 42t-14.5 57q0 6 -4 52t-4 70q0 15 2 35q3 23 4.5 48t3.5 46q3 28 11.5 56.5t8.5 36.5q13 36 22 70q7 30 69 77q31 25 87 21q52 -9 65 -19
q11 -9 24 -37.5t13 -41.5q0 -28 -16 -52t-50 -24zM132 192q0 -43 16 -71q18 -31 37 -40l11 -5q10 -5 12 -5q28 0 43 48q5 17 8.5 42.5t5.5 34.5q3 16 3 37q0 39 -9 54q-18 29 -51 29q-11 0 -46 -25q-28 -20 -30 -99z" />
    <glyph glyph-name="seven" unicode="7" horiz-adv-x="321" 
d="M11 599q-1 4 -1 41q0 15 7.5 28t18.5 13q53 -5 80 -5q7 0 22.5 -0.5t23.5 -0.5q16 0 23 1q37 5 75 5q28 0 44 -24q7 -11 7 -26q0 -19 -8 -37q-5 -11 -10 -57.5t-7 -56.5q-7 -32 -15 -55q-2 -6 -4.5 -29t-7.5 -35q-2 -4 -2 -7q0 -13 18 -18q5 -1 9.5 -15.5t4.5 -26.5
q0 -7 -1 -9q-2 -4 -9 -8.5t-17 -9t-12 -5.5q-1 0 -7 -2.5t-7.5 -4.5t-4.5 -10t-3 -20q-1 -19 -4.5 -51.5t-3.5 -38.5q0 -5 -3 -24t-3 -29q0 -5 -9 -67q-4 -23 -37 -23q-30 0 -46 10.5t-16 24.5q0 9 6.5 32t8.5 40q2 15 8.5 37t6.5 48t4.5 45t4.5 20q-1 22 -12 24q-2 0 -10 1
t-12 2t-8.5 5t-4.5 11q0 19 3.5 34t8.5 22t9 7h24q10 0 13 3q5 4 9.5 19t4.5 27q0 7 7.5 36.5t8.5 41.5q4 45 5 52q6 32 6 36q0 15 -23 15q-15 0 -23.5 0.5t-15.5 0.5q-16 0 -22 -1q-47 -7 -52 -8q-2 -1 -9 -1q-34 0 -41 23z" />
    <glyph glyph-name="eight" unicode="8" horiz-adv-x="376" 
d="M35 529q0 21 7.5 50t16.5 35t47 49q7 8 30.5 18t42.5 10q77 0 95 -12q53 -35 63 -55q6 -14 6 -37t1 -30q1 -8 3 -18.5t2 -16.5q0 -8 -4 -17q-23 -58 -38 -77q-28 -39 -31 -54q-1 -9 3 -17.5t14 -21t13 -17.5q5 -7 14 -19.5t14 -21t7 -15.5q1 -5 5 -12t6 -15t2 -21
q0 -9 3 -32t3 -34q0 -14 -4 -21q-3 -7 -6.5 -28.5t-17.5 -41.5q-9 -12 -20.5 -23t-24 -20.5t-16.5 -13.5q-16 -15 -70 -15q-1 0 -9 -2t-10 -1q-5 1 -33 2.5t-39 7.5q-46 24 -61 48q-19 31 -29 76q-2 10 -2 25q0 38 8 58q9 24 26 58q5 10 19 30t17 27q2 5 16 17.5t14 22.5
q0 11 -20 33t-25 30q-17 29 -29 69q-8 28 -9 43zM141 516q0 -28 10 -51t17 -27q2 -1 5 -6l6 -10t6 -8.5t4 -3.5q7 1 24 25t24 39q10 21 10 61q0 26 -14 49q-14 24 -41 24q-5 0 -10 -5t-11.5 -13t-10.5 -12q-10 -10 -14 -21t-5 -41zM193 298q-3 0 -16 -13t-17 -22
q-30 -52 -33 -83q-2 -22 -2 -37q0 -24 4 -36q4 -11 14 -18.5t12 -9.5q12 -12 40 -12q7 0 10 1q19 3 35 30q21 33 21 55q0 2 -2.5 20t-2.5 31q0 16 -23 55q-7 11 -22 25t-18 14z" />
    <glyph glyph-name="nine" unicode="9" horiz-adv-x="406" 
d="M206 369q6 7 25 7q4 0 12 -14t11 -23q2 -1 0.5 -12t-1.5 -13q0 -17 -19 -30q-30 -22 -58 -23q-6 -1 -15 -1q-13 0 -29 6q-39 16 -64 36q-13 11 -30.5 42t-22.5 56q-5 26 -5 73q0 38 8 66q2 6 12.5 22.5t11.5 25.5q1 7 7.5 14.5t17 15.5t14.5 13q34 36 50 42q49 19 62 19
h4q45 -5 73 -18q60 -29 70 -44q12 -19 29.5 -59t17.5 -62q0 -24 1.5 -65.5t1.5 -57.5q-1 -21 -3.5 -42.5t-2.5 -31.5q-3 -75 -14 -96q-4 -9 -12.5 -41t-15.5 -45q-29 -61 -48 -80q-6 -6 -26.5 -21.5t-22.5 -17.5q-13 -11 -32.5 -12t-26.5 -5q-5 -5 -27.5 -3.5t-28.5 0.5
q-2 0 -5.5 -0.5t-6.5 -0.5q-19 0 -65 25q-8 4 -8 53q0 14 13 26t30 12q6 0 22 -9t22 -9q4 0 11.5 -4.5t9.5 -4.5q9 1 29.5 11t27.5 18q25 36 29 48q1 4 8 19t11.5 28t4.5 20t3 18t8 26t7 24q2 16 1 31.5t-2.5 45t-1.5 46.5q-1 54 -9 105q-2 11 -5 20.5t-5.5 13.5t-5.5 9.5
t-4 7.5q-16 33 -57 33h-6.5t-5.5 -1l-4.5 -1.5t-4.5 -3t-5 -4t-7 -5.5t-8 -7q-10 -8 -13.5 -11.5t-4 -6.5t-2.5 -12t-6 -20q-7 -21 -7 -63q0 -9 1 -14q1 -7 2.5 -20.5t2.5 -19.5t3 -14t6 -13q15 -23 20.5 -27t19.5 -4q22 0 33 14z" />
    <glyph glyph-name="colon" unicode=":" horiz-adv-x="198" 
d="M65 291q17 14 51 14q22 -8 52 -39q9 -8 9 -25t-10 -34q-7 -12 -28.5 -21.5t-27.5 -16.5q-8 -9 -29 -9q-14 0 -32 9q-21 21 -21 54q0 23 36 68zM65 501q17 14 51 14q8 -3 12 -7t11 -13t14 -17q24 -21 24 -27q0 -17 -10 -34q-23 -38 -32 -47q-3 -3 -13 -3t-23.5 1.5
t-16.5 1.5q-14 0 -32 9q-21 21 -21 54q0 23 36 68z" />
    <glyph glyph-name="semicolon" unicode=";" horiz-adv-x="198" 
d="M65 501q17 14 51 14q8 -3 12 -7t11 -13t14 -17q24 -21 24 -27q0 -17 -10 -34q-23 -38 -32 -47q-3 -3 -13 -3t-23.5 1.5t-16.5 1.5q-14 0 -32 9q-21 21 -21 54q0 23 36 68zM51 64q-11 1 -18 11.5t-7 19.5q0 20 13 28q13 5 28 34q4 11 4 23q0 10 -17 30q-10 11 -10 41
q1 8 6 15t13 15t11 12q15 10 36 10q8 0 21 -3.5t16 -3.5q12 -2 20 -17.5t8 -27.5q3 -15 3 -34q0 -12 -3 -17q-2 -4 -4.5 -16t-9.5 -22q-3 -3 -10 -19.5t-12 -24.5q-2 -6 -8 -13.5t-12 -8.5q-8 -2 -17.5 -9.5t-11.5 -7.5q-28 -15 -39 -15z" />
    <glyph glyph-name="less" unicode="&#x3c;" horiz-adv-x="390" 
d="M140 296q2 -1 18 -9.5t29.5 -17t19.5 -14.5q16 -19 33 -21q8 -2 22.5 -14t20.5 -15q3 -2 21.5 -7.5t22.5 -10.5q3 -3 12.5 -10.5t17 -14.5t8.5 -11q6 -15 6 -27q0 -5 -5 -20t-9 -20q-5 -5 -17 -12t-18 -7q-19 0 -32 11q-3 3 -19.5 11t-17.5 11q-2 11 -30 28q-6 2 -8 3.5
t-7.5 6.5t-15.5 11q-11 6 -27.5 14t-22.5 13q-5 5 -27.5 17t-27.5 18q-20 26 -48 35q-12 4 -23 26t-11 37q0 16 7.5 34.5t16.5 22.5q39 18 46 25q5 9 18.5 17.5t16.5 11.5q5 4 29.5 14.5t26.5 12.5q9 11 38 28q4 3 15 13.5t18 14.5q39 23 45 28q7 8 13.5 9.5t15.5 -0.5
t11 -2q17 0 35 -17.5t18 -48.5q0 -6 -13 -16t-16 -17q-2 -5 -28 -19.5t-28 -16.5q-11 -14 -31 -26q-5 -2 -11.5 -10t-14.5 -11q-28 -10 -41 -19q-8 -6 -21 -13t-20 -12.5t-11 -13.5z" />
    <glyph glyph-name="equal" unicode="=" horiz-adv-x="463" 
d="M81 335q13 0 38.5 2.5t30.5 2.5q5 -1 19 -1q1 0 16 -1.5t30 -1.5h12q13 1 31.5 1t31.5 0.5t17 1.5h10q11 0 13 -1q2 -2 5 -2q2 0 9.5 1.5t10.5 1.5q9 0 25.5 0.5t23.5 0.5q18 0 25 -5q10 -6 10 -58v-14q-3 -8 -23 -8h-16q-6 0 -18.5 -2t-35.5 -2q-2 0 -13.5 1t-17.5 1
q-8 0 -10 -1q-5 -3 -21 -3q-7 0 -21 1t-18 1h-88q-22 0 -30 2q-1 1 -6 1q-9 0 -34 -5q-2 -1 -7 -1q-4 0 -11.5 1.5t-11.5 1.5q-23 2 -32 12q-6 11 -6 50q0 12 9 20q7 6 20 6q6 0 17.5 -2t15.5 -2zM81 475q13 0 38.5 2.5t30.5 2.5q5 -1 19 -1q1 0 16 -1.5t30 -1.5h12
q13 1 31.5 1t31.5 0.5t17 1.5h10q11 0 13 -1q2 -2 5 -2q2 0 9.5 1.5t10.5 1.5q9 0 25.5 0.5t23.5 0.5q18 0 25 -5q10 -6 10 -58v-14q-3 -8 -23 -8h-16q-6 0 -18.5 -2t-35.5 -2q-2 0 -13.5 1t-17.5 1q-8 0 -10 -1q-5 -3 -21 -3q-7 0 -21 1t-18 1h-88q-22 0 -30 2q-1 1 -6 1
q-9 0 -34 -5q-2 -1 -7 -1q-4 0 -11.5 1.5t-11.5 1.5q-23 2 -32 12q-6 11 -6 50q0 12 9 20q7 6 20 6q6 0 17.5 -2t15.5 -2z" />
    <glyph glyph-name="greater" unicode="&#x3e;" horiz-adv-x="382" 
d="M240 296q-4 8 -11 13.5t-20 12.5t-21 13q-13 9 -41 19q-8 3 -14.5 11t-11.5 10q-20 12 -31 26q-2 2 -28 16.5t-28 19.5q-3 7 -16 17t-13 16q0 31 18 48.5t35 17.5q2 0 11 2t15.5 0.5t13.5 -9.5q6 -5 45 -28q7 -4 18 -14.5t15 -13.5q29 -17 38 -28q2 -2 26.5 -12.5
t29.5 -14.5q3 -3 16.5 -11.5t18.5 -17.5q7 -7 46 -25q9 -4 16.5 -22.5t7.5 -34.5q0 -15 -11 -37t-23 -26q-28 -9 -48 -35q-5 -6 -27.5 -18t-27.5 -17q-6 -5 -22.5 -13t-27.5 -14q-8 -5 -13 -9t-6.5 -5.5t-4 -3t-7.5 -3.5q-28 -17 -30 -28q-1 -3 -17.5 -11t-19.5 -11
q-13 -11 -32 -11q-6 0 -18 7t-17 12q-4 5 -9 20t-5 20q0 12 6 27q1 4 8.5 11t17 14.5t12.5 10.5q4 5 22.5 10.5t21.5 7.5q6 3 20.5 15t22.5 14q17 2 33 21q6 6 19.5 14.5t29.5 17t18 9.5z" />
    <glyph glyph-name="question" unicode="?" horiz-adv-x="345" 
d="M86 441q-65 0 -73 23q-14 39 -6 71q3 13 3.5 37t2.5 32q8 36 20 51q14 17 30 45q8 14 39 25t47 11q75 0 92 -14q4 -3 17 -12t21.5 -17t13.5 -19t16 -36.5t17 -35.5q10 -18 10 -114q0 -62 -20 -104q-2 -4 -9.5 -21t-13 -28t-12.5 -18q-6 -6 -17 -13t-25.5 -14.5
t-20.5 -11.5q-26 -16 -36 -39q-3 -6 -0.5 -24.5t-8.5 -41.5q-8 -18 -51 -14q-21 2 -39 11.5t-20 27.5q-4 49 12 80q16 29 43 46q38 25 53 35q2 2 10.5 7t12.5 8.5t8.5 11t5.5 16.5q1 12 5 19.5t7 33.5q2 17 6 36.5t4 23t-2 22.5q-2 9 -2.5 19.5t-2.5 19t-9 20.5q-4 7 -10 21
t-9.5 19.5t-12 11t-21.5 5.5t-26.5 -14t-18.5 -31q-12 -45 -4 -73q12 -42 12 -55t-11 -26t-27 -13zM95 111q17 14 51 14q22 -8 52 -39q9 -8 9 -25t-10 -34q-7 -12 -28.5 -21.5t-27.5 -16.5q-8 -9 -29 -9q-14 0 -32 9q-21 21 -21 54q0 23 36 68z" />
    <glyph glyph-name="at" unicode="@" horiz-adv-x="718" 
d="M487 263q0 -1 -0.5 -6t-1 -12t-0.5 -12q0 -14 2 -26q3 -8 8 -11.5t10 -4t19 -0.5q25 0 45 30q11 17 19 42.5t8 41.5q-16 67 -27 82q-29 38 -44 44q-4 2 -11.5 7.5t-12.5 8.5t-14 6.5t-19 4.5q-11 0 -27.5 6t-28.5 6q-38 0 -47 -4q-57 -16 -73 -28q-4 -2 -14 -7.5t-14 -8
t-11 -7.5t-12.5 -10.5t-10.5 -12.5q-8 -11 -32 -34t-29 -36q-27 -54 -27 -86v-34q0 -23 1 -33q4 -27 20 -50q6 -10 14 -17.5t13.5 -10.5t19 -8.5t19.5 -8.5q50 -10 87 -10q27 0 59 27q13 5 14 5q23 0 38 -23q13 -19 13 -31q0 -6 -3.5 -11t-8.5 -9.5t-6 -5.5q-22 -22 -65 -24
q-2 0 -10 1.5t-13 2t-11 -2.5q-8 -6 -33 -6q-21 0 -31 2q-7 2 -39 0t-43 3q-6 2 -23.5 8.5t-31.5 12.5t-23 14q-4 3 -14 15t-26 34.5t-27 45.5q-12 22 -12 92q0 30 4 51q13 53 31 65q6 6 6.5 15.5t5.5 20.5q9 17 53.5 60t56.5 47q23 7 42 31q9 10 37 15.5t33 8.5
q2 0 5.5 0.5t4.5 0.5q3 0 8 -1t7 -1q11 0 18 7q12 11 31 13.5t64 2.5q30 0 74 -7t55 -14q2 -1 32 -14.5t40 -22.5q11 -9 19.5 -21t12 -19.5t8.5 -20.5t7 -17q14 -21 21 -84q1 -17 1 -34q0 -12 -3 -18q-3 -5 -8.5 -23.5t-12 -35t-14.5 -24.5q-4 -3 -11 -12t-13 -17t-11 -15
l-4 -7q-10 -14 -37 -21t-45 -7q-6 0 -21 -4.5t-32 -4.5q-19 2 -43.5 18t-24.5 32q-1 2 -3.5 5.5t-4 6t-5 4.5t-7.5 2q-10 -1 -26 -12t-24 -23q-8 -16 -63 -25q-1 0 -2 -1l-2 -2q-2 0 -5 -0.5t-5 -0.5q-17 0 -36.5 8.5t-26.5 18.5q-13 23 -13 60q0 23 3 32q11 33 34 67
q11 17 50 55q9 8 30 16t31 17q8 9 18.5 12.5t26.5 5t18 1.5q5 4 18 4q8 0 21 -2t19 -2q16 -5 30 -16.5t18 -21.5q5 -23 5 -36q0 -19 -7 -33q-6 -18 -22 -34zM390 260q1 0 3 6t5.5 13.5t10.5 12.5q20 13 20 30q-3 7 -28 7q-9 0 -13 -1q-17 -2 -33 -15q-22 -14 -46 -44
t-29 -57v-9q0 -18 15 -19q17 0 31 14q37 27 42 35q1 1 7.5 12t14.5 15z" />
    <glyph glyph-name="A" unicode="A" horiz-adv-x="514" 
d="M99 -1q-2 0 -4 -0.5t-3 -0.5q-5 0 -9 3t-8 3q-19 0 -19 16q0 7 -1.5 16.5t-1.5 17.5t-1 20.5t-1 21.5q0 31 4 40q2 4 2 7t-8 24q-18 49 -18 50q0 2 -0.5 7.5t-0.5 8.5q0 11 5 15q3 2 13 4t12 5q1 1 1 6q0 2 -1.5 16t-1.5 27q0 44 6 50q3 3 3 16v122q0 10 3 25v5q1 3 1 11
q0 5 -1 17t-1 17q0 15 5 21q5 7 8.5 21t7.5 21q25 37 25 43q0 8 5.5 15.5t10 11t14.5 10t12 8.5q8 6 27 14t22 11q6 5 33.5 11t43.5 6q47 0 75 -17q22 -14 49 -41q33 -33 42 -66q16 -50 16 -79q0 -4 1.5 -29t1.5 -36q0 -8 -1 -11q-4 -11 -4 -45q0 -25 2 -37q2 -14 2 -86
q0 -30 4 -58q2 -16 2 -30q0 -17 -2 -25q-8 -45 -8 -54v-5q4 -24 4 -50q0 -10 0.5 -29t0.5 -24q0 -12 -5 -28.5t-13 -17.5q-14 -2 -36 -2q-39 0 -55 2q-21 4 -24 24v27q0 13 -1 21q0 2 -2.5 13.5t-2.5 17.5q0 11 5 16q1 1 5 3.5t5 6t1 12.5q0 6 1.5 12t1.5 7q0 5 -14 5
q-9 0 -16 1t-16 1q-4 0 -23 3.5t-32 3.5q-12 0 -19.5 -2.5t-18.5 -2.5q-14 0 -21 -7q-6 -6 -9 -10t-4.5 -9t-2 -8t-1 -11.5t-1.5 -14.5q0 -5 -1.5 -16t-1.5 -23q0 -9 3 -17.5t3 -13.5q0 -6 -1 -10q-1 -6 -9 -10t-15.5 -5.5t-18.5 -3t-12 -1.5t-3 -1h-1q-1 -1 -2 -1t-3 -1h-4
q-4 -1 -5 -1zM185 276q2 -11 10 -11q1 0 5.5 0.5t9.5 0.5q9 0 20 2.5t17 2.5q4 0 8 0.5t9 0.5q7 0 22.5 -4.5t18.5 -4.5q9 0 12 3.5t7 3.5q8 0 27 14q3 3 3 6q0 6 -2 14.5t-2 15.5q0 8 4 19q3 10 13 10q3 0 4 7q0 4 -9 4q-8 0 -11 5q-6 11 -6 34q0 9 2 19q2 8 2 14
q0 5 -1 15.5t-1 16.5v13q0 11 -2.5 32.5t-2.5 25.5q0 6 -3.5 23.5t-3.5 31.5q0 8 -0.5 14.5t-3.5 11.5t-4.5 8t-7 6.5t-7 4.5t-9.5 4.5t-10 4.5q-4 2 -16 2q-13 0 -44 -13q-9 -4 -18 -17q-14 -20 -19 -35q-3 -8 -3.5 -21t-4.5 -23q-4 -11 -4 -19q0 -1 4 -33q1 -6 1 -13
q0 -4 -1 -12t-1 -16v-21q0 -12 -3 -26t-3 -24q0 -11 -2 -26t-2 -32q0 -12 1.5 -18.5t3.5 -11t3 -9.5z" />
    <glyph glyph-name="B" unicode="B" horiz-adv-x="499" 
d="M49 2q-2 26 -2 34q0 5 1.5 15t1.5 17q0 6 -2.5 16.5t-2.5 15.5q0 3 2 11q10 30 10 34q0 6 -5 17.5t-5 19.5q0 4 1.5 12.5t1.5 13.5q0 8 -3 24.5t-3 26.5q0 5 1 18.5t1 23.5q0 6 -0.5 24t-0.5 34q1 14 2 52.5t2 56.5q5 88 5 96q0 52 -5 90q-3 23 -10 35q-9 17 -9 32
q0 5 2 13q8 24 30 24q5 0 16.5 1t15.5 1q8 0 18 -3q24 -7 58 -7q5 0 34.5 1.5t42.5 1.5q15 0 19 -1q5 -1 30 -4t35 -7q46 -18 58 -25q7 -4 11.5 -10t9.5 -17t7 -15q18 -32 18 -52q0 -54 -29 -96q-2 -3 -10.5 -17.5t-17 -26t-15.5 -16.5q-22 -15 -22 -30q0 -3 13 -9t29.5 -16
t22.5 -20t23 -19.5t25 -26.5q19 -44 21 -53q9 -59 9 -75q0 -10 -5 -28.5t-13.5 -42.5t-11.5 -34q-8 -25 -48 -61q-30 -26 -56 -35q-48 -16 -65 -16q-6 0 -28.5 -2.5t-34.5 -2.5q-7 0 -28.5 0.5t-30.5 0.5q-17 0 -24 -1q-38 -5 -76 -5q-13 0 -14 12zM289 538q27 37 27 57
q0 27 -16 43.5t-40 16.5q-4 0 -12 -2q-10 -3 -43 -3h-5q-34 0 -35 -22q0 -8 2 -38q0 -7 0.5 -29.5t1.5 -32.5q0 -5 -0.5 -16.5t-0.5 -18.5q0 -31 10 -37q4 -2 8 -2q18 0 43 19q28 19 60 65zM164 272q-1 -7 -1 -19q0 -5 0.5 -11t1 -16.5t0.5 -20.5q0 -7 -1 -18.5t-1 -20.5
q1 -11 2 -18.5t1 -13.5q0 -2 -0.5 -7t-0.5 -9q0 -18 24 -18q5 0 12.5 -2.5t11.5 -2.5q5 0 7 1q35 7 62 19q53 22 65 52t12 74q0 21 -11.5 47t-28.5 36q-10 6 -18.5 19.5t-10.5 15.5q-17 13 -32 13q-19 0 -39 -19q-7 -6 -15.5 -8.5t-19.5 -12.5q-7 -6 -11 -14.5t-5 -13
t-2.5 -16.5t-1.5 -16z" />
    <glyph glyph-name="C" unicode="C" horiz-adv-x="456" 
d="M372 571q-44 0 -56 45q-7 26 -15 37.5t-24 11.5q-5 0 -20 -5q-8 -4 -14 -9t-9.5 -8.5t-7 -10.5t-4.5 -10t-3.5 -12.5t-3.5 -11.5q-3 -10 -10.5 -30t-12.5 -36.5t-6 -33.5q-1 -10 -4 -47t-3 -48q0 -10 -7 -24t-7 -20q0 -12 7 -20t9 -12q1 -2 5 -90q1 -10 7.5 -30t6.5 -27
q0 -6 2 -10.5t6.5 -13.5t8.5 -21q5 -13 21 -24t31 -11q22 0 32.5 13t28.5 55q6 14 12 20t19 6q14 0 41 -12.5t32 -26.5q2 -6 2 -8q0 -5 -3 -18t-4 -20q-1 -9 -3 -13t-8 -9.5t-8 -7.5q-7 -7 -21 -32q-8 -14 -29 -35q-7 -7 -35.5 -16t-55.5 -9q-64 0 -143 60q-7 5 -14.5 15.5
t-14.5 22t-9 14.5q-17 22 -27 53q-10 32 -13 80q0 6 0.5 16t0.5 14q0 6 -3.5 18.5t-3.5 20.5q0 5 2.5 15.5t2.5 15.5q0 1 -3 7t-3 17v4q0 8 0.5 33.5t1.5 37.5q4 44 10 55q4 7 5 14t1 18t1 17q4 35 24 74l33 63q2 4 8 8t11.5 5.5t12 3t7.5 1.5q3 1 3.5 5t1 10.5t2.5 10.5
q2 5 8.5 10t18 11.5t16.5 10.5q8 6 32.5 11t41.5 5q12 0 30.5 -4t27.5 -5q39 -4 58 -28q2 -3 10.5 -12.5t12.5 -15.5t5 -13q1 -8 1 -15q0 -8 4 -16q3 -9 3 -17q0 -16 -7 -28q-24 -39 -53 -39z" />
    <glyph glyph-name="D" unicode="D" horiz-adv-x="487" 
d="M38 690q-3 21 -3 28t5 16q9 17 24 22q10 2 48 2q7 0 16 -0.5t12 -0.5q1 0 20.5 -0.5t33.5 -2.5t20 -6q20 -14 44 -19q8 -2 27.5 -11t25.5 -15q3 -3 25 -15.5t27 -19.5q3 -4 14 -26.5t18 -30.5q20 -23 24 -39q1 -4 17 -38.5t16 -52.5q0 -13 2 -51t2 -52q-5 -80 -9 -97
q-2 -7 -4 -22.5t-4.5 -26t-6.5 -13.5q-6 -5 -16 -24.5t-14 -32.5q-3 -8 -14.5 -24.5t-14.5 -24.5q-12 -30 -30 -42q-4 -3 -17 -14.5t-25.5 -20.5t-20.5 -10q-21 -2 -42 -19q-10 -8 -45 -15q-20 -4 -80 -4q-71 0 -71 27q0 6 -0.5 24t-0.5 26q0 20 2 23q6 10 6 49v35
q0 35 3 46q8 32 8 63q0 2 -0.5 5.5t-0.5 4.5q-5 37 -5 66q0 50 -2 73q-1 11 -1.5 34.5t-1.5 32.5v7q0 4 0.5 10t0.5 11q0 9 -1 15q-2 14 -2 19q0 4 0.5 11t0.5 10q0 9 -1 14q-2 8 -2.5 16.5t-2.5 31.5t-4 48zM167 630v-41q0 -14 1.5 -43.5t1.5 -44.5v-19q-1 -16 -1 -30
q0 -4 1.5 -11t1.5 -11q1 -4 1 -10q0 -4 -1 -11.5t-1 -11.5q0 -8 2 -13q3 -8 3 -28v-17q0 -16 1 -26q1 -4 1 -12t-2 -22.5t-2 -21.5v-29q0 -8 -1 -27t-1 -29q0 -42 7 -57q3 -7 20 -7q13 0 23 4q22 9 39 30q13 17 16.5 22.5t8 16t11.5 25.5q17 36 21 68q1 7 1.5 15.5t1 13
t2 11t5.5 14.5q7 16 7 49v34q0 29 -18 92q-2 4 -2 6q-3 12 -17.5 39t-21.5 37q-6 9 -17.5 19.5t-19.5 11.5q-11 2 -29.5 16.5t-27.5 14.5q-13 0 -15 -17z" />
    <glyph glyph-name="E" unicode="E" horiz-adv-x="445" 
d="M168 387q0 -8 0.5 -19t0.5 -20t33 -9q14 0 39.5 3t37.5 3q34 0 34 -13q-2 -34 -30 -80q-4 -6 -9 -7t-12 -1t-12 -2l-2 -2q-3 -1 -4 -1t-4.5 0.5t-12 1t-18.5 0.5q-22 0 -29 -4q-6 -3 -6 -14q0 -4 1.5 -13t1.5 -10q1 -4 1 -13t2 -17.5t8 -14.5t8 -10.5t2.5 -9.5t3.5 -11
q10 -23 48 -23q6 0 18 2q3 1 11 3.5t14 6t13 9.5q27 25 27 39q7 22 25 27q12 6 14 6q18 0 38 -26q14 -16 14 -34q0 -9 -2 -21q-1 -7 -10.5 -18t-11.5 -14q-4 -7 -36 -35q-6 -5 -19 -13t-18 -14q-25 -27 -76 -27q-48 0 -90 20q-34 17 -47 29q-41 39 -49 67q-20 71 -21 125
q-1 4 -7.5 16t-6.5 21q0 50 16 65q0 4 3 13.5t3 14.5q0 10 -4.5 34t-4.5 43q0 13 3 31t4 25q5 49 20 93q2 7 3.5 14.5t3.5 11.5t8 9q8 6 18 44q2 8 8.5 15t19 17t16.5 13q8 7 21.5 13.5t16.5 12.5q10 19 88 19q47 0 93 -35q27 -21 38 -39q8 -13 8 -27q0 -6 4 -21.5t4 -22.5
q0 -3 -2.5 -12t-2.5 -16q0 -9 -16 -20t-27 -11q-6 -3 -35 -3q-5 0 -11.5 6t-7.5 14q-1 6 -1.5 23.5t-4.5 30.5q-9 27 -42 27q-21 0 -38 -10q-39 -23 -46 -73q0 -1 -3 -21.5t-5 -33.5q-4 -26 -4 -33t-3 -23t-3 -27q0 -2 -1 -9t-1 -13q0 -13 2 -22z" />
    <glyph glyph-name="F" unicode="F" horiz-adv-x="399" 
d="M55 674q-15 55 -15 59q0 12 13 17q27 10 49 10q1 0 3.5 -0.5t3.5 -0.5q32 -5 86 -5q5 0 12.5 -0.5t10.5 -0.5q8 0 22 3q5 1 19 1h17q22 0 29 3q12 5 31 5t28 -6q8 -5 16 -18.5t8 -21.5q0 -34 -13.5 -57.5t-29.5 -26.5q-12 -2 -15 -2q-5 0 -29 6q-1 0 -3 1q-26 7 -39 7
q-2 0 -6 -0.5t-6 -0.5q-12 -3 -23 -3q-34 0 -36 -21q0 -2 -2 -47q0 -10 2.5 -26.5t2.5 -24.5q0 -9 -2 -14q-5 -12 -5 -34q0 -6 0.5 -14t0.5 -10q0 -5 3 -16.5t3 -20.5q-4 -33 -4 -72q0 -2 2 -6q0 -1 1 -3q7 -12 19 -12q13 0 18 3t16 3q4 0 15 1.5t17 1.5q17 0 23 -10
q15 -23 15 -59q0 -17 -3 -26q-7 -22 -30 -22q-18 2 -39 2q-2 0 -8 -2q-4 0 -9 -0.5t-7.5 -1l-5 -1t-4.5 -2t-4 -4.5q-3 -3 -7 -3.5t-6 -1t-4 -6t-2 -18.5q0 -17 4 -46t4 -36q0 -2 -0.5 -4t-0.5 -3q-3 -17 -7 -51q-2 -14 -20 -28t-44 -14q-3 0 -8.5 -1.5t-8.5 -1.5
q-13 0 -29 5t-18 11q-7 17 -7 35q0 6 3 44.5t3 50.5t1.5 20t3.5 13.5t3 8.5q3 14 3 37q-15 9 -25 27.5t-10 37.5q5 28 27 35q6 1 6 14q0 11 -2 20t-2 18q0 20 2 29q4 20 4 35q0 9 -5 23.5t-5 21.5q0 1 2 23q0 7 2 17.5t2 17.5q0 1 -0.5 5t-0.5 7q0 1 -2 59q0 13 -2 36.5
t-2 31.5z" />
    <glyph glyph-name="G" unicode="G" horiz-adv-x="457" 
d="M296 545q0 34 1 42q0 1 0.5 4t0.5 5q0 19 -11 32.5t-29 13.5q-40 0 -53 -50q-5 -20 -6 -39q-1 -16 -6 -31.5t-5 -20.5t-4 -20t-4 -24q0 -5 -0.5 -17t-0.5 -20q0 -7 -0.5 -23.5t-0.5 -25.5q0 -8 2.5 -27.5t2.5 -31.5q0 -4 -1.5 -21.5t-1.5 -40.5q0 -17 3 -29q1 -6 7 -25
t8 -33q4 -22 23.5 -40t40.5 -18q26 0 44 20t18 48v13q0 17 -9 17q-29 0 -43 6q-10 5 -10 37q0 44 3 50q6 11 42 13q5 0 13.5 -2t11.5 -2q6 0 10 3q27 17 55 17q3 0 7.5 0.5t6.5 0.5q6 0 15 -5q11 -6 11 -30q0 -13 -6 -55q-1 -8 -1 -20v-16q0 -12 -2 -18t-3.5 -22t-4.5 -30
q-4 -16 -9.5 -31.5t-6.5 -17.5q-8 -23 -38 -53q-2 -1 -14.5 -4.5t-16.5 -12.5q-9 -22 -86 -22q-43 0 -75 16t-48 35q-5 6 -14 15t-14.5 16.5t-10.5 16.5q-2 4 -8 14.5t-9 16.5t-6.5 17.5t-4.5 23.5q-1 13 -8 43t-7 49q0 3 0.5 9t0.5 9q0 9 -1 27t-1 28q0 5 -1 19t-1 23
q0 14 1 21l4 24l3.5 21t1.5 22q0 6 -0.5 19t-0.5 20q0 37 11 59q4 9 14 56q3 13 6 20.5t9 18t11 20.5q6 13 15 23.5t21 20t14 11.5q31 23 49 28q4 1 17 6t25.5 7.5t26.5 2.5q19 0 41 -8.5t25 -9.5q26 -6 49 -38q6 -9 24 -44q5 -10 5 -17t1.5 -21.5t1.5 -23.5q0 -15 -6 -39
q-7 -26 -28 -37q-3 -2 -27.5 -8.5t-28.5 -6.5q-11 0 -20.5 10.5t-9.5 20.5z" />
    <glyph glyph-name="H" unicode="H" horiz-adv-x="500" 
d="M138 754q20 6 27 6q10 0 13 -9q7 -21 7 -48q0 -11 -1 -15q-2 -12 -2 -20q0 -4 0.5 -13t0.5 -13q0 -8 -2 -18t-2.5 -24.5t-1.5 -25.5q0 -2 -0.5 -5.5t-0.5 -4.5q0 -8 2.5 -19t2.5 -16q0 -4 -1 -7q-1 -5 -1 -14q0 -6 1 -19.5t1 -20.5t1 -16t1 -14q0 -3 -2 -23
q-5 -41 -7 -50q-1 -5 -1 -16q0 -24 4 -36q0 -13 20 -13q39 0 65 3h10q37 0 42 9l3 9q3 9 6 21t3 19q0 12 2.5 16.5t2.5 19.5q0 13 -1 18t-1 12q0 9 3.5 24.5t5.5 27.5q3 21 3 30q0 6 -1.5 17t-1.5 18q-3 41 -3 50q0 8 1.5 23t1.5 22q0 11 -3 24q-6 27 -6 37q0 8 1 13
q1 3 2 11t1.5 11.5t3 8t6.5 6.5q6 4 37.5 7t46.5 3q2 0 8 -0.5t7 -0.5q7 -2 13.5 -20t6.5 -38q0 -7 -0.5 -14t-0.5 -8q0 -12 2 -36t2 -33q0 -10 -1 -14q-7 -23 -7 -37q0 -10 1 -15q5 -23 5 -31q0 -12 -2 -21q-2 -13 -2.5 -35.5t-3.5 -39.5q0 -1 -0.5 -3t-0.5 -3v-1l-1 -2
q-5 -24 -5 -60q0 -41 5 -54q2 -6 7 -13t10.5 -14t7.5 -10q2 -4 2 -8q0 -24 -18 -42q-3 -3 -5 -5.5t-3 -4t-1.5 -4.5t-1 -4.5t-0.5 -6.5v-8q0 -9 0.5 -27.5t0.5 -23.5q0 -12 -1 -21q-1 -10 -1 -26q0 -8 0.5 -21.5t0.5 -20.5q0 -37 -9 -44q-5 -3 -16 -3q-23 0 -59.5 6.5
t-39.5 16.5q-2 7 -7.5 18.5t-5.5 18.5q0 1 0.5 3t0.5 3t0.5 2t0.5 2q8 40 8 53q0 17 2 51q0 24 -40 24q-15 -1 -22.5 -3t-15.5 -2t-11 1q-1 0 -3 0.5t-3 0.5h-5q-27 0 -39 -10q-3 -3 -8 -3t-7.5 -3t-2.5 -14q0 -6 -0.5 -23t-0.5 -20q0 -12 4 -29q2 -6 4 -13.5t3 -11.5t1 -8
q0 -3 -2 -13q-9 -39 -26 -43q-24 -4 -69 -4q-24 0 -28 12q-10 33 -10 41q0 4 2 16q7 35 7 61q0 7 -1 22.5t-1 17.5q0 6 1.5 16.5t1.5 15.5q0 2 -7 7.5t-7 7.5q-10 25 -10 40q0 10 10 31.5t11 25.5q0 9 1 19t1 18q0 3 -0.5 7.5t-0.5 6.5q-1 14 -1.5 32.5t-0.5 24.5
q0 9 3 27.5t3 28.5q0 9 -1 14q-2 8 -2 24q0 8 1 21t1 18t1.5 25t1.5 32q0 15 -1 22q-4 28 -4 77q0 42 84 56z" />
    <glyph glyph-name="I" unicode="I" horiz-adv-x="231" 
d="M49 703q0 46 17 53q14 7 58 7t48 -13q3 -10 11 -21.5t8 -16.5q0 -3 -1 -5q-3 -8 -4.5 -31t-4.5 -40q-2 -16 -2 -20q0 -10 2.5 -26.5t2.5 -26.5q-1 -15 -2 -36.5t-1.5 -36t-2.5 -22.5t-2 -33q0 -11 0.5 -31t0.5 -28t-1 -21t-1 -20q0 -13 3 -37q2 -11 4 -24t3 -20.5
t1 -14.5q0 -14 -2 -24q-5 -32 -5 -51q0 -18 3 -28q8 -27 8 -75q0 -20 -20 -45t-42 -25q-5 0 -10 0.5t-9.5 2l-7.5 2.5t-7 3.5t-6.5 3.5t-6 4.5t-5 4.5t-5.5 5l-5 5q-25 23 -25 55q0 33 4 74q1 8 5.5 33t4.5 45q0 9 2.5 37.5t2.5 50.5q-1 18 -1.5 49.5t-1.5 45.5q-1 8 -1 24
v28q0 20 -1 33q0 3 -0.5 8t-0.5 7q0 10 1.5 24.5t1.5 19.5t-2 15q-2 8 -2 13t1.5 14.5t1.5 13.5t-2 12q-3 10 -3 17q0 3 0.5 8t0.5 9q0 7 -1.5 17t-1.5 28z" />
    <glyph glyph-name="J" unicode="J" horiz-adv-x="375" 
d="M194 696q0 28 23 46q8 6 32 12t35 6q12 0 34 -16t22 -31q0 -53 -8 -76q-4 -12 -4 -28v-26q-2 -15 -2 -72q0 -36 2 -52q5 -20 5 -38q0 -7 -1 -10q-8 -24 -8 -32t1 -13q3 -15 3 -46q0 -36 -3 -61q-1 -8 -1.5 -22t-1.5 -21.5t-3 -18.5t-6 -21q-4 -11 -4 -27q0 -26 -14 -54
q-15 -31 -48 -58q-36 -29 -58 -37q-21 -7 -50 -7q-55 0 -83 19q-19 13 -37 50q-7 14 -7 38q0 17 3 23q8 19 30 33.5t39 14.5q15 0 22 -10.5t9 -34.5q1 -12 10.5 -19t19.5 -8q21 0 37 30q2 4 4 6.5t2.5 3t1.5 0.5h1l1 2q0 2 1 5t3 10q4 14 4 40q0 14 2 26q1 10 1 55
q0 12 2 19q0 11 4 33.5t4 33.5q0 16 -3 28q-4 13 -4 32q0 8 1 22t1 18q0 11 0.5 25t0.5 19q0 13 -1 19q0 2 -0.5 5t-0.5 4q0 8 2 22.5t2 21.5q0 8 -1 12q-3 13 -5 51q0 9 -5.5 22.5t-5.5 31.5z" />
    <glyph glyph-name="K" unicode="K" horiz-adv-x="497" 
d="M42 628l3 58q1 3 2 11t3 14.5t6 10.5q6 5 25.5 14t20.5 10q4 2 25.5 5t30.5 3q5 0 8 -1q16 -3 16 -32q0 -10 -1 -15q-2 -12 -6.5 -39.5t-5.5 -36.5q-2 -10 -2 -34q0 -41 -1 -46q-1 -3 -3 -45q0 -7 2 -15t2 -14q0 -7 -1 -12q-2 -15 -2.5 -28.5t-1.5 -21.5q0 -2 -0.5 -7
t-0.5 -7q0 -7 1 -19t1 -18q0 -2 -0.5 -5.5t-0.5 -5.5t-0.5 -6.5t-0.5 -7.5q0 -13 6 -14h1q6 -2 35 25q11 10 22 26.5t15 18.5q8 0 11.5 6t5.5 17.5t3 14.5q6 15 14 28.5t13 29.5q4 12 13.5 33t11.5 38q2 14 4.5 29.5t4.5 29.5q1 6 1 17q0 5 -0.5 14t-0.5 13q0 10 3 18
q3 9 4.5 20t3.5 16q14 40 89 40q26 0 26 -49q0 -6 -1 -9q-2 -11 -3.5 -31.5t-3 -35t-5.5 -21.5q-13 -25 -18 -53q-7 -42 -16 -62q-2 -5 -5.5 -16.5t-8.5 -25.5l-2 -5q-24 -63 -39 -78q-10 -9 -14.5 -25.5t-5.5 -18.5q-2 -3 -8 -7.5t-9.5 -9.5t-3.5 -10q2 -8 12 -28t12 -27
q3 -8 21 -24t24 -27q5 -8 9.5 -21.5t12.5 -23.5q5 -6 14.5 -15.5t15 -16t6.5 -11.5q3 -12 24 -42q28 -41 31 -49q1 -2 1 -5q0 -15 -29 -18q-22 -2 -46 -2q-58 0 -63 10q-4 8 -11.5 17t-12.5 16q-4 6 -9 22t-12 20q-16 9 -23 31q-2 6 -2 10.5t-1.5 8t-7.5 10.5q-8 10 -27 52
q-9 20 -28 26h-3q-2 1 -3 1q-4 0 -13 -9l-10 -10q-19 -12 -19 -30q0 -1 0.5 -3t0.5 -3q6 -30 6 -68t-14 -64q-4 -9 -23 -19.5t-38 -10.5q-5 0 -13 2q-4 0 -9 -2t-7 -2q-9 0 -16 11q-4 7 -4 17q0 5 1.5 17.5t1.5 20.5q0 9 -1 14q-1 10 -4.5 25t-3.5 23q0 9 1 14q4 23 4 42
q0 12 -1 19q0 12 0.5 27t0.5 20q0 8 -1 18t-1 14t1 15.5t1 21.5q0 3 -0.5 10t-0.5 11q-1 11 -1 29q0 9 -2 22t-2 18q0 7 1 10q4 13 4 27q0 13 -3 32q-2 20 -2 25t0.5 15t0.5 18q0 9 -1.5 33t-1.5 40q0 3 0.5 11t0.5 12z" />
    <glyph glyph-name="L" unicode="L" horiz-adv-x="400" 
d="M58 695q0 29 14 45q10 12 45 17h4q17 0 44 -8t27 -21v-20q0 -13 -0.5 -37.5t-0.5 -36.5v-38q0 -24 -2 -28q-2 -5 -2 -16q0 -6 1 -17t1 -16q-3 -36 -3 -51q0 -9 2.5 -25t2.5 -25q0 -10 -1.5 -25.5t-1.5 -22.5q0 -25 1 -36q2 -46 2 -87v-23q0 -26 1 -38q0 -25 7 -37
q3 -5 4 -11t1 -9t3.5 -5.5t10.5 -3.5q8 -1 25 -1q12 0 30 1.5t26 1.5q5 0 14 2t14 2q56 0 62 -28q0 -1 0.5 -4.5t0.5 -5.5q0 -28 -13 -57q-1 -3 -4 -11t-5.5 -14t-4.5 -7q-10 -7 -34 -7q-3 0 -10 0.5t-11 0.5q-13 0 -32 -2.5t-30 -2.5q-14 0 -17 3q-14 14 -28 14q-6 0 -9 -1
q-11 -2 -43.5 -5t-35.5 -3q-57 0 -62 25q-1 5 -6 23.5t-5 27.5q0 4 2 12q2 5 10 20.5t8 25.5q0 7 1.5 29.5t1.5 37.5q0 7 0.5 31t0.5 38q0 26 -2 44q-5 35 -5 43q0 10 3 16q8 18 8 38q0 6 -2 10q-2 3 -2.5 8.5t-0.5 14.5t-1 15q-2 22 -2 29q0 14 2 21q4 22 4 25q0 8 -3 29
q-7 35 -7 60q0 11 1.5 26.5t1.5 21.5q0 3 -0.5 12t-0.5 16z" />
    <glyph glyph-name="M" unicode="M" horiz-adv-x="811" 
d="M94 -9q-28 1 -35 3.5t-8 14.5v24q0 29 -4 46q-2 12 -2 19q0 9 2 24t2 21t-1.5 15.5t-1.5 13.5q0 6 0.5 19t0.5 20q0 19 4 41t4 30q0 6 -1 10q-4 23 -4 41q0 15 1 24q1 12 5 31t4 32q0 11 -0.5 27.5t-0.5 22.5q0 19 1 27q4 41 8 60q2 12 3.5 30.5t3.5 32t6 20.5
q5 9 15 28.5t15 28.5q10 18 52 41q44 25 64 25q66 0 83 -13q8 -6 24.5 -13t21.5 -12q7 -8 13.5 -16t11 -15.5t7.5 -13.5t5 -12t3 -9.5t2 -7.5l1 -4q1 -13 5.5 -28t5.5 -24q5 -41 15 -41q4 20 19 55q2 5 9.5 21t11.5 26q12 29 36 55q47 54 101 54q18 0 48 -10.5t39 -22.5
q5 -7 22.5 -20t19.5 -24q2 -9 7 -27t6 -25q0 -2 4.5 -20t4.5 -34q0 -13 1.5 -56.5t1.5 -55.5v-28q0 -34 -3 -45q-3 -14 -3 -43q0 -6 3 -26t3 -28q0 -2 -0.5 -4.5t-0.5 -3.5q-2 -8 -2 -33v-38q0 -14 6 -40.5t6 -30.5q0 -10 -2.5 -27.5t-2.5 -25.5q0 -5 2 -15q9 -31 9 -49
q0 -15 -8.5 -29t-19.5 -16q-4 -1 -13 -1q-82 0 -92 10q-3 3 -8 6t-7 5t-2 5q0 1 1 3q7 24 7 37q0 8 -1 12q-3 13 -3 42t3.5 52.5t3.5 27.5q0 3 -2 13q-4 13 -4 20q0 3 0.5 6.5t1 10t0.5 13.5q2 38 2 45q0 18 -2 28q0 1 -4 51q0 14 2 31t2 25q0 16 1 30.5t1 17.5q0 4 -2 16
q-1 6 -3 12t-3 11.5t-1 17.5q0 13 -3 32.5t-3 29.5q0 35 -34 35q-9 0 -22.5 -16.5t-22.5 -37.5q-21 -49 -22 -53q-6 -18 -10 -35t-12 -39q-3 -10 -9.5 -27t-9 -24t-5 -18.5t-3.5 -24.5q-1 -16 -5 -42.5t-5 -43.5q0 -21 1.5 -53t1.5 -43v-23l-1 -10q0 -8 1 -24.5t1 -29.5
q0 -6 1 -20.5t1 -21.5q0 -13 -3 -22q-4 -11 -28 -20.5t-40 -9.5q-24 2 -49 10.5t-25 20.5q0 6 -1.5 25.5t-1.5 30.5q0 3 0.5 7.5t0.5 6.5t2 25.5t2 32.5q0 5 -1 10.5t-1 6.5q0 3 2 12t2 15q0 5 -1 10.5t-1 8.5q0 6 1.5 16t1.5 15q0 1 -0.5 4t-0.5 5q0 5 2.5 20.5t2.5 31.5
q0 4 0.5 10t0.5 9q0 5 -3 20q-3 11 -3.5 20t-1 22.5t-1.5 25.5q-6 69 -7 75q0 12 2.5 20.5t2.5 12.5q0 5 -1 9q-9 38 -32 86q-11 22 -37 22q-27 0 -40 -48q-14 -52 -14 -63q0 -7 3 -19t3 -18q0 -8 -1 -12q-4 -18 -8 -50q0 -1 -0.5 -3t-0.5 -3q-7 -42 -7 -55q1 -46 1 -89
q0 -9 0.5 -22t0.5 -17q0 -7 -1.5 -17.5t-1.5 -15.5q0 -8 2.5 -29t2.5 -32q0 -16 1.5 -41t1.5 -35q0 -13 -1 -19q-2 -22 -33 -41.5t-59 -19.5z" />
    <glyph glyph-name="N" unicode="N" horiz-adv-x="583" 
d="M408 287q0 12 1 32.5t1 36.5q0 15 3 32.5t3 18.5q0 5 0.5 18t0.5 30q0 21 -1 46.5t-1 39.5v16q0 13 1 26t1 26t-7 67q-1 9 -3.5 23.5t-2.5 21.5t1 11q4 22 31 30q6 2 47 2q43 0 49 -14q10 -18 10 -54q0 -15 -2 -20q-3 -11 -5 -34.5t-3 -33.5q-2 -14 -2.5 -45t-1.5 -41
q-1 -7 -1 -64q0 -25 -1 -34q-1 -8 -1 -45q0 -26 -3 -37q-5 -17 -5 -72q0 -18 -0.5 -53.5t-0.5 -51.5q0 -32 1 -42q0 -7 1.5 -27t1.5 -30q0 -15 -1 -22v-4q-5 -35 -38 -44q-10 -2 -13 -2q-44 0 -58 18q-9 11 -21.5 40t-13.5 30q-6 9 -12.5 27t-12.5 26q-14 18 -26 54
q-5 16 -15 34.5t-14 27.5q-4 8 -9 31t-17 36q-14 20 -22 31.5t-11 16.5t-3 6q-3 4 -10.5 25.5t-10.5 26.5l-34 61q0 -7 -1 -42.5t-1 -40.5q0 -10 -2 -15q-5 -11 -5 -27q0 -5 2 -25q1 -6 4.5 -24.5t3.5 -27.5v-7q-4 -40 -8 -60q-4 -24 -4 -43q0 -13 1 -19q1 -4 1 -13
q0 -6 -1 -19t-1 -20t2 -23q3 -18 4.5 -32t1.5 -16v-4q0 -12 -7.5 -23.5t-19.5 -13.5t-42 -2q-47 0 -55 13q-11 16 -11 38q0 5 2 17q7 29 8 51v6q0 7 -1.5 20t-1.5 20q0 9 -1 14q-1 4 -1 12q0 10 4.5 31.5t4.5 32.5q0 1 -0.5 4t-0.5 5q0 3 -0.5 6.5t-0.5 5.5q0 7 2 21.5
t2 25.5t-1 18q-1 9 -1 26q0 9 1 24.5t1 22.5q0 2 -0.5 7t-0.5 8v6q0 9 3 25t3 26q0 6 -2 18q-7 28 -7 68q0 13 2.5 36t2.5 31t-1 12q-1 7 -5.5 22t-4.5 23q0 7 1 10q1 4 3 13.5t3.5 14.5t4.5 10.5t7 8.5q31 22 54 22q4 0 7 -1t12 -3.5t13.5 -4t11.5 -4.5t11.5 -7.5
t7.5 -10.5q4 -7 20.5 -31t18.5 -34q2 -9 15.5 -29t15.5 -28q7 -29 16 -42q5 -8 13 -22t15 -25q32 -45 36 -57q2 -7 8 -19t9.5 -21t3.5 -15t3 -13.5t9.5 -20.5l9.5 -19l12 -24l14 -28t7 -17z" />
    <glyph glyph-name="O" unicode="O" horiz-adv-x="545" 
d="M243 763q14 5 46 5q35 0 48 -3q8 -1 17.5 -6t24.5 -15t19 -13q12 -7 19 -14.5t12 -10.5q5 -4 8.5 -8.5t7.5 -13t7 -13.5t7 -12.5t8.5 -15t11.5 -17.5q9 -15 9 -45q0 -9 1 -15q2 -17 7 -36.5t6 -28.5q2 -17 2 -69q0 -12 -4 -52.5t-4 -53.5q0 -46 -12 -104q-8 -39 -11 -49
q-9 -32 -21 -54q-5 -10 -17.5 -23.5t-15.5 -19.5q-3 -7 -19 -22t-21 -22q-10 -15 -45 -33.5t-67 -18.5q-35 0 -65 6t-37 13q-10 10 -52 45q-10 9 -25 36t-15 43t-11 47t-11 48q0 14 -3 22q-4 12 -4 43t-2 43q-1 7 -1 19q0 11 2 33t2 34q0 36 12 79q5 18 7.5 39t4.5 32
q2 9 3 17.5t1 12.5t2 8.5t6 8.5q12 13 13 21q7 39 36 71q18 20 37 33t28 16.5t28 8t20 4.5zM271 657q-33 -11 -41 -34q-2 -5 -14 -24.5t-14 -30.5q0 -4 -4 -32.5t-4 -40.5q0 -3 1 -11.5t1 -13.5q0 -12 -2 -18q-8 -18 -12 -64q-2 -6 -2 -11q0 -4 1.5 -14t1.5 -16v-42
q0 -8 -1 -12q-1 -5 -1 -11q0 -7 2 -18t2 -18q4 -44 5 -47q3 -8 7 -22.5t5 -18.5q3 -21 11 -34q6 -12 22 -21.5t33 -9.5q29 0 51 27q11 17 23 50q18 40 19 57q1 9 4 19t3 16q0 4 -1.5 11.5t-1.5 12.5q0 3 1.5 10.5t1.5 10.5q13 41 13 54q0 2 -1 7v5q-4 16 -4 25q0 4 1 12
t1 12q0 5 -0.5 16t-0.5 17q1 10 1 22q0 3 -0.5 7.5t-1 15.5t-0.5 26q0 11 -2 21q-4 20 -11 41q0 1 -0.5 2.5t-0.5 2.5q-3 22 -15 37q-18 21 -31 27q-10 2 -25 2q-6 0 -20 -2z" />
    <glyph glyph-name="P" unicode="P" horiz-adv-x="467" 
d="M45 -10q-18 21 -18 35q0 3 2 9q8 25 8 59q0 6 1 17t1 15q0 5 0.5 15t0.5 16q0 4 -3 4q-6 0 -15 6t-10 13q0 32 5 37q2 2 9 12q19 28 19 49q0 5 3.5 31t3.5 41q0 8 -2 20q-3 17 -3 33q0 6 0.5 20.5t0.5 24.5q0 5 1 13t1 13q0 6 -3.5 19t-3.5 21q0 2 0.5 4.5t1 6.5t0.5 8
q0 6 2 14t2 13q0 10 -2 20q-8 40 -8 57q0 5 1 14.5t1 12.5q0 8 -5 13q-20 17 -20 34q-5 10 -5 24q0 9 4 13q12 12 43 12q9 -1 63.5 -1.5t62.5 -0.5q13 0 39 -7t41 -7q12 0 28 -6q2 -1 17.5 -6t30 -11t19.5 -11q47 -47 52 -63q1 -4 14.5 -27.5t13.5 -39.5q0 -18 3.5 -39
t3.5 -27q0 -9 -2 -13q-4 -9 -5.5 -18.5t-3 -21.5l-2.5 -20q-6 -30 -36 -82q-6 -10 -19.5 -24.5t-33.5 -33.5l-21 -20q-4 -4 -12 -15t-19 -17q-9 -4 -18 -14t-21 -15q-24 -10 -43 -22l-38 -37q0 -5 -5 -32t-5 -41q0 -10 1 -14q10 -38 10 -51q0 -5 -1 -7q-5 -16 -31 -28
q-14 -7 -51 -7t-45 10zM170 328q0 -27 9 -27q4 0 7 2q9 5 31 22t31 29q12 16 18 25t8.5 13.5t8.5 17t13 26.5q14 28 16 84q0 21 -10 63q-6 22 -23 40q-22 24 -50 24h-2h-3q-6 0 -20 1.5t-18 1.5q-5 0 -6 -1q-8 -7 -8 -15q0 -4 2 -12.5t2 -13.5q0 -2 0.5 -5t0.5 -4
q0 -8 -4.5 -18.5t-4.5 -29.5q0 -16 0.5 -28.5t0.5 -19.5q0 -6 3 -28.5t3 -26.5q0 -3 -3 -32.5t-3 -34.5q0 -11 0.5 -28t0.5 -25z" />
    <glyph glyph-name="Q" unicode="Q" horiz-adv-x="540" 
d="M215 -14q0 1 -11 3.5t-24.5 7.5t-18.5 9q-35 29 -45 46q-2 4 -5.5 11.5t-6 12t-7 10.5t-9.5 10q-14 9 -26.5 29.5t-13.5 42.5q-1 39 -7 68q-11 51 -11 95q0 15 4 46t4 48q10 85 21 104q6 9 15 39t15 43q18 39 53 74q50 50 70 59q29 13 64 13q28 0 54 -6q82 -20 97 -45
q4 -6 16 -22t21 -30t10 -24q1 -11 11.5 -38.5t10.5 -35.5q0 -3 5 -33t5 -44v-16q0 -9 2 -34.5t2 -36.5q0 -10 -2 -20q-2 -8 -3 -59.5t-7 -68.5q-6 -15 -20 -66v-1q-1 -1 -1 -2q-7 -27 -23 -51.5t-31 -41t-17 -20.5q-12 -22 -29 -36q-9 -8 -22.5 -13.5t-17.5 -8.5
q-5 -4 -5 -12q0 -7 7 -33q0 -1 1 -3q11 -44 14 -51q1 -2 1 -6q0 -9 -8 -18t-17 -11q-2 -1 -9 -1q-15 0 -40 4.5t-30 11.5q-6 8 -10.5 24t-6.5 21q-19 43 -19 56zM202 137q4 -3 14.5 -16.5t15.5 -16.5q0 -2 3 -2q10 0 21 21q5 6 14 6q3 0 10.5 -2t9.5 -2q5 -1 9 -3.5t5 -2.5
q4 0 8 4q7 5 18.5 24.5t16.5 32.5q21 45 28 59q8 14 8 46q0 10 1 16t2.5 27.5t6.5 29.5q9 27 9 28q-2 3 -5 17.5t-4 18.5q-3 11 -8 68q0 10 -4.5 23t-5.5 26q-3 17 -25 64q-8 13 -27.5 23.5t-34.5 12.5q-8 0 -36 -10q-14 -6 -37 -37q-23 -30 -31 -49q-2 -7 -5 -18.5
t-7 -28.5q-4 -20 -12 -78q-6 -36 -6 -62q0 -10 1 -16q1 -10 2.5 -38.5t3.5 -39.5q1 -10 6 -29.5t7 -33.5q8 -35 28 -62z" />
    <glyph glyph-name="R" unicode="R" horiz-adv-x="494" 
d="M56 9q0 8 -1 25t-1 26q0 8 1.5 23t1.5 22q0 8 -1 12q-1 8 -10 31t-9 31q0 7 2.5 14.5t7 18.5t6.5 16q4 11 4 43q0 23 -2 51q0 18 3 42t3 32v18q0 12 -3 29q-3 15 -3 28t2 20q0 1 1 3q1 3 4.5 15.5t3.5 19.5q0 6 -1 9q-2 6 -2 7q-2 14 -2 39q0 36 -3 70q-1 13 -11 30
t-11 20q-5 18 -5 24q0 9 5 13q26 23 49 23q1 0 8 -1t9 -1q42 -15 64 -15q44 4 83 4q11 0 25 0.5t18 0.5q7 0 24 -5.5t21 -9.5q51 -23 61 -46q1 -3 21.5 -35t21.5 -41q0 -4 4.5 -23t4.5 -29q0 -15 -5 -27q-2 -5 -2 -12q0 -5 2.5 -15.5t2.5 -18.5v-7q-5 -40 -23 -73
q-21 -38 -62 -95q-34 -47 -36 -49q-14 -12 -14 -23t6.5 -21t19 -23t16.5 -19q8 -10 10 -17t2.5 -16t2.5 -17q1 -3 5 -4t11.5 -1.5t11.5 -1.5q7 -2 17.5 -17.5t13.5 -17.5q8 -5 20.5 -18.5t16.5 -22.5q13 -30 13 -33q0 -11 -18 -20q-16 -9 -54 -9l-9 -1h-16q-40 0 -45 10
q-7 15 -25 41t-25 31q-5 4 -17 25.5t-21 33.5q-7 8 -13 21.5t-10 21t-10 7.5q-3 0 -7 -2q-26 -15 -27 -33q0 -8 -4.5 -35t-4.5 -38q0 -9 2 -29.5t2 -34.5q0 -16 -18 -18q-33 -6 -83 -6q-19 0 -20 30zM185 303q0 -1 3 -1q21 0 42 23q13 13 21.5 24.5t14.5 18.5q13 16 34 62
q5 12 12.5 35t12.5 30q6 7 6 15q0 2 -0.5 8t-0.5 10q0 24 -7 31q-3 3 -20 44q-15 35 -46 43q-13 3 -27 3h-23q-6 0 -9.5 -0.5t-5.5 -1.5t-3 -2t-2.5 -3t-3.5 -3q-2 -2 -2 -15q0 -10 1.5 -33t1.5 -29q0 -12 -0.5 -36t-0.5 -38q0 -7 -2 -18.5t-2 -20.5q0 -5 -1.5 -17t-1.5 -17
t2 -13q0 -6 -0.5 -20.5t-0.5 -22.5q0 -42 8 -56z" />
    <glyph glyph-name="S" unicode="S" 
d="M299 561q-25 12 -25 41q0 2 0.5 5t0.5 4q1 4 1 11q0 34 -36 34q-26 0 -37.5 -13.5t-19.5 -38.5q-6 -16 -6 -35q0 -11 1 -17q4 -27 24 -45q4 -3 11 -11t11.5 -12.5t12.5 -9t17 -5.5q14 -1 28 -19t19 -21q44 -24 60 -48q11 -15 22.5 -23t16.5 -19q26 -57 26 -93
q0 -29 -4.5 -66t-4.5 -40q0 -9 -4.5 -16.5t-12.5 -18t-14 -22.5q-9 -17 -22 -23t-15 -10q-13 -26 -39 -41q-13 -7 -45 -16t-56 -9q-5 0 -37 8q-30 6 -54 20.5t-31 27.5q-12 21 -34 39q-13 10 -24 54q0 8 -4.5 26.5t-4.5 30.5q0 11 2 17.5t7 15t6 11.5q2 5 9 10.5t12.5 8.5
t15.5 8l11 5q18 6 31 6q7 0 17.5 -10t15.5 -19q5 -10 5 -29v-18q1 -11 6.5 -30.5t6.5 -24.5q2 -17 14 -28t30 -11q31 0 43.5 8t17.5 31q1 3 9 18.5t8 31.5l-11 69q-3 17 -21.5 31.5t-19.5 15.5q-1 2 -4.5 16t-13.5 20q-9 5 -20.5 7.5t-20.5 6.5q-10 5 -19 14t-19 15
q-25 16 -48 44t-35 54q-16 35 -16 82q0 10 10 45t18 48q5 8 20 16.5t18 19.5q4 14 25.5 30.5t35.5 23.5q5 2 24.5 3.5t29.5 7.5q9 5 21 5q5 0 18 -1.5t22 -1.5q22 0 58 -19q31 -16 51 -43q16 -23 16 -57q-1 -3 -2.5 -18t-5.5 -23q-5 -8 -29 -20.5t-37 -12.5q-2 0 -15.5 -4
t-17.5 -4z" />
    <glyph glyph-name="T" unicode="T" horiz-adv-x="414" 
d="M130 -1q-2 5 -2 26q0 26 4 34q3 7 3 17q0 6 -2 24q0 1 -0.5 2.5t-0.5 2.5q-1 4 -1 10q0 4 1.5 18.5t1.5 29.5q0 7 3 19t3 20q0 6 2.5 24.5t2.5 32.5q0 11 -1 17q-1 10 -1 28q0 12 1 36.5t1 37.5q0 12 0.5 35.5t0.5 34.5q0 22 -1 32q-3 46 -3 103q0 23 -1 31q-2 22 -21 31
q-3 2 -6 4.5t-6.5 3.5t-11.5 1q-9 0 -12 -1q-5 -1 -22.5 -8t-25.5 -7q-10 0 -18 12.5t-8 22.5q0 52 1 55t2 8t1.5 7t1.5 5.5t2.5 5t4 2.5t5.5 1q12 0 43 2.5t39 2.5q32 -5 95 -5h16q9 1 26 1q10 0 23 -0.5t15 -0.5t21.5 -2t31.5 -2q10 0 14 1q14 2 20 2q26 0 30 -16
q5 -15 5 -41q0 -14 -7.5 -36.5t-13.5 -23.5l-1 -1h-2q-17 -5 -28 -5q-9 0 -13 2q-8 3 -23 4t-18 2q-6 2 -8 2q-12 0 -17 -16q-3 -8 -3 -22q-1 -37 -2 -61t-1 -34t2.5 -26t2.5 -24q0 -10 -3 -17q-8 -17 -11 -67q-1 -20 -1 -81q0 -8 3 -35.5t3 -37.5q0 -15 1 -32t3 -32t2 -20
q0 -8 5.5 -34.5t5.5 -38.5q0 -51 -27 -64q-7 -4 -41 -9t-46 -5q-1 0 -4 0.5t-5 0.5q-3 0 -9 1l-9 1.5t-7 2.5t-5 6z" />
    <glyph glyph-name="U" unicode="U" horiz-adv-x="513" 
d="M69 114q-10 39 -12 71q-1 23 -3.5 42.5t-2.5 25.5v26q0 7 1.5 21t1.5 20t-1 14t-1 12q0 7 1 23t1 25t2 23.5t2 21.5q0 11 -2 18q-3 15 -3 27v42q-1 15 -1.5 34t-1.5 33q-1 8 -3.5 33.5t-4 47.5t-1.5 34q3 33 9 42q3 5 18 11t27 6q3 0 8.5 -2t7.5 -2q60 -8 62 -33
q0 -2 3 -17t3 -26q0 -5 -2 -21q-2 -9 -2 -50q0 -11 1 -28.5t1 -23.5q0 -2 -0.5 -6t-0.5 -5q-2 -8 -2 -36q0 -32 -1 -47q0 -3 -0.5 -7t-0.5 -6q0 -8 1.5 -22t1.5 -21t-2 -19.5t-2 -18.5q0 -10 4 -27t5 -26q4 -38 4 -87q0 -19 -1 -24v-4q0 -10 9 -27.5t10 -26.5
q3 -21 16.5 -34t32.5 -13q52 0 69 49q3 8 10.5 25t9.5 31q9 66 9 97q0 55 11 67q7 8 7 26t-7 32q-6 12 -6 25q0 15 6 42t6 40q-5 80 -5 83q0 10 -3.5 31t-3.5 29q-1 9 -6 20.5t-5 17.5q0 5 1 8q3 8 14.5 16.5t26.5 15.5t17 8q6 4 24 4q42 0 46 -20q8 -38 8 -42q0 -6 -1 -10
q0 -1 -0.5 -4.5t-0.5 -5.5q0 -8 2.5 -34.5t2.5 -38.5q0 -9 -1 -13q-8 -64 -8 -72q1 -14 4 -31.5t3 -28.5q0 -2 -0.5 -6.5t-0.5 -7.5q-5 -55 -5 -76q0 -63 -3 -84q-1 -8 -2 -39t-4 -55q0 -2 -0.5 -4.5t-0.5 -3.5q-7 -51 -18 -70q-5 -8 -11.5 -28t-12.5 -27q-4 -4 -10 -12.5
t-13 -15.5q-6 -6 -19 -13t-20 -14q-7 -8 -22.5 -12t-22.5 -8q-27 -15 -79 -15q-21 0 -48.5 7t-37.5 17q-4 4 -29.5 24.5t-30.5 29.5q-10 16 -22 53z" />
    <glyph glyph-name="V" unicode="V" horiz-adv-x="540" 
d="M237 10q-4 17 -16.5 32.5t-12.5 20.5q-1 4 -2.5 19t-4 27.5t-5.5 16.5q-3 5 -4.5 20.5t-3.5 22.5q-1 3 -9.5 15.5t-13.5 29.5q-12 47 -23 74q-6 15 -14.5 59.5t-14.5 57.5q-17 38 -29 83q-1 5 -2 26t-9 32q-24 42 -29 56v2l-1 2q-12 40 -19 54q-2 5 -6 12.5t-6 13.5
t-2 14q0 12 17.5 30.5t28.5 23.5q6 3 20 3q20 0 48.5 -6t31.5 -16q14 -61 14 -62q9 -59 11 -71q1 -10 11.5 -42t11.5 -50q1 -17 12.5 -47.5t11.5 -39.5q0 -10 6.5 -29.5t6.5 -25.5q2 -33 12 -59q4 -8 11.5 -17.5t8.5 -17.5l1 -2v-3q6 -53 18 -53q10 0 20 70q2 16 10 39.5
t10 31.5q14 62 14 73q0 12 6.5 39t8.5 43q3 20 4.5 39.5t2.5 27.5q1 11 3 17t5 14.5t6 18.5q3 7 3 18q0 4 -1 11.5t-1 12.5q0 3 2 19q8 32 27 51q6 5 29 11t33 6q3 0 9 -2q46 -17 46 -40q-1 -30 -13 -64q-3 -9 -7 -32t-12 -36q-6 -10 -9.5 -19.5t-7.5 -22.5t-8 -23
q-5 -13 -9 -40.5t-11 -44.5q-8 -21 -25 -81q-6 -22 -14 -67t-10 -55q-6 -25 -29 -71q-4 -7 -5.5 -18.5t-3 -26.5t-2.5 -23q-2 -13 -10 -31.5t-11 -29.5q-4 -16 -18.5 -28t-25.5 -16q-6 -2 -17 -2q-38 0 -44 25z" />
    <glyph glyph-name="W" unicode="W" horiz-adv-x="864" 
d="M55 95q-7 48 -7 90q0 13 -4 35.5t-4 32.5q0 2 1 8t1 12q0 5 -1 14.5t-1 13.5q0 5 0.5 15t0.5 14q0 8 -2 21t-2 19q0 4 0.5 13.5t0.5 15.5q0 37 -3 74q0 9 4 31t4 31q0 2 -0.5 4t-0.5 3q-4 24 -4 67q0 9 0.5 33.5t0.5 35.5q0 13 -1 25t-1 14q0 16 9 26q14 15 28 15
q58 0 72 -2q18 -2 30.5 -16.5t12.5 -35.5q0 -58 -9 -96q-3 -14 -3 -62q0 -7 3.5 -24t3.5 -28q0 -10 -1 -15l-1 -11q-2 -10 -3 -23t-1 -21t1 -38t1 -50q0 -8 -2 -25t-2 -25q0 -15 4 -31q6 -22 6.5 -50.5t1.5 -31.5q12 -69 63 -69q21 0 39 8.5t23 24.5q4 11 20.5 18.5
t19.5 17.5q2 4 2 11q0 4 -3 16.5t-3 24.5v9q1 20 15 100q4 20 4 56q0 20 -1 29q-3 30 -3 59v17q0 7 4 24.5t4 31.5q0 2 -0.5 6.5t-0.5 7.5q-1 16 -7 46t-6 43q0 7 -0.5 17.5t-0.5 14.5q0 9 1 13q3 16 24 29t57 14q4 0 10 -0.5t8 -0.5q10 0 33.5 -16t24.5 -33q0 -34 -9 -86
q-1 -6 -1 -15q0 -8 2.5 -21t2.5 -22q0 -8 -1 -13q-2 -18 -3.5 -59.5t-2.5 -58.5q-1 -10 -1 -29q0 -10 0.5 -26t0.5 -23q0 -14 -1 -20q0 -4 -3.5 -26.5t-3.5 -34.5q0 -8 2 -22q2 -11 2 -39q0 -19 5 -35q19 -65 91 -65q11 0 27 9.5t23 16.5q11 11 16.5 24t10 31t9.5 30
q13 28 13 87q0 6 -2 20q-2 9 -2 27q0 7 0.5 21t0.5 20q0 15 2 29q5 32 5 44t-3 27q-4 17 -4 35v46q0 9 1.5 28.5t1.5 28.5q0 32 -12 78q-1 3 -1 10q0 13 5.5 25.5t12.5 16.5q11 6 80 6q18 0 23 -4q27 -17 27 -61q0 -19 -5 -50.5t-6 -39.5q-1 -9 -1 -22v-18q0 -15 -1 -27
q-3 -35 -3 -93q0 -10 -2 -25.5t-2 -21.5q0 -5 2 -13q2 -6 2 -18v-35q2 -18 2 -50q0 -15 -2 -31t-5.5 -38.5t-5.5 -34.5q-3 -28 -21.5 -64t-33.5 -52q-9 -10 -26.5 -20.5t-23.5 -15.5q-15 -14 -48 -24q-4 -1 -16.5 -2.5t-31.5 -3.5t-27 -3q-46 0 -57 4q-27 11 -38 18
q-25 15 -42 59q-2 5 -4.5 8.5t-5.5 5.5t-5 2.5t-5.5 1.5t-4.5 1t-5.5 -4.5t-11 -12.5t-11.5 -14q-16 -23 -50 -44l-1 -1h-1q-17 -11 -40 -20q-16 -6 -56 -6q-5 0 -18.5 -1.5t-20.5 -1.5q-10 0 -16 3q-4 2 -29.5 8.5t-35.5 13.5q-54 36 -61 85z" />
    <glyph glyph-name="X" unicode="X" horiz-adv-x="501" 
d="M45 692q0 32 66 57q1 1 3 1q13 5 20 5q31 0 35 -11q2 -5 8.5 -20t9.5 -29q2 -7 3.5 -20t4.5 -21t11 -18q30 -38 32 -61q1 -14 11 -37.5t18 -23.5q10 41 14 52q2 6 11 22.5t12 26.5q2 6 9.5 23t8.5 28q5 44 11 52q3 4 9 15t10 14t55 11q10 0 26 -7.5t23 -16.5q7 -8 7 -28
q0 -4 0.5 -10.5t0.5 -9.5q0 -8 -3 -11q-30 -30 -39 -64q-5 -20 -20 -47.5t-15 -28.5l-22 -55q-13 -28 -26 -73q-10 -35 -10 -51q0 -6 1 -8q1 -3 15.5 -30t22.5 -45q5 -12 15 -33.5t13 -31.5q17 -50 22 -57q1 -1 10 -16t19 -24q25 -23 41 -62q3 -6 3 -14q0 -25 -22 -38
q-17 -10 -55 -10q-30 0 -41 7q-2 1 -8.5 5.5t-9.5 6.5t-7.5 6t-7 8.5t-3.5 9.5t-3.5 29t-8.5 33q-21 34 -24 46q-2 7 -2 13.5t-1 11t-4 10.5q-3 5 -4 9t-2.5 7.5t-5.5 9.5q-7 11 -15 28q-4 7 -12 15.5t-10 8.5t-9 -10t-14.5 -25t-9.5 -26q-4 -28 -27 -60q-10 -14 -23 -39
q-5 -9 -6.5 -17.5t-2 -19t-2.5 -18.5q-5 -22 -17 -32t-25 -10q-3 0 -19.5 -2t-21.5 -2q-43 0 -46 15q-1 3 -6 16.5t-5 20.5q0 12 1 16q2 7 13.5 24t13.5 23q2 4 10.5 20t11.5 26t16 26.5t17 25.5q3 7 34 50q16 23 25 48l18 52q8 20 8 28q0 4 -6.5 18t-7.5 16q-3 11 -13 29
t-13 26t-7.5 18t-9.5 20l-7 14q-2 5 -4.5 14.5t-4.5 16.5t-5 9q-10 7 -14 19q-2 6 -8 15t-8 15q-2 4 -4 12.5t-4.5 14.5t-6.5 10q-11 12 -11 44z" />
    <glyph glyph-name="Y" unicode="Y" horiz-adv-x="516" 
d="M21 706q0 17 16.5 30t28.5 14q27 3 30 3q2 0 5 -1t5 -1q15 0 38.5 -13.5t23.5 -26.5q0 -8 -4.5 -21t-5.5 -16q0 -4 4 -13.5t4 -14.5v-39q0 -9 3 -24t3 -29q0 -11 8 -55q7 -39 14 -52l3.5 -7t4 -7.5t4 -6.5t6.5 -6l9 -4.5t13 -3.5t18 -1q57 0 78 55q3 6 6.5 13.5t5 11.5
t4 11.5t3.5 17.5q6 44 6 60q0 9 3 24.5t3 22.5q0 4 -2 12q0 10 -6.5 29t-6.5 29q0 1 0.5 4t0.5 5q1 8 3 13t3 7t5 6l6 6q6 7 34.5 13t40.5 6q15 -1 34.5 -9.5t20.5 -19.5q0 -12 0.5 -22t0.5 -11q-6 -23 -7.5 -44t-3.5 -33q-3 -16 -3 -23q0 -27 -2 -38q-2 -10 -3 -20.5
t-2 -15.5t-3.5 -12.5t-7.5 -17.5q-8 -15 -27 -63l-2 -11q-3 -11 -11 -24q-23 -36 -31 -40q-22 -12 -38 -22t-23 -14.5t-10 -5.5q-7 -3 -7 -35q0 -20 -3 -43t-3 -48q0 -18 3 -37q6 -39 9 -50q8 -26 10 -43q0 -16 -9.5 -33t-20.5 -25t-31 -8q-61 0 -67 10q0 4 -9 19t-9 24
t5.5 24t5.5 23q0 2 -0.5 5.5t-0.5 6.5q-2 24 -2 30q0 1 2 39q0 9 2 29.5t2 29.5q0 11 -1 16l-7 44q-3 12 -11.5 20t-16 11t-22.5 8q-38 12 -57 37q-8 11 -13.5 26t-9.5 21q-16 26 -16 52q0 12 -6 33.5t-6 28.5q1 7 2.5 18.5t2.5 20.5t1 15q0 8 -1.5 23t-1.5 23q0 9 -6 36
t-8 44z" />
    <glyph glyph-name="Z" unicode="Z" horiz-adv-x="457" 
d="M42 661q0 1 -0.5 3.5t-0.5 3.5q0 15 6.5 41.5t13.5 31.5q3 2 6.5 5t5.5 4.5t6.5 3t12.5 2.5t23 1q24 0 36 3q3 1 13 1q13 0 45 -3t40 -3q2 0 5 1h2q6 2 19 3t27 2t16 1q5 1 38 2t41 1q14 0 32 -10t18 -21v-13.5t-0.5 -18t-3 -17t-7.5 -15.5q-6 -8 -9 -14t-7.5 -19
t-9.5 -24q-7 -19 -18.5 -40t-17.5 -34q-8 -17 -15.5 -36.5t-13.5 -30.5q-6 -12 -10 -24.5t-10 -24.5q-4 -7 -11.5 -29t-16.5 -30q-10 -9 -15.5 -17.5t-7.5 -14.5t-4.5 -17t-5.5 -18q-4 -13 -12 -26t-11 -28q-3 -12 -7.5 -20.5t-10 -15t-6.5 -8.5q-18 -34 -25 -85
q0 -11 46 -11q7 0 17 0.5t12 0.5q48 0 61 10q6 3 25 7.5t26 4.5q20 0 29.5 -32t9.5 -57q0 -8 -3 -14q-4 -10 -17.5 -21.5t-27.5 -11.5q-15 0 -35 1t-27 1q-27 0 -49 -2q-13 0 -36 1t-26 1q-8 0 -50 3q-18 2 -36 2q-15 0 -22 -2q-36 -11 -40 -11q-7 0 -13 3q-2 1 -5.5 2.5
t-5 2t-4 2t-3.5 2t-3 2t-2.5 3t-1 3.5t-1 5t-0.5 6q0 46 20 60q10 8 15 40t7 39q4 11 10.5 24t14 25t9.5 16t9.5 16.5t13.5 24t8 20.5q11 51 39 90q26 36 41 77q5 13 25.5 51.5t23.5 48.5q2 6 17 33t18 34q5 14 5 24q0 6 -1 9q0 2 -33 6l-32 4q-4 0 -25.5 -4.5t-26.5 -6.5
q-31 -13 -52 -16q-10 -2 -12 -2h-4q-4 0 -9.5 -0.5t-8.5 -0.5q-15 0 -26.5 9.5t-13.5 24.5z" />
    <glyph glyph-name="bracketleft" unicode="[" horiz-adv-x="227" 
d="M150 681q-5 -1 -8.5 -5t-4.5 -12.5t-1.5 -15t0 -20t0.5 -18.5q0 -58 2 -78v-7q0 -6 -2.5 -20.5t-2.5 -25.5v-9q0 -2 1 -7.5t1 -8.5q0 -12 -2 -31.5t-2 -25.5q0 -7 -1.5 -26t-1.5 -32q0 -5 1 -15.5t1 -17.5q0 -9 -1 -32t-1 -33q0 -5 1 -14.5t1 -15.5q0 -14 -5 -44
q-3 -25 3 -54q3 -19 3 -74q0 -3 -0.5 -16.5t-0.5 -19.5q0 -8 1 -9q4 -2 7.5 -2t17 1.5t22.5 1.5q23 0 33 -13q3 -7 3 -13q0 -9 -5 -49q-6 -12 -45 -12q-4 0 -27.5 -0.5t-38.5 -0.5q-40 0 -57 6q-16 2 -16 34q0 4 3 14t3 16q0 9 -2 21t-2 26q0 10 -1 17t-1 8q0 26 2 33
q5 6 4 36.5t0 38.5q0 5 0.5 12.5t0.5 10.5q0 18 -2 52t-2 45v50q0 8 3 31.5t3 41.5v45q0 25 2 33q1 4 1 13q0 8 -2.5 25t-2.5 24t2 31t2 43q0 17 0.5 50t0.5 45t1 17q3 14 16 23t27 9h10q7 0 16 4.5t20 4.5q38 2 55 2q18 0 28 -9q3 -4 3 -15q0 -5 -1.5 -25t-1.5 -24
q-2 -7 -10 -10t-20 -3.5t-16 -1.5h-14z" />
    <glyph glyph-name="backslash" unicode="\" horiz-adv-x="447" 
d="M130 664q6 -12 10.5 -32t5.5 -22t9 -13.5t9 -14.5q17 -38 21 -52q3 -10 14 -30.5t14 -26.5l28 -67q31 -68 36 -73q4 -5 7 -13.5t5.5 -19.5t4.5 -17t12 -13t14 -17q10 -27 19 -38q3 -5 10 -19t12 -20q15 -26 23 -55q4 -20 28 -54q6 -6 15 -29.5t9 -28.5q0 -6 -14 -15
t-30 -9q-64 6 -68 33q-2 12 -19 47t-18 45q-4 16 -13 42t-13 28q-12 12 -14 36q-2 22 -12 27q-5 3 -11.5 14t-14.5 26t-13 23t-9.5 30t-15.5 33t-28.5 51.5t-24.5 48.5q-9 9 -17.5 33.5t-13.5 31.5q-11 14 -28 62q-3 8 -7 21.5t-8 21.5t-11 16q-8 9 -11 22.5t-7 23.5
q-1 2 -2 5l-1.5 4.5t-1 3.5t-0.5 4q0 6 13 22q9 11 59 11q2 0 6 -1h3q11 -3 25 -43q3 -16 14 -43z" />
    <glyph glyph-name="bracketright" unicode="]" horiz-adv-x="222" 
d="M79 -5q5 1 8.5 5t4.5 12.5t1.5 15t0 20t-0.5 18.5q0 58 -2 78v7q0 6 2.5 20.5t2.5 25.5v9q0 2 -1 7.5t-1 8.5q0 12 2 31.5t2 25.5q0 7 1.5 26t1.5 32q0 5 -1 15.5t-1 17.5q0 9 1 32t1 33q0 5 -1 14.5t-1 15.5q0 14 5 44q3 25 -3 54q-3 19 -3 74q0 3 0.5 16.5t0.5 19.5
q0 8 -1 9q-4 2 -7.5 2t-17 -1.5t-22.5 -1.5q-23 0 -33 13q-3 8 -3 13q0 9 5 49q6 12 45 12q4 0 27.5 0.5t38.5 0.5q40 0 57 -6q16 -2 16 -34q0 -4 -3 -14t-3 -16q0 -9 2 -21t2 -26q0 -10 1 -17t1 -8q0 -26 -2 -33q-5 -6 -4 -36.5t0 -38.5q0 -5 -0.5 -12.5t-0.5 -10.5
q0 -18 2 -52t2 -45v-50q0 -8 -3 -31.5t-3 -41.5v-45q0 -25 -2 -33q-1 -4 -1 -13q0 -8 2.5 -25t2.5 -24t-2 -31t-2 -43q0 -17 -0.5 -50t-0.5 -45t-1 -17q-3 -14 -16 -23t-27 -9h-10q-7 0 -16 -4.5t-20 -4.5q-38 -2 -55 -2q-18 0 -28 9q-3 4 -3 15q0 5 1.5 25t1.5 24
q2 7 10 10t20 3.5t16 1.5h14z" />
    <glyph glyph-name="asciicircum" unicode="^" horiz-adv-x="504" 
d="M259 533q-8 -4 -13.5 -11t-12.5 -20t-13 -21q-9 -13 -19 -41q-3 -8 -11 -14.5t-10 -11.5q-12 -20 -26 -31q-2 -2 -16.5 -28t-19.5 -28q-7 -3 -17 -16t-16 -13q-31 0 -48.5 18t-17.5 35q0 2 -2 11t-0.5 15.5t9.5 13.5q5 6 28 45q4 7 14.5 18t13.5 15q17 29 28 38
q2 2 12.5 26.5t14.5 29.5q3 3 11.5 16.5t17.5 18.5q7 7 25 46q4 9 22.5 16.5t34.5 7.5q15 0 37 -11t26 -23q9 -28 35 -48q6 -5 18 -27.5t17 -27.5q5 -6 13 -22.5t14 -27.5q5 -8 9 -13t5.5 -6.5t3 -4t3.5 -7.5q17 -28 28 -30q3 -1 11 -17.5t11 -19.5q11 -13 11 -32
q0 -6 -7 -18t-12 -17q-5 -4 -20 -9t-20 -5q-12 0 -27 6q-4 1 -11 8.5t-14.5 17t-10.5 12.5q-5 4 -10.5 22.5t-7.5 21.5q-3 6 -15 20.5t-14 22.5q-2 17 -21 33q-6 6 -14.5 19.5t-17 29.5t-9.5 18z" />
    <glyph glyph-name="underscore" unicode="_" horiz-adv-x="717" 
d="M81 -18q13 0 38.5 2.5t30.5 2.5q5 -1 11 -1h8q21 -3 46 -3h12q12 0 31.5 0.5t32 0.5t16.5 1q3 1 10 1q9 0 13 -2q2 -1 5 -1q2 0 9.5 1t10.5 1h17q39 0 51 -3q10 -2 25 -2q8 0 24 0.5t22 0.5q14 0 19 -1h10q13 0 73 6q4 1 23 1q47 0 58 -7q7 -6 12.5 -26t5.5 -29v-4
q-1 -8 -14 -13t-27 -5h-64q-27 0 -39 -2h-4q-7 0 -28 2.5t-30 2.5q-11 0 -44 -1.5t-42 -1.5q-11 0 -32.5 -2.5t-24.5 -2.5q-2 0 -13.5 1.5t-17.5 1.5q-8 0 -10 -1q-4 -5 -21 -5q-7 0 -21 1.5t-18 1.5h-88q-18 0 -30 3q-1 1 -6 1q-11 0 -34 -7q-2 -1 -7 -1q-3 0 -23 4
q-24 4 -32 13q-6 7 -6 49q0 13 9 20q9 6 20 6q6 0 17.5 -2t15.5 -2z" />
    <glyph glyph-name="grave" unicode="`" horiz-adv-x="198" 
d="M12 814q-3 8 -3 13q0 8 9.5 27t14.5 22q12 10 26 10q19 0 31 -21q52 -53 55 -57q1 -1 20 -18.5t20 -27.5q4 -13 -2.5 -27t-19.5 -14q-6 0 -13.5 3.5t-9.5 3.5q-6 2 -17.5 9t-17.5 10q-8 4 -15.5 14t-14.5 12q-2 1 -19.5 9t-29 16t-14.5 16z" />
    <glyph glyph-name="a" unicode="a" horiz-adv-x="468" 
d="M92 -1q-2 0 -4 -0.5t-3 -0.5q-5 0 -8 3t-7 3q-6 0 -9 0.5t-5.5 3.5t-2.5 10q0 6 -1.5 14.5t-1.5 16.5q0 7 -0.5 18t-0.5 19q0 30 3 36q2 4 2 7q0 2 -7 21q-16 39 -16 45q0 2 -0.5 7t-0.5 8q0 9 4 13q3 2 12 3.5t11 4.5q1 1 1 6q0 2 -1.5 14t-1.5 24q0 40 5 45q3 3 3 15
v110q0 10 3 22v5q1 2 1 9q0 5 -1 15.5t-1 15.5q0 12 4 19q5 7 8 19.5t7 18.5q21 31 22 38q0 7 5 14t8.5 10t13.5 9.5t11 7.5q7 5 24 12t20 10q5 5 30 10.5t39 5.5q42 0 68 -16q13 -8 44 -36q29 -29 38 -60q14 -47 14 -71q0 -4 1.5 -26t1.5 -32q0 -8 -1 -10q-4 -11 -4 -41
q0 -23 2 -33q2 -13 2 -78q0 -15 2 -31t2 -21q0 -3 0.5 -12.5t0.5 -14.5q0 -15 -1 -22q-8 -43 -8 -49q4 -30 4 -49q0 -9 0.5 -26t0.5 -22q0 -11 -4.5 -25.5t-11.5 -15.5q-14 -2 -33 -2q-45 0 -59 2q-19 3 -22 21v24q0 12 -1 19q0 4 -2.5 11t-2.5 11q0 6 5 11l5 2q4 3 4.5 6
t0.5 11q0 5 1.5 11t1.5 7q0 4 -13 4q-8 0 -9 1t-10 1q-4 0 -20.5 3t-28.5 3q-32 0 -46 -14q-13 -13 -13 -34q0 -5 -1.5 -15t-1.5 -20q0 -8 2.5 -16t2.5 -12q0 -6 -1 -9q-2 -12 -59 -18l-5 -2q-1 0 -3 -1h-4zM179 248q3 -10 9 -10q1 0 5 0.5t9 0.5q7 0 11.5 2.5t11.5 2.5
q3 0 7 0.5t8 0.5q6 0 20.5 -4t16.5 -4q6 0 6 1l-1 2l-1 2q0 1 3 1q8 0 25 13q2 2 2 5q0 5 -1.5 12.5t-1.5 14.5q0 6 3 17q3 9 12 9q3 0 4 6q0 4 -9 4q-7 0 -9 4q-6 11 -6 31q0 9 2 17t2 13q0 3 -1 15.5t-1 24.5q0 9 -2.5 29t-2.5 23q0 7 -3 22.5t-3 27.5q0 25 -5 32.5
t-23 16.5q-3 1 -14 1q-14 0 -37 -11q-6 -2 -19 -16q-6 -8 -6 -14q0 -2 0.5 -5t0.5 -4l-2 -8q-3 -7 -3 -19t-4 -21t-4 -17l4 -30q0 -2 0.5 -4t0.5 -4q0 -4 -1 -13.5t-1 -14.5v-19q0 -11 -2.5 -23.5t-2.5 -21.5q0 -10 -2 -24t-2 -29q0 -11 1 -16.5t3 -10t3 -8.5z" />
    <glyph glyph-name="b" unicode="b" horiz-adv-x="454" 
d="M47 2q-2 22 -2 30q0 4 1.5 13.5t1.5 15.5t-2.5 15t-2.5 14q0 2 2 10q9 25 9 30q0 6 -4.5 16.5t-4.5 17.5q0 4 1.5 11t1.5 12q0 7 -2.5 22t-2.5 24q0 5 0.5 17t0.5 21q0 5 -0.5 21t-0.5 31q1 13 2 47.5t2 50.5q5 80 5 87q0 46 -5 81q-3 21 -9 31q-8 16 -8 29q0 4 2 12
q6 21 27 21q5 0 15 1t14 1q6 0 16 -3q23 -6 52 -6q5 0 31 1.5t38 1.5q14 0 17 -1q6 -2 28 -4.5t31 -5.5q37 -14 52 -23q6 -4 10 -9t8.5 -15t6.5 -13q16 -30 16 -47q0 -50 -26 -87q-2 -3 -9.5 -15.5t-15 -23.5t-13.5 -15q-20 -13 -20 -27q0 -2 12 -7.5t26.5 -14.5t19.5 -18
q6 -9 21 -17.5t23 -24.5q17 -40 18 -47q9 -54 9 -68q0 -9 -4.5 -25.5t-12 -38t-10.5 -30.5q-9 -26 -44 -55q-23 -22 -50 -32q-49 -14 -59 -14q-5 0 -25 -2.5t-31 -2.5q-7 0 -26 0.5t-27 0.5q-16 0 -22 -1q-42 -4 -68 -4q-12 0 -13 11zM253 484q24 32 24 51q0 54 -40 54
q-7 0 -11 -1q-9 -3 -39 -3h-5q-14 0 -17 -4t-4 -16q0 -4 2 -28v-6q0 -7 0.5 -27t1.5 -29q0 -5 -0.5 -15t-0.5 -16q0 -28 9 -34q2 -1 5 -1q8 0 31 17q10 7 16.5 15t14 21t13.5 22zM161 245q-1 -7 -1 -17q0 -4 0.5 -17t0.5 -27q0 -6 -0.5 -16.5t-0.5 -18.5t1 -15t1 -11
q0 -9 -1 -17q0 -16 22 -16q9 -3 18 -3q16 0 50 14q42 18 54 49q11 28 11 67q0 60 -26 75q-9 5 -16.5 17.5t-9.5 13.5q-14 11 -29 11q-16 0 -35 -16l-21 -19q-5 -5 -8.5 -9.5t-5 -11t-2.5 -10t-1.5 -12t-0.5 -11.5z" />
    <glyph glyph-name="c" unicode="c" horiz-adv-x="418" 
d="M333 514q-40 0 -50 40q-6 23 -10.5 28.5t-18.5 5.5q-10 0 -18 -4q-19 -16 -28 -46q-3 -10 -10 -28t-11 -32.5t-5 -29.5q-1 -9 -4 -42t-3 -43q0 -9 -6 -21.5t-6 -18.5q0 -11 6.5 -17.5t7.5 -11.5q1 -1 5 -81q1 -9 6.5 -27t5.5 -24t2 -10l6 -12t8 -19q7 -21 36 -21
q28 0 50 51q6 14 11 19t17 5q13 0 40 -11.5t31 -24.5q2 -4 2 -7q0 -4 -3 -15.5t-4 -18.5q-1 -8 -2.5 -11.5t-7 -8.5t-7.5 -7t-19 -29q-6 -11 -26 -31q-7 -7 -32.5 -15t-49.5 -8q-58 0 -128 54q-8 6 -21 26t-14 21q-13 18 -24 48q-9 32 -12 72q0 6 0.5 14.5t0.5 12.5
q0 5 -3 16t-3 19q0 5 2.5 14t2.5 14l-3 5q-3 6 -3 16v4q0 7 0.5 30t1.5 34q4 40 9 49q3 6 4 13t1 16t1 15q4 32 22 67q10 21 30 57q2 4 7.5 7t10 4.5t10.5 3t7 1.5q2 1 2.5 4.5t1 9t2.5 9.5t7.5 8.5t16 11t15.5 9.5q7 5 29 10t37 5q11 0 27.5 -4t24.5 -5q35 -2 53 -25
q23 -28 25 -37q1 -7 1 -13q0 -7 3 -15q3 -7 3 -15q0 -13 -6 -25q-25 -35 -54 -35z" />
    <glyph glyph-name="d" unicode="d" horiz-adv-x="445" 
d="M38 621q-3 19 -3 25t5 15q8 16 21 19q10 2 43 2q6 0 14.5 -0.5t11.5 -0.5q1 0 18 -0.5t30 -2t18 -5.5q17 -12 40 -17q7 -2 24.5 -10t23.5 -13q3 -3 22.5 -14.5t23.5 -17.5q3 -4 13 -24t16 -27q18 -22 22 -35q1 -4 15 -35t14 -47q0 -12 2 -46.5t2 -46.5q-5 -73 -8 -87
q-2 -6 -4 -20t-4 -23.5t-6 -12.5q-13 -11 -27 -51q-2 -8 -12.5 -23t-13.5 -21q-10 -27 -27 -38q-3 -2 -14.5 -13t-22.5 -19t-19 -9q-17 -1 -38 -17q-10 -8 -41 -13q-18 -4 -72 -4q-23 0 -43.5 6t-20.5 18v45q0 18 1 21q6 9 6 44v32q0 31 2 41q7 26 7 66q-5 32 -5 59
q0 45 -2 66q0 7 -0.5 30.5t-1.5 36.5q0 3 0.5 8.5t0.5 9.5q0 5 -1.5 15t-1.5 16q0 3 0.5 10t0.5 11q0 7 -1 11q-1 3 -8 86zM164 567v-37q0 -12 1.5 -38.5t1.5 -40.5v-18q0 -11 0.5 -25.5t0.5 -20.5q1 -3 1 -9q0 -3 -0.5 -10t-0.5 -11t2 -16t2 -21q0 -29 1 -38q3 -19 3 -51
v-26q0 -7 -1 -24t-1 -26v-23q0 -20 4 -28q3 -4 8 -4q10 0 25 9q3 2 6.5 5t6.5 6.5t5.5 6t5.5 7.5l4.5 7.5t5 8.5t5 9t5.5 10.5t6 10.5l3 5q15 31 19 62q5 40 9 48q6 16 6 44v31q0 19 -15 79q0 1 -1 4q-2 2 -2 5q-6 25 -35 68q-18 27 -26 28q-10 2 -22 15t-20 13
q-11 0 -13 -15z" />
    <glyph glyph-name="e" unicode="e" horiz-adv-x="405" 
d="M164 358q0 -7 0.5 -17t0.5 -18t20 -8h10q13 0 30.5 2.5t28.5 2.5q31 0 31 -11q-1 -14 -11 -43.5t-16 -38.5q-5 -8 -19 -8q-7 0 -11 -1q-1 -3 -3 -3q-1 0 -4 0.5t-9 1t-11 0.5q-21 0 -26 -4q-5 -3 -5 -12q0 -7 2 -21q1 -4 1 -12t2 -15.5t7 -13.5q6 -5 7.5 -8t2 -7t3.5 -9
q9 -19 40 -19q10 0 16 1q24 11 34 21q4 4 17.5 26.5t22.5 24.5q12 6 13 6q16 0 34 -24q13 -16 13 -30q0 -9 -2 -19q-1 -6 -10 -16t-10 -13q-3 -5 -32 -32q-5 -4 -17 -11t-17 -13q-22 -24 -68 -24q-41 0 -78 16l-3 2q-32 16 -42 26q-36 32 -45 60q-18 72 -18 113
q-1 2 -7 13.5t-6 19.5q0 45 14 58q0 5 3 13t3 13q0 9 -4 30t-4 39q0 12 3 28.5t3 21.5q5 44 18 84q2 6 3.5 13t3 10.5t6.5 8.5q4 3 6.5 8t4 8.5t3.5 11t3 11.5q2 7 7.5 13.5t16.5 15t15 12.5q7 6 19 12t15 11q10 17 80 17q45 0 83 -31q25 -19 35 -35q7 -13 7 -25
q0 -5 3.5 -19t3.5 -20q0 -4 -2.5 -12t-2.5 -14q0 -7 -19 -17t-29 -10q-6 -3 -23 -3q-4 0 -10 5.5t-7 12.5q-2 16 -3.5 23.5t-5 20t-9.5 18t-14 5.5q-23 -2 -34 -9q-36 -20 -42 -60q-2 -28 -7 -49q-3 -18 -3 -30q0 -6 -3 -20t-3 -24q0 -1 -1 -5t-1 -8q0 -2 2 -18z" />
    <glyph glyph-name="f" unicode="f" horiz-adv-x="363" 
d="M52 607q-13 51 -13 53q0 10 12 15q25 9 44 9q1 0 3 -0.5t3 -0.5q24 -4 77 -4q5 0 11.5 -0.5t9.5 -0.5q4 0 20 2q4 1 17 1h15q20 0 26 3q9 4 28 4t26 -5t14 -17t7 -19q0 -32 -12.5 -57.5t-26.5 -28.5q-3 0 -7 -0.5t-6 -0.5q-8 0 -25 5q-1 0 -2 0.5t-2 0.5q-20 6 -35 6
q-2 0 -5.5 -0.5t-5.5 -0.5q-6 -2 -23 -2q-21 0 -22 -19q0 -2 -2 -43q0 -9 2 -18.5t2 -16.5q0 -9 -1 -13q-5 -11 -5 -31q0 -5 0.5 -12t0.5 -9q0 -5 2.5 -15t2.5 -19q-3 -33 -3 -54q0 -2 2 -6q0 -13 18 -13q2 0 22 4t29 4q16 0 21 -9q14 -22 14 -63q0 -15 -3 -24
q-7 -19 -27 -19q-16 1 -35 1q-21 0 -27 -10q-1 -2 -3 -3.5t-3 -2.5l-2.5 -2.5t-2 -4t-1 -6t-1 -8.5t-0.5 -12q0 -16 1.5 -35t1.5 -25q0 -2 -0.5 -4t-0.5 -3l-6 -46q-2 -12 -22 -24.5t-43 -12.5q-3 0 -8 -1.5t-7 -1.5q-12 0 -26.5 4.5t-16.5 9.5q-6 18 -6 32q0 1 2.5 37.5
t2.5 47.5t1.5 18t3.5 12t3 8q2 16 2 33q-31 19 -31 59q2 11 9.5 20t14.5 11q6 1 6 13q0 10 -2 18t-2 16q0 18 2 26q3 13 3 32q0 8 -4.5 21t-4.5 19q0 1 2 21q0 6 2 15.5t2 15.5q0 1 -0.5 5t-0.5 6q0 1 -2 53q0 12 -2 33t-2 29z" />
    <glyph glyph-name="g" unicode="g" horiz-adv-x="419" 
d="M271 490q0 31 1 38q0 1 0.5 3t0.5 3q0 25 -40 25q-16 0 -27.5 -18t-12.5 -43q-1 -15 -5.5 -28.5t-4.5 -18.5q0 -4 -3.5 -17.5t-3.5 -22.5q0 -5 -0.5 -15.5t-0.5 -17.5t-0.5 -21.5t-0.5 -22.5t2.5 -25t2.5 -28q0 -4 -1.5 -20t-1.5 -36q0 -15 3 -26q1 -7 6 -23.5t7 -28.5
q8 -39 51 -39q48 0 48 48v12q0 15 -8 15q-24 0 -34 5q-9 5 -9 33q0 41 3 45q5 10 37 12q4 0 12 -2t11 -2q5 0 9 3q25 15 50 15q3 0 7 0.5t6 0.5q5 0 13 -4q10 -7 10 -27q0 -11 -6 -50q-1 -7 -1 -18v-14q0 -11 -2 -16q-1 -5 -2.5 -19t-4.5 -28q-2 -11 -5 -19.5t-5.5 -15
t-3.5 -9.5q-6 -17 -34 -48q-1 -1 -13 -4t-15 -11q-9 -20 -78 -20q-38 0 -67 14.5t-43 31.5q-4 5 -12.5 13.5t-13.5 14.5t-9 15q-2 4 -7.5 13t-8.5 15t-6 16t-4 21q-1 13 -7 39.5t-6 43.5q0 3 0.5 8t0.5 7q0 8 -1 24.5t-1 25.5q0 5 -1 17.5t-1 20.5q0 13 1 19q8 58 8 60
q0 5 -0.5 17.5t-0.5 18.5q0 31 10 53q2 5 13 50q2 11 5 18t8.5 17t9.5 18q13 27 45 50q28 20 44 25q4 1 15.5 5t22.5 6.5t24 2.5t23 -2.5t20.5 -7t16.5 -6.5q21 -4 44 -34q8 -11 21 -40q5 -9 5 -15t1.5 -19.5t1.5 -21.5q0 -13 -6 -35q-6 -24 -25 -33q-3 -2 -24.5 -7.5
t-25.5 -5.5q-10 0 -18.5 9.5t-8.5 17.5z" />
    <glyph glyph-name="h" unicode="h" horiz-adv-x="461" 
d="M137 679q23 5 24 5q9 0 12 -8q6 -16 6 -43q0 -10 -1 -14q0 -2 -0.5 -8.5t-0.5 -9.5q0 -4 0.5 -11.5t0.5 -11.5q0 -8 -2 -16q-2 -9 -2.5 -22.5t-1.5 -22.5q0 -2 -0.5 -5t-0.5 -4q0 -8 2.5 -18t2.5 -14t-1 -6q-1 -5 -1 -13q0 -6 1 -17.5t1 -18.5q0 -6 1 -14t1 -13
q0 -3 -2 -21q-6 -39 -7 -45v-14q0 -24 3 -32q0 -12 18 -12q28 0 52 3h9q28 0 32 8l1 8q2 8 4 19t2 17q0 11 2.5 15t2.5 17q0 12 -1 16q-1 5 -1 11q0 7 1 12.5t3 15t4 19.5q3 20 3 27q0 5 -1.5 15t-1.5 17q-3 36 -3 45q0 7 1.5 20t1.5 20q0 10 -3 22q-5 27 -5 33q0 7 1 12
q1 3 2 9.5t1.5 10t2.5 7.5t6 6q5 3 39 6t48 3q2 0 7.5 -0.5t6.5 -0.5q6 -2 12 -18t6 -34q0 -7 -0.5 -12.5t-0.5 -7.5q0 -11 1.5 -32.5t1.5 -29.5q0 -9 -1 -13q0 -5 -3 -16t-3 -17q0 -9 1 -13q5 -22 5 -28q0 -11 -2 -19q-2 -12 -2.5 -32t-3.5 -36q-6 -35 -6 -62q0 -37 5 -48
q2 -5 6 -11.5t9 -13t7 -9.5q2 -4 2 -7q0 -22 -16 -38l-3.5 -3.5t-2.5 -3t-1.5 -3t-1 -2.5t-0.5 -3t-0.5 -3.5t-0.5 -4.5v-6q0 -8 0.5 -25t0.5 -21q0 -11 -1 -19q-1 -9 -1 -24q0 -7 0.5 -19t0.5 -18q0 -34 -8 -40q-5 -3 -15 -3q-22 0 -58 6t-39 15q-2 6 -7 16.5t-5 16.5
q0 1 0.5 3t0.5 3v1q1 1 1 2q7 33 7 48q0 16 2 42v4q0 21 -36 21q-14 0 -18.5 -2t-10.5 -2q-7 0 -10 1q-1 0 -2.5 0.5t-2.5 0.5h-4q-18 0 -29 -9q-3 -2 -7.5 -2.5t-6.5 -3.5t-2 -12q0 -5 -0.5 -21t-0.5 -18q0 -10 4 -26q1 -6 4 -16t3 -14q0 -3 -2 -11q-8 -35 -23 -39
q-24 -4 -72 -4q-22 0 -26 11q-1 4 -3.5 11t-4 13t-1.5 13q0 4 2 14q6 27 6 55q0 6 -0.5 20t-0.5 16q0 5 1 15t1 14q0 2 -6 7t-6 7q-9 20 -9 36q0 9 9 28.5t10 22.5q0 7 0.5 16t0.5 17v13q-1 12 -1.5 28.5t-0.5 22.5q0 8 2.5 24.5t2.5 25.5t-1 13q-2 7 -2 22q0 7 1 18.5
t1 16.5q0 4 1.5 22t1.5 29q0 14 -1 20q-4 25 -4 69q0 33 80 50q1 0 3 0.5t3 0.5z" />
    <glyph glyph-name="i" unicode="i" horiz-adv-x="225" 
d="M48 633q0 42 15 47q2 1 24.5 4t32.5 3q45 0 48 -12q2 -8 9.5 -18.5t7.5 -15.5q0 -3 -1 -5q-2 -6 -3.5 -26t-4.5 -38q-1 -7 -1 -18q0 -9 2 -23.5t2 -23.5q-1 -16 -2 -46.5t-3 -39.5q-2 -7 -2 -30q0 -9 0.5 -27.5t0.5 -25.5t-1 -18.5t-1 -18.5q0 -11 3 -33q1 -12 4 -28.5
t3 -24.5q0 -13 -2 -22q-4 -23 -4 -45q0 -19 2 -26q7 -21 7 -67q0 -18 -20 -40.5t-40 -22.5q-33 0 -61 28q-23 19 -23 49t4 67q1 6 5 29t4 41q0 9 2 34t2 45q0 61 -2 86q-1 7 -1 21v26q0 18 -1 29q0 3 -0.5 7t-0.5 7q0 9 1.5 22t1.5 17t-2 14q-2 6 -2 12q0 5 1.5 13t1.5 12
q0 3 -2 11q-3 9 -3 15q0 2 0.5 7t0.5 8q-2 38 -2 41z" />
    <glyph glyph-name="j" unicode="j" horiz-adv-x="343" 
d="M166 626q0 24 19 41q6 6 33.5 11.5t38.5 5.5q10 0 30 -14.5t20 -27.5q0 -47 -7 -69q-4 -11 -4 -25v-23q-2 -14 -2 -65q0 -33 2 -47q5 -17 5 -34q0 -6 -1 -9q-7 -19 -7 -29q0 -7 1 -12q2 -18 2 -41q0 -25 -2 -55q-1 -7 -2 -24.5t-2.5 -28t-6.5 -22.5q-4 -9 -4.5 -29.5
t-11.5 -43.5q-15 -28 -44 -52q-35 -27 -52 -33q-19 -6 -44 -6h-13q-37 0 -63 17q-17 12 -33 45q-6 14 -6 20v14q0 15 3 21q7 18 27.5 35.5t34.5 17.5t20 -9.5t8 -31.5q1 -21 27 -24q4 0 6 0.5t4.5 3.5t3.5 5l4 8l5 10q5 9 7 9q4 10 5 15q4 12 4 22v7q0 10 2 21q2 20 2 24
q0 5 -0.5 13t-0.5 12q0 11 2 17v4q7 35 7 57q0 15 -3 25q-4 12 -4 29q0 7 1 19.5t1 16.5q0 10 0.5 22t0.5 17q0 12 -1 17q0 2 -0.5 4.5t-0.5 3.5q0 7 2 20.5t2 19.5q0 7 -1 11q-4 18 -4 46q0 8 -5 20.5t-5 27.5z" />
    <glyph glyph-name="k" unicode="k" horiz-adv-x="441" 
d="M29 565l3 52q0 2 1 9.5t3 13.5t6 10t13 8.5t17.5 8t10.5 4.5q4 2 23.5 5t26.5 3q5 0 8 -1q14 -3 14 -29q0 -9 -1 -14q-1 -4 -1 -13q0 -5 0.5 -17.5t0.5 -19.5q0 -12 -1 -18q-1 -9 -1 -31q0 -37 -1 -41q-1 -3 -3 -41q0 -6 2 -13t2 -13t-1 -10q-2 -14 -2.5 -25.5
t-1.5 -19.5q0 -3 -0.5 -7t-0.5 -6q0 -6 1 -17t1 -16q0 -2 -0.5 -5.5t-0.5 -4.5q0 -2 -0.5 -6t-0.5 -7q0 -12 5 -12q9 0 33 22q7 6 12 12.5t8.5 11t7 13.5t4.5 11.5t4.5 13.5t4.5 13q5 14 12.5 25.5t12.5 26.5q5 18 12 64l8 53q1 5 1 15q0 5 -0.5 13t-0.5 11q0 9 3 17
q3 7 4 17t3 15q13 36 90 36q24 0 24 -44q0 -5 -1 -8q-2 -10 -3.5 -28t-3 -31.5t-4.5 -19.5q-13 -26 -16 -48q-7 -41 -15 -56q-2 -4 -4.5 -14t-7.5 -24q-3 -7 -8.5 -39.5t-14.5 -40.5q-7 -7 -11 -13t-7 -12.5t-4 -8.5q-2 -2 -7.5 -6.5t-8.5 -8.5t-3 -9q2 -7 12 -19.5
t12 -19.5q6 -17 28 -57q4 -7 8 -19t12 -21q5 -6 13 -14.5t13 -14.5t6 -10q3 -9 18 -31q21 -21 32 -51q1 -1 1 -4q0 -14 -27 -16q-18 -2 -41 -2h-4q-59 0 -63 6q-4 7 -10.5 15t-10.5 15q-3 5 -7.5 19.5t-11.5 17.5q-14 8 -21 28q-1 5 -1.5 8.5t-0.5 5t-2 4.5t-6 8
q-8 11 -24 47q-6 13 -15 13q-11 0 -22 -11t-11 -19v-5q6 -28 6 -61q0 -36 -13 -58q-3 -7 -24 -16.5t-40 -9.5q-8 0 -12 1q-4 0 -8.5 -2t-6.5 -2q-8 0 -14 10q-4 7 -4 16q0 4 1.5 15t1.5 19t-1 12q-1 8 -4 22t-3 22t1 12q3 22 3 38q0 11 -1 17q0 11 0.5 24.5t0.5 17.5
q0 8 -0.5 17t-0.5 12q0 4 0.5 14t0.5 19q0 3 -0.5 9t-0.5 10v26q0 9 -2 20.5t-2 15.5q0 6 1 9q3 9 3 25q0 17 -2 29q-2 18 -2 22t0.5 13.5t0.5 16.5q0 8 -1.5 29.5t-1.5 35.5q0 4 0.5 11t0.5 10z" />
    <glyph glyph-name="l" unicode="l" horiz-adv-x="365" 
d="M56 625q0 28 13 41q8 10 40 15h4q17 0 45.5 -7t28.5 -19v-18q0 -12 -0.5 -33.5t-0.5 -32.5v-35q0 -21 -2 -25q-2 -10 -2 -15t1 -15t1 -14q-3 -33 -3 -46q0 -8 2.5 -22.5t2.5 -22.5q0 -9 -1.5 -23t-1.5 -20q0 -23 1 -32q2 -42 2 -79v-20q0 -24 1 -35q0 -22 6 -33
q3 -5 3.5 -9.5t2.5 -5t11 -1.5q7 -1 23 -1q10 0 21.5 1.5t18.5 1.5q4 0 12.5 1.5t12.5 1.5q16 0 34.5 -9.5t21.5 -25.5q0 -1 0.5 -4t0.5 -5q0 -28 -12 -51q-1 -2 -3.5 -9.5t-5 -13t-3.5 -6.5q-11 -6 -31 -6q-3 0 -9.5 0.5t-9.5 0.5q-11 0 -28.5 -2.5t-27.5 -2.5q-12 0 -15 3
q-12 12 -25 12h-8q-9 -2 -38.5 -5t-32.5 -3q-52 0 -56 23q0 2 -5 19.5t-5 26.5q0 3 2 11q2 5 9 18.5t7 22.5q0 6 1.5 26t1.5 34q0 7 0.5 28.5t0.5 33.5q0 24 -2 40q-5 33 -5 39q0 8 3 14q7 14 7 34q0 5 -2 9t-2 16t-1 18q-2 18 -2 27q0 12 2 18q3 15 3 23l-2 26q-7 32 -7 54
q0 10 1.5 24t1.5 19q0 3 -0.5 11t-0.5 14z" />
    <glyph glyph-name="m" unicode="m" horiz-adv-x="740" 
d="M91 -8q-25 1 -31.5 3.5t-7.5 12.5v22q0 26 -4 41q-2 10 -2 17q0 8 2 21.5t2 19.5q0 5 -1.5 13.5t-1.5 12.5q0 5 0.5 16.5t0.5 18.5q0 17 3.5 37t3.5 27v9q-4 20 -4 37q0 13 1 21q1 10 4.5 27.5t3.5 29.5q0 10 -0.5 24.5t-0.5 20.5q0 17 1 24q5 43 7 54q2 10 4.5 38.5
t7.5 36.5t14 25.5t13 25.5q9 16 47 38q40 22 57 22q59 0 75 -12q7 -5 21.5 -11.5t19.5 -11.5q7 -7 12.5 -14.5t9.5 -14t7 -12t5 -11t3 -8.5t1.5 -6.5l0.5 -3.5q1 -11 5 -25t5 -22q5 -36 13 -36q4 18 18 49l18 42q12 27 33 50q41 48 91 48q16 0 43 -9t35 -20q5 -6 20.5 -18
t17.5 -22q1 -9 6 -25t6 -22q0 -3 4 -18.5t4 -29.5q0 -12 1 -51t1 -50v-25q0 -31 -2 -41q-2 -8 -2 -13q0 -4 -0.5 -12t-0.5 -13q0 -6 2.5 -24t2.5 -25q0 -2 -0.5 -4t-0.5 -3q-1 -7 -1 -30v-34q0 -12 5 -35.5t5 -28.5q0 -9 -2 -25t-2 -23q0 -5 2 -13q8 -30 8 -44t-8 -26.5
t-17 -14.5q-4 -1 -12 -1q-84 0 -93 9l-7.5 5t-6 5t-1.5 5q0 5 3.5 17.5t3.5 18.5q0 7 -1 10q-3 12 -3 38v24q0 11 3.5 26.5t3.5 21.5q0 2 -2 12q-4 12 -4 18q0 2 0.5 5.5t1 9.5t0.5 12q2 34 2 40q0 17 -2 26q-2 11 -3 46q0 13 1.5 27.5t1.5 22.5q0 14 1 27t1 16t-2 15
q-1 6 -2.5 11t-2.5 9.5t-1 15.5q0 13 -3 26t-3 20q0 19 -4.5 25.5t-15.5 6.5q-8 0 -20.5 -15t-20.5 -34q-2 -6 -8 -13t-12 -25q-5 -16 -8.5 -31t-10.5 -35q-16 -45 -20 -85q-1 -16 -4.5 -39.5t-4.5 -37.5q0 -19 1.5 -47.5t1.5 -39.5t-1 -20v-9q0 -7 1 -22t1 -27
q0 -6 1 -18.5t1 -19.5q0 -11 -3 -19q-3 -10 -27 -18.5t-39 -8.5q-22 1 -47 8.5t-25 18.5q0 6 -1 23.5t-1 27.5q0 2 0.5 6.5t0.5 5.5q0 7 1.5 26t1.5 27q0 4 -1 9t-1 6q0 3 2 11t2 13q0 4 -1 9.5t-1 7.5q0 5 1.5 14t1.5 14q0 2 -0.5 4.5t-0.5 3.5q0 6 2 17t2 16v14
q0 4 0.5 9.5t0.5 7.5l-2 18q-3 10 -3.5 18t-0.5 20.5t-1 22.5q-6 61 -7 68q0 2 -0.5 4t-0.5 3q0 6 3 12t3 11t-1 8q-9 35 -24 67q-11 20 -34 20q-7 0 -12 -4t-6 -8t-3.5 -15t-3.5 -16q-2 -9 -6 -19t-5.5 -16t-1.5 -12t2.5 -17t2.5 -16q0 -7 -1 -11l-7 -45q0 -1 -1 -3v-2
q-6 -44 -6 -50q1 -41 1 -80q0 -8 0.5 -19.5t0.5 -15.5q0 -6 -1.5 -16t-1.5 -14q0 -7 2.5 -26t2.5 -29q0 -14 1 -36.5t1 -31.5q0 -12 -1 -17q-1 -19 -33.5 -37t-58.5 -18z" />
    <glyph glyph-name="n" unicode="n" horiz-adv-x="533" 
d="M367 321q0 17 1.5 43t1.5 45t-1 42.5t-1 35.5q0 21 1 35t1 26q0 20 -6 60q-5 45 -5 51q0 18 28 27q6 2 53 2q38 0 44 -13q9 -18 9 -49q0 -13 -2 -18q-3 -10 -4.5 -32.5t-2.5 -28.5q-2 -13 -2.5 -40.5t-1.5 -36.5q-1 -7 -1 -58q0 -7 -4 -15.5t-4 -11.5t3 -16t3 -28
q0 -23 -2 -33q-5 -16 -5 -65q0 -16 -0.5 -48t-0.5 -47q0 -28 1 -37q0 -6 1.5 -24.5t1.5 -27.5q0 -13 -1 -19v-4q-5 -32 -34 -40q-5 -1 -12 -1q-11 0 -26 8t-23 18t-19.5 36t-12.5 27q-5 8 -10.5 24t-11.5 23q-12 16 -23 49q-5 13 -15 24t-15 22q-4 9 -5.5 18.5t-4 16
t-10.5 15.5l-21 28q-7 7 -12.5 25.5t-7.5 22.5l-38 68q0 -6 1 -39.5t1 -38.5q0 -9 -3 -21t-3 -17q3 -22 5.5 -34t2.5 -18q-4 -48 -6 -58q-4 -20 -4 -38q0 -8 1.5 -17.5t1.5 -12.5q0 -6 -1.5 -17t-1.5 -17q0 -7 2 -21q3 -16 5 -43q0 -32 -24 -37q-10 -2 -48 -2q-42 0 -49 12
q-10 15 -10 34q0 5 2 15q6 29 7 46q-2 48 -4 54q-1 4 -1 11q0 9 4.5 28.5t4.5 29.5q0 4 -1 10t-1 9q0 6 1.5 19t1.5 23t-1 16v23q0 9 0.5 22.5t0.5 20.5q0 2 -0.5 6.5t-0.5 6.5q0 11 3 27t3 25q0 4 -2 16q-4 19 -4.5 38.5t1 45t1.5 37.5q0 11 -5 28t-5 24q0 6 1 9
q1 4 3.5 15.5t5 17.5t7.5 9q30 20 49 20q4 0 6 -1q3 -1 13.5 -4t15.5 -5t11.5 -6.5t10.5 -11.5q3 -6 18 -28t17 -31t14 -27t14 -24q5 -26 14 -38q6 -8 12.5 -20.5t12.5 -21.5q28 -39 33 -51q6 -17 19 -30.5t19 -27.5q5 -10 14.5 -22t10.5 -17z" />
    <glyph glyph-name="o" unicode="o" horiz-adv-x="499" 
d="M223 687q13 4 42 4q31 0 43 -3q9 -1 55 -30q11 -7 17.5 -13.5t10.5 -9.5t7 -7.5t6.5 -12t6.5 -11.5q14 -24 25 -41q8 -13 8 -40q0 -8 1 -14q1 -15 5.5 -32t5.5 -26q2 -15 2 -62q0 -11 -3.5 -47.5t-3.5 -48.5q0 -38 -11 -93q-6 -33 -10 -44q-6 -25 -19 -49q-5 -9 -16 -21
t-13 -18q-3 -5 -17 -18.5t-19 -20.5q-9 -14 -40.5 -30.5t-60.5 -16.5q-31 0 -58.5 5.5t-33.5 11.5q-14 14 -47 41q-9 8 -22.5 32t-13.5 39q0 14 -10 42t-10 43q0 13 -2 20q-4 11 -4 38.5t-2 38.5q-1 7 -1 17t2 30t2 31q0 31 11 71q4 16 6 34.5t5 29.5q2 9 2.5 18.5t1.5 14
t6 9.5q11 12 12 19q7 36 32 64q16 18 33 29.5t26.5 15t24.5 7t18 4.5zM253 581q-30 0 -42 -30q-13 -32 -15 -40q-1 -6 -3 -20.5t-3 -26t-1 -19.5q0 -3 1 -10t1 -12q0 -11 -2 -16q-7 -16 -11 -58q-2 -6 -2 -10q0 -5 1.5 -14t1.5 -13q0 -2 -1 -6.5t-1 -8.5q0 -3 1 -11t1 -12
q0 -3 -1 -9t-1 -11q0 -6 2 -16.5t2 -16.5q1 -7 1 -16t0.5 -15t2.5 -11q5 -13 11 -37q1 -6 10 -20q14 -28 40 -28q24 0 46 24q16 26 20 35t7 51q1 8 4 17t3 15q0 3 -1.5 10t-1.5 11q0 3 1.5 10t1.5 9q11 41 11 48t-1 11q-3 17 -3 23q0 3 1 10.5t1 11.5q0 2 -1 8t-1 12
q0 3 1 12t1 17q0 4 -2 22v22q0 10 -2 19q-4 20 -10 37q-2 12 -14 28q-21 24 -54 24z" />
    <glyph glyph-name="p" unicode="p" horiz-adv-x="421" 
d="M40 -9q-16 19 -16 31q0 3 2 9q8 21 8 44q-1 2 -1 9q0 5 1 14.5t1 13.5q0 1 -0.5 4.5t-0.5 6.5q0 4 1 10t1 7q0 4 -3 4q-6 0 -13.5 5t-8.5 12q0 29 4 33q2 2 8 11q17 23 17 44q0 5 3.5 28.5t3.5 36.5q0 8 -2 18q-3 15 -3 30q0 6 0.5 16.5t0.5 14.5v9q0 4 1 12t1 12
q0 5 -3 17t-3 19q0 1 0.5 6.5t0.5 10.5t2 12t2 12q0 9 -2 18q-7 40 -7 51q0 5 1 13.5t1 11.5q0 7 -5 11t-18 31q-4 16 -4 22q0 8 3 11q13 11 39 11q9 -1 58 -1.5t56 -0.5q11 0 34.5 -6t37.5 -6q11 0 25 -6q1 -1 11 -4t18.5 -5.5t17.5 -7t13 -8.5q42 -42 47 -57q1 -4 13 -25
t12 -35v-11q0 -10 3 -26t3 -22q0 -8 -1 -12q-3 -6 -10 -54q-6 -28 -33 -74q-5 -9 -17 -22t-30 -30l-19 -18q-5 -5 -9 -11t-7.5 -10t-11.5 -8t-16.5 -13t-18.5 -13q-30 -11 -39 -20l-24 -33q0 -4 -4.5 -28.5t-4.5 -37.5q0 -9 1 -12q9 -31 9 -46q0 -5 -1 -7q-6 -15 -28 -25
q-13 -6 -56 -6q-32 0 -41 9zM163 305q0 -24 8 -24q4 0 7 2q16 7 45 46q23 31 28 40q4 11 11 23q13 26 15 76q0 14 -9 57q-16 51 -60 51h-21q-13 0 -15 -2q-13 -12 -13 -40q0 -10 2 -32q0 -1 0.5 -3t0.5 -3v-43q0 -5 3 -25.5t3 -24.5q0 -3 -3 -24t-3 -26q0 -11 0.5 -26
t0.5 -22z" />
    <glyph glyph-name="q" unicode="q" horiz-adv-x="503" 
d="M202 -13q0 1 -10 3.5t-22 6.5t-17 8l-3 3q-31 28 -37 39q-15 27 -30 39q-13 8 -24 27t-12 38q-1 36 -7 61q-10 52 -10 86q0 13 4 41t4 43q7 85 13 94q4 8 12.5 34.5t14.5 39.5q11 25 52 66q39 39 69 54q25 11 58 11q24 0 48 -5q25 -6 53 -17.5t35 -23.5q2 -3 24.5 -29.5
t23.5 -38.5q1 -10 10.5 -34.5t9.5 -32.5q0 -2 4.5 -29t4.5 -40v-14q0 -8 1.5 -31t1.5 -33q0 -14 -1 -18q-2 -8 -2.5 -54t-6.5 -61q-8 -21 -18 -60l-1 -1v-2q-7 -24 -23 -46t-30.5 -36.5t-16.5 -18.5q-9 -18 -26 -33q-9 -7 -20.5 -12t-15.5 -7q-5 -4 -5 -11q0 -5 3.5 -15.5
t3.5 -17.5q1 -5 3.5 -14.5t5 -17.5t4.5 -14q1 -1 1 -5q0 -8 -7.5 -16t-15.5 -10q-1 -1 -8 -1q-12 0 -35 4t-28 10q-5 7 -9 22t-6 19q-17 40 -17 50zM190 123q3 -2 13 -14t14 -15q0 -2 3 -2q8 0 19 19q4 5 12 5q3 0 9.5 -2t8.5 -2q5 0 8.5 -2.5t4.5 -2.5q4 0 7 4
q6 4 16.5 21.5t15.5 29.5q2 5 8 23.5t12 29.5q7 13 7 41q0 9 1 15t2.5 25t5.5 26q8 21 8 25q-1 2 -3.5 15t-4.5 18q-4 13 -6 61q-1 9 -5 20.5t-5 23.5q-5 31 -18 58q-6 11 -24 20.5t-31 11.5q-10 0 -33 -9q-7 -3 -10 -7.5t-7 -12t-8 -13.5q-22 -29 -28 -44l-10 -43
q-5 -20 -12 -70q-5 -55 -5 -56q0 -9 1 -14q1 -11 2 -35.5t3 -34.5q1 -9 5.5 -27t6.5 -30q11 -48 17 -56z" />
    <glyph glyph-name="r" unicode="r" horiz-adv-x="450" 
d="M53 8q0 7 -0.5 22.5t-0.5 23.5q0 7 1 20.5t1 19.5q0 8 -1 11q-1 8 -9 28.5t-8 27.5t15 44q3 11 3 39q0 20 -2 46q0 16 3 37.5t3 28.5v17q0 10 -3 26q-3 12 -3 25q0 6 2 18v1q1 1 1 2q1 3 3 9.5t3 12t1 9.5q0 5 -1 8q0 2 -1 4v2q-2 14 -2 36q0 32 -3 63q-1 12 -10 27
t-10 18q0 1 -2 9t-2 12q0 8 4 12q24 21 44 21q1 0 7.5 -1t8.5 -1q34 -14 57 -14q40 4 75 4q10 0 22.5 0.5t16.5 0.5q12 0 40 -14q46 -20 55 -41q1 -2 19.5 -31t19.5 -38q0 -3 4 -20t4 -26q0 -13 -5 -25q-2 -4 -2 -11q0 -5 2.5 -13.5t2.5 -15.5v-7q-5 -36 -21 -66
q-20 -36 -55 -86l-33 -44q-12 -10 -12 -20t5.5 -19.5t16.5 -21t15 -16.5q7 -9 9.5 -15t2.5 -14.5t2 -15.5q1 -3 4.5 -4t10 -1t10.5 -1q6 -2 15.5 -16t12.5 -16q7 -4 18.5 -16.5t14.5 -20.5q12 -24 12 -29q0 -11 -16 -18q-14 -9 -49 -9h-18q-41 0 -45 9q-6 14 -22 37t-23 27
q-4 3 -14.5 22.5t-19.5 30.5q-6 7 -11.5 19.5t-9.5 19.5t-9 7q-2 0 -6 -2q-23 -14 -24 -30q0 -7 -4 -31.5t-4 -34.5q0 -8 1.5 -26t1.5 -31q0 -15 -16 -17q-50 -5 -75 -5q-17 0 -18 27zM169 273q0 -1 3 -1q18 0 38 20q11 12 19 22t13 17q11 12 31 56q5 11 11.5 32t10.5 26
q6 7 6 14q0 2 -0.5 7t-0.5 9q0 22 -6 28q-2 2 -18 40q-15 31 -42 38q-12 3 -24 3h-21q-8 0 -11.5 -1t-6 -4t-3.5 -4q-2 -2 -2 -14q0 -8 1.5 -28.5t1.5 -26.5q0 -11 -0.5 -33t-0.5 -34q0 -6 -2 -16.5t-2 -18.5q0 -4 -1 -15t-1 -16q0 -7 1 -11q0 -6 -0.5 -19t-0.5 -20
q0 -36 7 -50z" />
    <glyph glyph-name="s" unicode="s" horiz-adv-x="411" 
d="M271 505q-28 12 -28 36v4q1 3 1 9q0 26 -34 26q-13 0 -20 -8.5t-13 -27.5q-6 -15 -6 -32q0 -9 1 -15q4 -25 22 -41q4 -4 9.5 -13t11.5 -14.5t16 -6.5q13 -1 25 -17t17 -19l9 -4.5t11 -6.5t10.5 -7.5t12.5 -10.5t11 -14q2 -3 12 -11t17 -16t7 -13q22 -49 22 -82
q0 -26 -4 -59.5t-4 -35.5q0 -8 -4 -14.5t-11.5 -16.5t-12.5 -20q-7 -15 -19 -20.5t-14 -9.5q-10 -22 -35 -37q-12 -7 -40.5 -14.5t-50.5 -7.5q-8 0 -33 7q-66 14 -77 33t-30 35q-5 4 -9 12t-5.5 13t-4 18.5t-3.5 15.5q0 7 -4 23.5t-4 27.5q0 10 1.5 16t5.5 13t6 11
q6 11 44 28q12 6 28 6q6 0 15.5 -9t13.5 -17q5 -10 5 -26v-17q3 -27 17 -52t34 -25q23 0 41.5 20.5t18.5 52.5q0 4 -10 62q-2 15 -16 24.5t-14 10.5q-1 2 -4 15t-12 18q-8 5 -18.5 6.5t-18.5 5.5q-9 4 -20.5 16t-20.5 17q-41 26 -71 89q-14 30 -14 73q0 11 7 42t14 42
q5 8 18 15t16 17q4 12 26.5 27t38.5 22q5 2 22 3.5t27 6.5q6 4 19 4q4 0 16 -1t20 -1q20 0 52 -17q26 -14 46 -39q14 -19 14 -51q-1 -3 -1.5 -11t-1.5 -14.5t-4 -11.5q-4 -8 -26 -19t-33 -11q-2 0 -14 -3.5t-16 -3.5z" />
    <glyph glyph-name="t" unicode="t" horiz-adv-x="374" 
d="M113 -1q-2 5 -2 23q0 24 4 31q2 5 2 15q0 14 -1 22v2l-1 2q-1 4 -1 9q0 4 1.5 17t1.5 27q0 6 2.5 17t2.5 18q0 5 2 22t2 29v15q-1 9 -1 26q0 10 0.5 32t0.5 34q0 11 0.5 32t0.5 31q0 20 -1 29q-2 56 -2 86q0 21 -1 28q-3 21 -19 28q-3 1 -5.5 4t-5.5 3.5t-11 0.5t-10 -1
q-4 -1 -18 -7t-21 -6q-9 0 -16 11t-7 20q0 53 1 56q0 2 1 6l1.5 6t1 4.5t1.5 4t2.5 3t3 2t4.5 0.5q11 0 39 2.5t35 2.5q30 -5 85 -5h15q8 1 23 1q9 0 21 -0.5t13 -0.5q2 0 19.5 -1.5t28.5 -1.5q9 0 13 1q3 0 8.5 0.5t9.5 0.5q23 0 27 -14q1 -3 1 -9q0 -17 -5.5 -52
t-10.5 -36q-4 0 -14 -3t-14 -3q-8 0 -11 2q-8 3 -19 3.5t-13 1.5q-6 2 -7 2q-11 0 -16 -14q-2 -7 -2 -20q-1 -34 -2 -50t-1 -25t2 -26t2 -23q0 -11 -2 -15q-8 -16 -10 -61q-1 -18 -1 -73q0 -7 2.5 -31.5t2.5 -33.5q0 -14 1 -29.5t3 -28.5t2 -18q0 -7 5 -31t5 -35
q0 -44 -25 -57q-7 -4 -41.5 -8.5t-46.5 -4.5q-2 0 -4 0.5t-4 0.5q-1 0 -9.5 1t-12 2.5t-5.5 6.5z" />
    <glyph glyph-name="u" unicode="u" horiz-adv-x="479" 
d="M67 103q-8 30 -11 63q-1 20 -3.5 38t-2.5 24v23q0 7 1.5 19t1.5 18q0 5 -1 12.5t-1 10.5q0 6 1 21t1 23t2 21t2 19q0 10 -2 16q-3 13 -3 25v37q-1 14 -1.5 31t-1.5 30q0 9 -4 49t-4 54q3 30 8 38q3 5 16.5 10t24.5 5q3 0 8 -1.5t6 -1.5q64 -9 66 -30q0 -2 3 -15.5
t3 -23.5q0 -3 -2 -19q-2 -8 -2 -45q0 -10 1 -25.5t1 -20.5q0 -2 -0.5 -5.5t-0.5 -4.5q-2 -8 -2 -33q0 -29 -1 -42q0 -3 -0.5 -6.5t-0.5 -5.5q0 -7 1.5 -19.5t1.5 -18.5q0 -7 -2 -18.5t-2 -16.5q0 -9 4 -23.5t4 -23.5q4 -34 4 -79q0 -17 -1 -21v-4q0 -8 8 -23.5t9 -24.5
q5 -33 38 -33q18 0 35 10t23 24q3 8 4.5 14.5t2 10.5t0.5 12t1 14q9 60 9 87q0 50 9 60q7 8 7 24q0 15 -7 29q-5 12 -5 22q0 13 5.5 37.5t5.5 36.5q-5 73 -5 75q0 9 -3 27.5t-3 26.5q-1 8 -5.5 18t-4.5 16q0 4 1 7q2 7 15.5 14.5t29 14t17.5 7.5q6 4 22 4q38 0 41 -18
q7 -31 7 -38v-9q0 -1 -0.5 -4.5t-0.5 -5.5q0 -8 2 -30.5t2 -32.5t-1 -14q0 -5 -3.5 -28.5t-3.5 -35.5q1 -13 3.5 -29t2.5 -25q0 -2 -0.5 -6.5t-0.5 -6.5q-4 -60 -4 -68q0 -57 -3 -76q-1 -6 -1.5 -34.5t-3.5 -50.5q0 -1 -0.5 -3.5t-0.5 -3.5l-1 -2v-2q-8 -48 -15 -59
q-5 -7 -11 -25t-11 -24q-3 -4 -8.5 -11.5t-12.5 -14.5q-5 -5 -17 -11t-18 -13t-20 -11t-20 -7q-23 -13 -71 -13q-19 0 -43.5 6t-34.5 15q-5 5 -27 23t-27 26q-15 25 -19 48z" />
    <glyph glyph-name="v" unicode="v" horiz-adv-x="489" 
d="M212 9q-4 15 -15 29t-11 19q-1 2 -4 26.5t-7 29.5q-3 4 -3 18.5t-2 20.5q-2 4 -12.5 15t-14.5 26q-9 39 -21 66q-5 13 -12.5 53.5t-13.5 51.5q-11 26 -26 75q-1 7 -1.5 17.5t-2 18.5t-6.5 16q-21 36 -26 51q-2 6 -5 25t-7 27q-1 4 -5 11t-5.5 12.5t-1.5 12.5
q0 11 15.5 27.5t25.5 21.5q8 2 18 2q18 0 43.5 -5.5t28.5 -14.5q2 -8 11 -25.5t11 -29.5q8 -49 10 -64q1 -9 10.5 -38t10.5 -45q1 -15 6.5 -32.5t5.5 -25.5q0 -9 5.5 -26t5.5 -24q2 -29 11 -53q3 -7 10 -16t8 -15v-2q1 -2 1 -3q6 -48 16 -48q11 0 18 63q2 14 9.5 34.5
t8.5 29.5q13 52 13 66q0 10 4 24.5t5 29.5q3 17 4.5 35t2.5 25q1 10 2.5 15.5t4.5 13t5 16.5q3 6 3 16q0 3 -1 10.5t-1 11.5q0 3 2 17q6 28 24 46q6 4 28.5 9.5t31.5 5.5q4 0 8 -2q42 -14 42 -36v-19q0 -20 -6 -38q-3 -8 -6.5 -29t-10.5 -32q-5 -9 -8.5 -17.5t-7 -20.5
t-7.5 -21q-5 -12 -9 -37t-10 -39q-8 -20 -23 -73q-5 -21 -12 -62t-9 -48q-9 -27 -23 -58q-5 -9 -7.5 -20.5t-4 -26t-2.5 -20.5q-2 -12 -11 -29t-12 -26q-3 -15 -16 -25.5t-23 -14.5q-6 -2 -16 -2q-36 0 -41 23z" />
    <glyph glyph-name="w" unicode="w" horiz-adv-x="796" 
d="M59 85q-6 47 -6 81q0 12 -3.5 32.5t-3.5 29.5q0 1 1 7t1 11t-1 13t-1 12q0 5 0.5 13.5t0.5 12.5q0 7 -2 18.5t-2 17.5q0 4 0.5 12.5t0.5 13.5q0 33 -3 67q0 8 4 27.5t4 27.5q0 2 -0.5 4t-0.5 3q-4 21 -4 60q0 8 0.5 30t0.5 32q0 12 -1 22.5t-1 12.5q0 13 8 24
q12 13 26 13q62 0 74 -2q16 -2 27.5 -14.5t11.5 -31.5q0 -49 -8 -87q-3 -12 -3 -56q0 -7 3.5 -22t3.5 -24t-1 -14l-1 -9q-2 -9 -3 -21t-1 -19q0 -8 1 -34.5t1 -45.5q0 -7 -2 -22t-2 -23q0 -13 4 -28q5 -19 5.5 -44t1.5 -29q5 -30 14.5 -43.5t32.5 -13.5q46 0 56 29
q3 10 18 17t18 16q2 8 2 9q0 3 -3 12.5t-3 20.5v8q4 64 9 90q3 20 3 50q0 18 -1 26q-2 18 -2 53v15q0 8 3.5 23.5t3.5 27.5q0 1 -0.5 5.5t-0.5 6.5q-1 15 -6.5 42t-5.5 39q0 6 -0.5 15t-0.5 13q0 8 1 12q3 14 24 26t54 13q3 0 8.5 -0.5t7.5 -0.5q10 0 33.5 -15t23.5 -29
q0 -36 -8 -78q-1 -5 -1 -13q0 -7 2.5 -19t2.5 -20q0 -7 -1 -12q-2 -17 -3.5 -57.5t-1.5 -48.5q-1 -9 -1 -26q0 -8 0.5 -23t0.5 -21q0 -13 -1 -18q0 -4 -3.5 -24t-3.5 -31q0 -6 2 -20q2 -10 2 -35q0 -17 5 -31q14 -49 76 -49q11 0 25.5 9t19.5 15q11 9 15.5 18.5t8.5 23.5
t9 24q6 13 6 29q0 9 -2 25t-2 24q0 6 -2 18q-2 8 -2 25q0 7 0.5 19.5t0.5 17.5q0 12 2 26q0 1 2 16t2 23q0 12 -3 25q-3 17 -3 31v42q0 8 1.5 25.5t1.5 25.5q0 23 -11 70q-1 3 -1 9q0 28 16 38q10 5 82 5q15 0 21 -3q24 -17 24 -55q0 -17 -4.5 -46.5t-5.5 -34.5
q-1 -8 -1 -20v-16q0 -14 -1 -25q-2 -31 -2 -83q0 -8 -2 -23t-2 -20t2 -11t2 -16v-32q1 -16 1 -45q0 -13 -2 -28t-5 -34.5t-4 -31.5q-3 -25 -20 -58t-30 -46q-9 -9 -24.5 -18.5t-20.5 -13.5q-13 -13 -42 -22q-3 0 -29 -4t-39 -4q-42 0 -52 4q-20 7 -34 16q-20 13 -38 53
q-2 6 -5.5 9.5t-5.5 4.5t-6 2t-5 1t-5 -4t-10 -11t-10 -13q-14 -19 -47 -40q-14 -10 -36 -18q-15 -6 -51 -6q-4 0 -16.5 -1.5t-18.5 -1.5q-9 0 -14 3q-4 2 -26.5 8t-32.5 12q-48 33 -55 76z" />
    <glyph glyph-name="x" unicode="x" horiz-adv-x="474" 
d="M41 623q0 9 6.5 17t17 14t19.5 10t19 7.5t11 3.5q8 4 18 4q28 0 31 -9q2 -7 8 -19.5t9 -25.5q1 -6 2.5 -18t4 -19t9.5 -16q27 -33 29 -55q1 -12 10 -33t16 -21q9 36 13 46q1 6 9.5 21t11.5 23q2 7 8.5 22t7.5 24q5 41 10 47q3 3 8 13t9 13q2 2 49 10q10 0 29 -6.5
t25 -14.5q7 -8 7 -26q0 -9 -16 -37.5t-21 -47.5q-4 -14 -10 -27.5t-13 -25.5t-9 -16q0 -1 -0.5 -2t-0.5 -2l-19 -45q-9 -20 -21 -61q-2 -4 -2 -5q-9 -27 -9 -46q0 -5 1 -7t14 -26t20 -41q24 -57 25 -59q18 -49 20 -51q3 -4 7 -11t8.5 -13t10.5 -12q23 -21 37 -56q3 -6 3 -13
q0 -21 -20 -34q-16 -9 -59 -9q-28 0 -37 7q-2 1 -8 5t-8.5 5.5t-6.5 5t-6.5 7.5t-3.5 9q-1 3 -3.5 25t-7.5 31q-19 29 -21 41q-2 7 -2.5 16t-3.5 16q-3 6 -5 11t-6 12q-3 5 -14 25q-3 6 -10.5 14t-9.5 8t-8 -9t-13 -22.5t-8 -23.5q-5 -26 -25 -54q-7 -11 -20 -35
q-4 -8 -5.5 -15.5t-2.5 -17.5t-2 -17q-8 -37 -38 -37q-2 0 -17.5 -2t-19.5 -2q-13 0 -31.5 3.5t-19.5 9.5q0 2 -5 14.5t-5 19.5q0 11 1 14q1 7 11.5 22t12.5 20q2 6 9.5 20t10.5 22q3 9 14.5 24.5t15.5 22.5q2 4 30 45q14 19 22 41q0 -2 17 49l1 3q6 12 6 22q0 3 -6 16
t-7 14q-3 10 -11.5 26.5t-11.5 23.5q-4 10 -22 47q-2 4 -4 12.5t-4 15t-4 8.5q-8 4 -13 17q-2 6 -7 13.5t-7 13.5q-2 4 -4 11t-4 12.5t-6 9.5q-10 11 -10 40z" />
    <glyph glyph-name="y" unicode="y" horiz-adv-x="467" 
d="M21 635q0 16 14.5 27.5t25.5 12.5q24 3 27 3q2 0 5 -1t4 -1q14 0 35 -12t21 -24q0 -5 1 -12.5t1 -11.5q0 -6 -1 -9q0 -5 3.5 -13t3.5 -13v-35q0 -8 3 -21t3 -26q0 -15 7 -50q7 -36 13 -47q2 -4 4 -11t4 -11t10.5 -7t23.5 -3t25 3t17 11.5t9.5 14.5t8.5 20q2 6 5 12.5
t5 10t4 10.5t3 16q0 1 0.5 3.5t0.5 3.5t0.5 2t0.5 2q3 17 3 43q0 8 3 22t3 20q0 3 -2 11q0 9 -1 26t-1 26q0 2 0.5 4.5t0.5 3.5q2 14 16 29q5 6 30.5 11.5t36.5 5.5q13 -1 31 -8.5t19 -17.5v-30q-5 -20 -6 -39.5t-3 -29.5q-3 -15 -3 -21q0 -24 -2 -34q-1 -8 -2.5 -18t-2 -14
t-3 -11t-6.5 -16q-6 -11 -11 -22.5t-9 -22t-5 -12.5q-1 -3 -1.5 -7.5t-2.5 -10t-7 -13.5q-22 -33 -28 -36q-20 -11 -33 -20t-18 -13t-8 -5q-6 -3 -6 -32q0 -18 -3 -38.5t-3 -43.5q0 -16 3 -33q4 -31 8 -45q8 -25 9 -39q0 -15 -9 -30t-18 -22q-11 -7 -33 -7q-60 0 -65 9
q0 4 -8 17.5t-8 21.5t4.5 21.5t4.5 20.5v11q-2 22 -2 27q0 1 2 35q0 11 1.5 28.5t1.5 24.5q0 10 -1 14l-6 40q-4 16 -13 23t-27 12q-35 10 -51 33q-8 10 -13 24t-8 19q-14 22 -14 47q0 11 -5.5 30t-5.5 25q5 43 5 49q0 7 -1.5 20.5t-1.5 20.5q0 9 -5.5 33.5t-6.5 38.5z" />
    <glyph glyph-name="z" unicode="z" horiz-adv-x="420" 
d="M29 585q0 1 -0.5 3t-0.5 3q0 12 10.5 42t17.5 34q3 2 6 4.5t5 4t6 2.5t11 2t20 1q22 0 33 3q3 1 12 1q11 0 40 -3t36 -3q2 0 4 1h2q5 2 17 3t24.5 2t14.5 1q18 2 71 2q13 0 29 -8.5t16 -18.5q0 -6 2.5 -20t2.5 -21q0 -11 -5 -17q-5 -7 -7.5 -13t-6.5 -16.5t-9 -21.5
q-6 -16 -16.5 -35t-15.5 -32q-8 -15 -15 -32.5t-12 -27.5q-4 -9 -8 -21t-10 -23q-4 -7 -7.5 -19t-7.5 -20.5t-10 -13.5q-11 -10 -15.5 -18.5t-8 -22.5t-5.5 -20q-4 -11 -11.5 -23t-9.5 -25q-3 -11 -7 -19t-9 -13.5t-6 -7.5q-16 -30 -22 -66q0 -10 41 -10q6 0 15.5 0.5
t10.5 0.5q35 0 45 9q20 10 46 10q18 0 26.5 -33t8.5 -57q0 -7 -3 -12q-3 -9 -15 -19.5t-25 -10.5t-31.5 1t-24.5 1q-24 0 -44 -2q-12 0 -32.5 1t-23.5 1q-5 0 -21.5 1t-23.5 1q-16 2 -32 2q-14 0 -20 -2l-36 -9q-8 0 -12 2q-2 1 -5 2q-11 4 -14 8t-4 15q0 42 18 54
q9 8 13.5 37t6.5 35q5 13 17 34t13 24q2 3 9.5 15t12.5 22t6 18q11 47 36 81q21 29 36 69q4 11 17.5 40.5t16.5 39.5q2 5 15.5 29t16.5 32q4 12 4 20q0 3 -0.5 6t-0.5 5q-24 0 -37.5 3.5t-17.5 3.5q-27 0 -50 -10l-1 -1h-2q-21 -10 -44 -13q-4 -1 -10 -1h-4q-4 -1 -8.5 -1.5
t-7.5 -0.5q-14 0 -24.5 8.5t-11.5 22.5z" />
    <glyph glyph-name="braceleft" unicode="{" horiz-adv-x="282" 
d="M271 5q0 -23 -30 -46q-7 -5 -29 -5q-8 0 -18 6q-44 15 -63 46q-3 5 -13 16.5t-17 22.5t-11 20q-10 20 -10 69q0 33 6.5 57.5t6.5 37.5q0 41 -6 46q-3 4 -6.5 11.5t-6.5 11t-8 4.5h-8.5t-12 0.5t-12 3t-10.5 7.5q-23 18 -23 45q0 21 34 34q12 4 18.5 8.5t8 6.5t8.5 14
q14 16 14 33q0 8 -5 21q-16 29 -16 106q1 7 2 23t3 27t6 14q7 7 12 33q2 9 7 18t12 19l8 10q18 35 41 44q26 10 52 12q26 0 46 -14t20 -36q0 -17 -10 -28t-25 -11q-9 0 -14.5 -2.5t-13.5 -10.5t-11 -10q-6 -6 -9.5 -14t-7 -23.5t-4.5 -19.5q-17 -50 -10 -73q5 -14 13 -69
q0 -1 0.5 -6t0.5 -7q0 -27 -10 -47q-3 -10 -20 -29t-17 -21t9 -5.5t20 -13t16 -23.5q8 -24 14 -65q3 -5 0.5 -28t-2.5 -27q-3 -54 -3 -56q0 -18 1 -29q5 -54 30 -72q4 -2 20 -7t24.5 -11.5t8.5 -17.5z" />
    <glyph glyph-name="bar" unicode="|" horiz-adv-x="224" 
d="M68 36q0 2 0.5 5t0.5 4q0 9 -4 24t-4 19q2 4 2 38.5t3 45.5q1 5 1 18q0 7 -0.5 25t-0.5 27q0 23 2 31q4 24 4 53q0 11 -1 17q-1 13 -1 37v15q0 6 1.5 32.5t1.5 42.5q0 11 -2 31q-8 88 -8 95q0 2 2 7.5t2 12.5q0 2 -0.5 6.5t-0.5 7.5q-1 11 -3 21l-3 15t-1 8t1 7.5t1 8.5
q0 3 -1 10t-1 13v8q3 13 19 23.5t29 13.5q3 1 12 1q56 0 56 -24q-1 -7 -1 -34t-3 -37q-2 -10 -3 -37t-2 -36q-3 -12 -3 -14q0 -5 2 -18.5t2 -22.5q0 -1 -0.5 -6t-0.5 -7q-1 -8 -1 -21q0 -6 0.5 -16t0.5 -15q0 -1 -0.5 -5t-0.5 -6q-4 -16 -4 -53q0 -31 5 -59q0 -10 -3 -31
t-3 -28q0 -1 0.5 -4t0.5 -4q2 -7 3 -21.5t2 -34t2 -26.5q2 -26 2 -43q0 -21 -1 -33q-1 -16 -4 -23.5t-3 -11.5q0 -9 3 -18q1 -9 7 -38t6 -47q0 -33 -43 -40h-27q-14 0 -24.5 6.5t-10.5 15.5q0 4 -3.5 30.5t-1.5 38.5z" />
    <glyph glyph-name="braceright" unicode="}" horiz-adv-x="280" 
d="M0 730q0 23 30 46q8 5 29 5q8 0 18 -6q44 -15 63 -46q3 -5 13 -16.5t17 -22.5t11 -20q10 -20 10 -69q0 -33 -6.5 -57.5t-6.5 -37.5q0 -42 6 -46q3 -4 6.5 -11.5t6.5 -11t8 -4.5h8.5t12 -0.5t12 -3t10.5 -7.5q23 -18 23 -45q0 -21 -34 -34q-12 -4 -18.5 -8.5t-8 -6.5
t-8.5 -14q-14 -16 -14 -33q0 -8 5 -21q16 -29 16 -106q-1 -7 -2 -23t-3 -27t-6 -14q-7 -7 -12 -33q-2 -9 -7 -18t-13 -19l-7 -10q-18 -35 -41 -44q-26 -10 -52 -12q-26 0 -46 14t-20 36q0 17 10 28t25 11q9 0 14.5 2.5t13.5 10.5t11 10q6 6 9.5 14t7 23.5t4.5 19.5
q17 50 10 73q-5 14 -13 69q0 1 -0.5 6t-0.5 7q0 27 10 47q3 10 20 29t17 21t-9 5.5t-20 13t-16 23.5q-8 24 -14 65q-3 5 -0.5 28t2.5 27q3 54 3 56q0 18 -1 29q-5 54 -30 72q-4 2 -20 7t-24.5 11.5t-8.5 17.5z" />
    <glyph glyph-name="asciitilde" unicode="~" horiz-adv-x="584" 
d="M10 350q0 14 7.5 29t20 31t13.5 17q5 7 17 12t13 10q2 9 25.5 22t54.5 19q24 4 44 4q27 0 49 -6q37 -15 52 -28q14 -13 38 -20q2 0 10 -8.5t24 -12.5q32 -10 43 -10q12 0 23 4q40 13 40 28q0 8 6.5 20t13.5 16q14 7 21 7q6 0 12.5 -2t15.5 -8t14.5 -20t5.5 -34
q0 -12 -11 -31.5t-22 -30.5q-11 -15 -56 -30q-6 -4 -22 -9t-22 -5h-1q-1 1 -2 1q-1 1 -10.5 2t-24.5 2t-21 2q-43 12 -87 45q-12 10 -37.5 18t-32.5 12q-10 6 -27 6q-20 0 -36 -8q-5 -3 -19.5 -9t-21.5 -13q-2 -2 -8 -7t-8.5 -7.5t-6 -6.5t-5 -7.5t-1.5 -6.5q-4 -30 -24 -40
q-1 -1 -28 -1q-11 0 -20 20t-9 34z" />
    <glyph glyph-name="exclamdown" unicode="&#xa1;" horiz-adv-x="190" 
d="M150 110q0 3 -0.5 7.5t-0.5 6.5q0 8 1.5 13.5t1.5 6.5q0 3 -2 9q-3 9 -4 39t-3 50q-2 16 -2 31q0 17 2 44t2 34v24q0 17 -2 25q-1 6 -1 17q0 27 6 54q4 17 4 53v16q0 9 -10.5 15.5t-23.5 6.5h-5q-1 0 -10 -1.5t-14.5 -2.5t-15.5 -3t-16.5 -5t-13 -6.5t-10 -9t-3.5 -11.5
q0 -45 8 -86q5 -18 5 -63q0 -47 -5 -92v-40q0 -14 -1 -23q0 -2 -0.5 -6.5t-0.5 -6.5q0 -9 1.5 -22.5t1.5 -18.5t-2 -15q-2 -9 -3 -36t-4 -37q-3 -13 -3 -51v-22q0 -24 34 -24q54 0 58 1q11 4 22.5 14t14.5 23q0 12 -1.5 21t-1.5 11t1.5 7t1.5 9q0 3 -2.5 16.5t-3.5 27.5z
M135 621q-18 -15 -55 -15q-32 10 -52 31q-9 9 -9 27q0 19 11 37q8 13 26 21.5t25 15.5q9 10 32 10q18 0 34 -10q9 -9 16 -27t7 -31q0 -16 -35 -59z" />
    <glyph glyph-name="cent" unicode="&#xa2;" horiz-adv-x="348" 
d="M144 549q3 4 3 11q0 4 -1.5 11t-1.5 13v6q3 16 26 39q3 3 12 3q10 0 23 -5q24 -19 24 -39v-4q0 -5 -2.5 -17t-2.5 -17t2 -8q3 -3 15.5 -5.5t22.5 -7.5q11 -7 19 -13t13 -9q7 -4 13.5 -19t6.5 -26q0 -18 -14 -32t-25 -14q-19 0 -30 7t-12 16q-1 18 -12 30t-22 13
q-7 0 -9 -1.5t-7.5 -6t-16.5 -8.5q-4 -2 -7.5 -4.5t-6.5 -6t-5 -6t-4.5 -8t-4 -8t-4.5 -9.5t-4 -10q-6 -13 -4 -34.5t0 -30.5q0 -1 -0.5 -4t-0.5 -5q0 -42 21 -67q25 -30 52 -30q28 0 47 16q17 9 37 31q6 9 17 9q3 0 6.5 -2.5t8 -8t5.5 -6.5q18 -14 18 -34q0 -3 -2 -9
q-7 -26 -42 -40q-33 -13 -41 -13q-18 0 -18 -30q0 -8 1 -11q2 -10 7.5 -23t5.5 -18q0 -3 -1 -5q-2 -10 -19 -23t-26 -13q-14 0 -27.5 16.5t-13.5 40.5v34q0 2 -1.5 3.5t-5 2.5l-7 2t-9.5 3t-11 5q-31 15 -60 36q-11 8 -22.5 28.5t-16.5 38.5q-9 33 -11 60q-4 16 -4 39
q0 16 4 28q1 4 9 18.5t9 25.5q0 9 4.5 15t12.5 13.5t10 10.5q29 32 50 41q24 9 30 25z" />
    <glyph glyph-name="sterling" unicode="&#xa3;" horiz-adv-x="595" 
d="M482 77q4 6 11 17.5t10.5 16.5t10 9.5t13.5 4.5q16 0 33.5 -15.5t17.5 -32.5q0 -10 -4.5 -19.5t-12.5 -19t-10 -13.5q-14 -20 -49 -33q-5 -2 -57 -2q-4 1 -13 1q-4 0 -14 -0.5t-15 -0.5q-13 0 -19 2q-38 11 -65 17q-11 2 -22.5 6.5t-23 10.5t-14.5 7h-28q-6 -1 -18.5 -13
t-16.5 -14q-10 -6 -43.5 -14t-56.5 -8q-30 0 -77 35q-19 13 -19 59q0 50 52 77q13 5 35 5q10 0 29.5 -2t28.5 -2h2q5 -2 13 -4.5t15 -5.5t13.5 -5.5t9.5 -4.5l4 -1q4 0 10 9.5t7 20.5q7 28 7 55v61q-9 -1 -17 -4h-8q-5 0 -23 2q-24 2 -33 13q-6 15 -6 20q0 38 8 49
q11 6 21 6q5 0 21 -1t34 -2q-4 18 -4 25q0 6 3 17t3 18q0 10 -3 26.5t-3 24.5q-1 8 -5 36.5t-4 51.5q0 39 23 90q4 10 8.5 16.5t7 9t8.5 6t8 5.5q1 1 10.5 7.5t15 12.5t10.5 14q7 11 48.5 18.5t64.5 7.5q40 0 57 -11q7 -2 26 -27t21 -32q2 -5 2.5 -15.5t3.5 -20.5
q1 -4 1 -13q0 -11 -7 -39q-5 -38 -17 -54q-5 -7 -21 -14t-24 -7q-9 0 -26.5 9.5t-20.5 18.5q-2 4 -2 12q0 18 12 28q22 28 20 44q-3 23 -10 34t-27 11q-17 0 -27 -5q-33 -14 -36 -18l-7 -9q-7 -10 -10 -18t-3 -18q0 -9 -1 -30t-1 -30q0 -16 3 -45.5t3 -40.5q0 -22 8 -94
q4 0 14.5 1.5t19.5 1.5q33 0 38 -14q7 -5 12.5 -24.5t5.5 -29.5v-3q-1 -8 -13.5 -13t-26.5 -5q-3 0 -20 0.5t-29 0.5q0 -9 1 -20t1 -17t-0.5 -20.5t-0.5 -21.5q0 -9 -7 -28.5t-8 -23.5q-12 -34 -12 -43q3 -10 19 -18q3 -1 13 -1t16 -3q22 -12 42 -12q3 0 16.5 -4.5
t20.5 -4.5q13 0 29.5 4t19.5 9zM160 75l4 2q0 3 -23.5 8.5t-35.5 5.5q-2 0 -6 -0.5t-6.5 -1t-6 -2t-5.5 -4t-3.5 -6.5t-1.5 -10q0 -14 22 -14q13 0 21.5 3t19 9t21.5 10z" />
    <glyph glyph-name="yen" unicode="&#xa5;" horiz-adv-x="472" 
d="M181 293q0 9 1 21t1 19q0 67 -30 92q-23 19 -59 67q-40 48 -55 73q-5 12 -16.5 24t-18 26.5t-6.5 39.5q0 14 15.5 27.5t28.5 13.5q15 0 27 -5t17 -9.5t17 -16.5q13 -13 24 -44q2 -5 15 -19.5t15 -22.5q1 -7 4 -11.5t5 -6.5t12 -10q16 -12 28 -29t17.5 -27.5t8.5 -10.5
q6 0 20.5 19t15.5 19q8 3 13 9t6.5 11t3.5 13t3 10q2 6 9.5 13t10.5 12q5 7 15 27t18 28q53 57 67 57q11 0 30 -13t19 -25q0 -34 -30 -76q-3 -4 -19.5 -24t-20.5 -27q-19 -30 -28 -39q-1 -1 -38 -46q-5 -4 -12.5 -17.5t-13.5 -18.5t-10.5 -13t-6.5 -16t-2.5 -17.5
t-0.5 -15.5t1 -12v-7q0 -1 0.5 -2t0.5 -3l-5 -31q4 -2 40 -3.5t41 -7.5q20 -27 20 -49q-2 -12 -16 -14.5t-55 -2.5h-9h-8h-10q1 0 2 -23t3 -23q6 -1 18 -1l22.5 2.5t18.5 1.5q31 0 31 -15q0 -8 -2.5 -27.5t-5.5 -22.5q-14 -14 -54 -17q-2 0 -5.5 1t-9.5 2t-13 2q0 -10 2 -31
t2 -36q0 -20 -17 -29.5t-35 -9.5q-19 0 -39 6t-20 14q-1 7 1 20t2 27q0 10 -2.5 25t-2.5 16q-10 0 -26.5 -1t-18.5 -1q-13 0 -25.5 5t-13.5 12v5q0 56 53 56q6 0 17 -0.5t16 -0.5q0 5 1.5 19t1.5 24l-16 -4h-29q-24 0 -31.5 13t-7.5 41q0 9 7.5 18t20.5 9q4 0 20.5 -2.5
t34.5 -3.5z" />
    <glyph glyph-name="brokenbar" unicode="&#xa6;" horiz-adv-x="137" 
d="M110 105q0 -13 2.5 -38.5t2.5 -29.5q-1 -3 -1.5 -7.5t-1 -7.5t-1.5 -3v-9v-11q0 -50 1 -59q1 -4 1 -10q0 -8 -2 -14v-10q0 -7 0.5 -20t0.5 -22.5v-10.5q0 -2 0.5 -5.5t0.5 -5.5l-3 -5q-3 -5 -24.5 -8.5t-33.5 -3.5q-9 0 -14 3q-8 1 -8 14v15q0 5 -2.5 12t-2.5 31
q0 2 2 13.5t2 17.5q0 5 -3 11q-3 4 -3 13q0 4 1 12.5t1 13.5v49q0 23 4 30v6q0 4 -6 34q-1 3 -1 8q0 3 1.5 10t1.5 12q2 23 13 31q8 7 50 7q11 0 20 -8q5 -10 5 -21q0 -1 -3 -34zM110 559v-5q0 -10 2.5 -34t2.5 -30q-1 -2 -1.5 -7t-1 -8t-1.5 -3v-8v-12q0 -48 1 -59
q1 -3 1 -11t-2 -12v-11q0 -8 0.5 -20.5t0.5 -22v-10.5t0.5 -4.5t0.5 -6.5l-3 -4q-5 -11 -58 -11q-9 0 -14 1q-8 1 -8 14v16q0 5 -2.5 12t-2.5 31q0 2 2 13t2 17t-3 11q-3 7 -3 12q0 4 1 13.5t1 14.5v49q0 22 4 29v6q0 10 -6 34q-1 3 -1 9q0 3 1.5 10t1.5 12q2 22 13 31
q9 6 50 6q11 0 20 -8q5 -10 5 -20q0 -1 -3 -34z" />
    <glyph glyph-name="section" unicode="&#xa7;" horiz-adv-x="375" 
d="M223 707q46 0 69 -21q4 -4 15 -11.5t14 -12t5 -12.5q11 -22 11 -30q0 -28 -11 -40q-11 -11 -34 -11q-5 0 -15 4t-12 9q-21 55 -50 56q-1 0 -5 0.5t-6 0.5q-25 0 -55 -20q-13 -9 -15.5 -17.5t-2.5 -30.5q0 -27 44 -42q20 -5 86 -45q5 -3 18.5 -11t19 -11.5t13 -9.5
t10.5 -11q2 -4 12.5 -14.5t18 -21.5t8.5 -21q12 -43 12 -65q0 -2 -8 -16.5t-8 -16.5q-4 -21 -25 -48l6 -10q6 -9 13.5 -31.5t7.5 -51.5q0 -45 -15 -71.5t-33 -34.5q-9 -4 -23.5 -17.5t-18.5 -15.5q-9 -4 -40.5 -9t-50.5 -5q-69 0 -97 21q-33 25 -38 38q-20 44 -21 47l-1 2
q-1 1 -1 3q0 11 8 28.5t20 22.5q5 2 31 2q23 0 28 -9q5 -6 10.5 -23t6.5 -28q2 -33 65 -33q23 0 29 2q16 5 28.5 22t12.5 39q0 38 -7.5 58t-25.5 32q-22 15 -59 15q-7 0 -20.5 11t-16.5 11q-30 5 -59 23.5t-47 37.5q-16 19 -19 62q-1 11 -1 40q0 2 2.5 8.5t5.5 13t3 7.5
q1 6 9.5 17.5t16 20.5t8.5 9t1 4q0 19 -7 52q-2 8 -2 20q0 29 15 52q5 6 15.5 21t17.5 24.5t11 12.5q29 19 55 26q21 3 68 3zM110 457q-2 3 -3 3q-4 0 -9.5 -10.5t-5.5 -24.5q0 -5 0.5 -13.5t1 -11l1.5 -7.5t4 -7.5t7 -5.5q6 -4 23.5 -17t22.5 -16q3 -1 26 -11t33 -14
q36 -12 38 -14q6 -6 13 -6q2 0 8 5q6 10 6 27q0 19 -21 40q-24 24 -47 36q-9 3 -13 5.5t-10 7t-12 8.5q-6 3 -22.5 7.5t-27.5 9t-13 9.5z" />
    <glyph glyph-name="dieresis" unicode="&#xa8;" horiz-adv-x="343" 
d="M54 823q10 14 34 14h9q16 -3 43 -32q9 -9 9 -23q0 -12 -10 -29q-6 -10 -24 -18t-22 -12q-6 -9 -25 -9q-16 0 -26 9q-6 6 -12.5 21t-6.5 23q0 15 31 56zM216 822q9 13 40 13l11 2q18 -4 42 -32q8 -9 8 -23t-9 -29q-5 -8 -10 -13t-12.5 -11.5t-11.5 -9.5q-5 -5 -25 -5h-12
q-7 1 -16.5 9.5t-10.5 9.5q-17 22 -17 34q0 10 7 28t16 27z" />
    <glyph glyph-name="copyright" unicode="&#xa9;" horiz-adv-x="600" 
d="M361 460q-3 23 -29 23q-6 0 -21 -3q-6 -3 -8 -5t-4 -7.5t-5 -10.5q-10 -18 -10 -38v-13q0 -4 -0.5 -12t-0.5 -11q0 -13 3 -22q3 -14 18 -43q4 -8 7 -12.5t10 -7t8 -2.5t14 -2q10 -2 24 15t18 18q8 4 19 4q8 0 19.5 -7t12.5 -13v-10q0 -45 -7 -53q-6 -7 -16 -12.5t-18 -8
t-21.5 -5.5t-17.5 -4q-10 -3 -24 -3q-39 0 -72 15q-32 15 -52 55q-13 22 -20 57q-5 15 -5 25t2.5 25t2.5 16q2 7 3 15.5t2.5 13t5.5 8.5q5 6 14.5 31t11.5 28q7 9 44 33q15 9 64 15h5q39 0 56 -20q38 -41 39 -44t1 -11q0 -18 -7 -32q-4 -12 -41 -12h-3h-3h-3t-3 1t-2.5 2
t-3 3t-2.5 5t-2.5 7t-2.5 9zM347 685q2 0 18.5 2t26.5 2q25 0 34 -11q15 -15 55 -32q37 -23 72 -58q46 -50 52 -77q1 -12 10.5 -36.5t9.5 -35.5v-25q0 -24 -2 -43q0 -6 2 -18.5t2 -17.5q0 -13 -7 -26q-5 -9 -17 -39.5t-21 -39.5q-6 -5 -16.5 -27.5t-24.5 -34.5
q-12 -9 -28 -24t-25 -21q-46 -35 -75 -36q-14 0 -38.5 -4t-35.5 -4q-2 0 -6 0.5t-8 0.5q-12 2 -21.5 3t-21.5 2t-22 2q-25 2 -55 11.5t-45 24.5q-7 5 -28 18.5t-35 24t-20 19.5q-28 40 -40 72q-20 49 -20 77q1 6 3 16l3.5 17.5t1.5 14.5t-2 9q-2 18 -2 21q0 16 5 41q1 1 1 3
q7 31 29.5 82t50.5 74q68 56 107 71q52 13 75 13q4 0 8.5 -0.5t6.5 -0.5q20 -10 43 -10zM407 587q-55 23 -94 23q-10 0 -14 -1q-47 -7 -90 -30q-13 -6 -23.5 -16.5t-14 -15.5t-15.5 -24l-12 -20t-9.5 -16t-6.5 -14q-13 -30 -16 -69q-4 -32 -4 -54q0 -8 2 -26q13 -52 48 -88
q38 -40 88 -57q55 -20 69 -20q11 0 82 13h2q2 1 3 1q47 12 68 37q19 17 50 83q26 66 28 103v5q0 40 -20 80q-6 15 -21.5 30t-34.5 24q-11 6 -30.5 26t-34.5 26z" />
    <glyph glyph-name="ordfeminine" unicode="&#xaa;" horiz-adv-x="306" 
d="M57 249h-5q-4 0 -6 2t-5 2q-12 0 -12 10q0 5 -1.5 11t-1.5 12v27q0 22 2 26q1 1 1 5q0 2 -5 15q-11 29 -11 33q0 2 -0.5 5.5t-0.5 5.5q0 5 3 10q2 1 8.5 2t8.5 3v5q0 1 -1 10t-1 18q0 28 4 32q2 3 2 11v81q0 4 2 16v3q1 2 1 7q0 3 -1 11t-1 11q0 9 3 14q4 5 6 14t5 14
q16 21 16 28q0 5 3.5 9.5t7 7.5t9.5 7t8 6q5 3 17.5 8t14.5 8q4 4 21.5 7.5t28.5 3.5q32 0 50 -11q7 -4 32 -27q19 -16 28 -43q10 -38 10 -52q0 -3 1 -19t1 -23v-8q-3 -6 -3 -30q0 -20 1 -24q2 -9 2 -57q0 -10 1 -22t1 -16q0 -2 0.5 -8.5t0.5 -10.5q0 -11 -1 -16
q-5 -30 -5 -36q3 -33 3 -36v-35q0 -28 -11 -30q-3 0 -12 -0.5t-12 -0.5t-22 0.5t-22 0.5q-13 3 -16 16v17v14q0 3 -2 8t-2 8q0 4 4 8q1 1 3.5 2.5t3 3.5t0.5 8q0 4 1 8t1 5q0 3 -9 3q-6 0 -7 0.5t-7 0.5q-2 0 -14.5 2.5t-21.5 2.5q-23 0 -33 -10t-10 -25q-2 -22 -2 -26
q0 -6 2 -11.5t2 -8.5q0 -4 -1 -7t-4.5 -5.5t-9.5 -3.5t-11 -2t-11 -1.5t-7 -0.5l-4 -1q-1 0 -1 -0.5t-1 -0.5t-3 -0.5t-3 -0.5zM121 431q1 -7 6 -7h10q6 0 9 2t8 2q2 0 5 0.5t6 0.5q5 0 15 -3t12 -3q4 0 4 1q-1 2 -1 3h2q8 0 18 10q2 0 2 3q0 4 -1 9.5t-1 10.5q0 7 2 12
q2 7 9 7q2 0 3 4q0 3 -7 3q-5 0 -7 3q-4 7 -4 23q0 2 0.5 6.5t0.5 5.5q2 6 2 10q0 2 -1 11t-1 18q0 8 -3 38q0 5 -2.5 16t-2.5 20q0 19 -3.5 24.5t-16.5 11.5q-2 1 -10 1t-27 -8q-6 -3 -14 -12q-4 -5 -4 -10v-7q0 -3 -1 -6q-2 -5 -2 -14t-3 -15q-3 -8 -3 -12q0 -6 3 -22v-6
q0 -3 -0.5 -9.5t-0.5 -10.5v-14q0 -8 -2 -17.5t-2 -15.5q0 -7 -1.5 -17.5t-1.5 -21.5q0 -7 6 -25z" />
    <glyph glyph-name="guillemotleft" unicode="&#xab;" horiz-adv-x="561" 
d="M177 149q4 -5 10 -9.5t10.5 -7t13 -7t12.5 -6.5q17 -7 45 -29q3 -3 21.5 -17t20.5 -20q1 -1 1 -25q0 -13 -10 -24q-6 -7 -19 -7q-32 0 -35 4q-4 3 -19 9.5t-17 10.5q-1 3 -6 6t-13 6t-12 6q-7 4 -15 10.5t-20 14.5q-44 22 -62 40q-21 14 -33 24.5t-18 18t-10 10.5
q-7 5 -12.5 19.5t-5.5 25.5q0 35 12 50q2 2 10.5 9.5t16 15.5t13.5 16t20 21t28 24l13 12q7 8 38 30q6 4 16 14t17 15q34 13 45 27q12 12 44 12q12 0 25 -12.5t13 -23.5q0 -18 -32 -44q-5 -3 -13 -13.5t-13 -10.5l-5 1q-5 0 -8 -9l-2 -8q-2 -3 -19.5 -9t-23.5 -10
q-11 -8 -25.5 -27t-27.5 -27q-19 -13 -26.5 -22.5t-7.5 -23.5q0 -8 4 -14.5t11 -11.5t9 -8q3 -4 20 -12t21 -14zM407 149q4 -5 10 -9.5t10.5 -7t13 -7t12.5 -6.5q17 -7 45 -29q3 -3 21.5 -17t20.5 -20q1 -1 1 -25q0 -13 -10 -24q-6 -7 -19 -7q-32 0 -35 4q-4 3 -19 9.5
t-17 10.5q-1 3 -6 6t-13 6t-12 6q-7 4 -15 10.5t-20 14.5q-44 22 -62 40q-21 14 -33 24.5t-18 18t-10 10.5q-7 5 -12.5 19.5t-5.5 25.5q0 35 12 50q2 2 10.5 9.5t16 15.5t13.5 16t20 21t28 24l13 12q7 8 38 30q6 4 16.5 14t16.5 15q34 13 45 27q12 12 44 12q12 0 25 -12.5
t13 -23.5q0 -18 -32 -44q-5 -3 -13 -13.5t-13 -10.5l-5 1q-5 0 -8 -9l-2 -8q-2 -3 -19.5 -9t-23.5 -10q-11 -8 -25.5 -27t-27.5 -27q-19 -13 -26.5 -22.5t-7.5 -23.5q0 -8 4 -14.5t11 -11.5t9 -8q3 -4 20 -12t21 -14z" />
    <glyph glyph-name="logicalnot" unicode="&#xac;" horiz-adv-x="456" 
d="M347 311v4q0 10 -2.5 15t-2.5 11v10v11q-12 -2 -36 -2q-2 0 -13.5 1.5t-17.5 1.5t-10 -2q-6 -2 -21 -2q-7 0 -21 0.5t-18 0.5h-48q-24 0 -30 3q-1 1 -6 1t-17.5 -2.5t-16.5 -2.5q-2 -3 -7 -3q-3 0 -10.5 2t-12.5 2q-22 2 -32 12q-6 6 -6 60q0 12 9 18q7 7 20 7l33 -3h5
q10 0 34.5 2t29.5 2q5 -1 11 -1h8q14 -2 46 -2h12q13 0 31.5 0.5t31.5 0.5h17q3 1 10 1q4 0 9 -1h4q2 -1 5 -1q2 0 9.5 0.5t10.5 0.5q9 0 25.5 2t23.5 2q13 0 25 -6q10 -8 10 -29v-13v-10q0 -4 1 -13t1 -14q0 -10 -4 -17q-1 -2 -1 -8q0 -12 7 -33q1 -3 1 -8q0 -3 -2 -10
t-2 -12q-2 -23 -12 -31q-5 -8 -61 -8q-11 0 -17 10q-8 7 -8 20q0 8 5 33z" />
    <glyph glyph-name="registered" unicode="&#xae;" horiz-adv-x="645" 
d="M347 685q2 0 18.5 2t26.5 2q25 0 34 -11q15 -15 55 -32q37 -23 72 -58q46 -50 52 -77q1 -12 10.5 -36.5t9.5 -35.5v-25q0 -24 -2 -43q0 -6 2 -18.5t2 -17.5q0 -13 -7 -26q-5 -9 -17 -39.5t-21 -39.5q-6 -5 -16.5 -27.5t-24.5 -34.5q-12 -9 -28 -24t-25 -21
q-46 -35 -75 -36q-14 0 -38.5 -4t-35.5 -4q-2 0 -6 0.5t-8 0.5q-12 2 -21.5 3t-21.5 2t-22 2q-25 2 -55 11.5t-45 24.5q-7 5 -28 18.5t-35 24t-20 19.5q-28 40 -40 72q-20 49 -20 77q1 6 3 16l3.5 17.5t1.5 14.5t-2 9q-2 18 -2 21q0 16 5 41q1 1 1 3q7 31 29.5 82t50.5 74
q68 56 107 71q52 13 75 13q4 0 8.5 -0.5t6.5 -0.5q20 -10 43 -10zM407 587q-55 23 -94 23q-10 0 -14 -1q-47 -7 -90 -30q-13 -6 -23.5 -16.5t-14 -15.5t-15.5 -24l-12 -20t-9.5 -16t-6.5 -14q-13 -30 -16 -69q-4 -32 -4 -54q0 -8 2 -26q13 -52 48 -88q38 -40 88 -57
q55 -20 69 -20q11 0 82 13h2q2 1 3 1q47 12 68 37q19 17 50 83q26 66 28 103v5q0 40 -20 80q-6 15 -21.5 30t-34.5 24q-11 6 -30.5 26t-34.5 26zM230 556q7 4 12 4q10 0 16 -6l3 -2q11 -7 37 -7q2 0 7 0.5t8 0.5q2 0 7.5 0.5t9.5 0.5q30 0 52 -10q48 -17 53 -46
q1 -6 5.5 -22.5t4.5 -23.5q0 -8 -3 -11q-3 -5 -7 -27t-9 -28q-3 -5 -12 -14t-17 -16t-8 -8q-1 0 2.5 -3.5t10 -8t13 -8.5t12.5 -8q37 -17 37 -37q0 -35 -18 -43q-13 -13 -17 -13q-20 0 -31 18q-7 11 -41 31q-10 6 -14 12t-11 8q-4 1 -10.5 7.5t-8.5 6.5q-5 0 -5 -11
q0 -10 3 -32t3 -30q0 -11 -12.5 -19t-25.5 -8q-27 0 -29 2q-31 15 -31 41q5 35 5 67q0 21 -2 28q-3 14 -3 35.5t-2 29.5q0 2 -0.5 5.5t-0.5 4.5q0 11 3 40.5t3 38.5q0 7 -1 9q-2 8 -2 20q0 24 14 32zM288 459q-3 -12 -3 -21q0 -1 0.5 -3.5t0.5 -4.5q0 -46 6 -48q2 -1 7 -1
q12 0 32 5q21 9 29 23q9 9 9 26v7q-4 25 -22 33q-7 2 -18.5 2.5t-20 1t-9.5 0.5q-1 1 -3.5 -2t-5 -8t-2.5 -10z" />
    <glyph glyph-name="macron" unicode="&#xaf;" horiz-adv-x="302" 
d="M81 797q13 0 38.5 2.5t30.5 2.5q5 -1 11 -1h8h9q3 0 19 1t26 1q35 0 40 -13q7 -5 12 -20t5 -24v-5q-1 -7 -13 -12t-25 -5q-2 0 -22.5 0.5t-32.5 0.5l-22 -1h-8q-26 0 -30 2q-1 1 -6 1q-9 0 -34 -5q-2 -1 -7 -1q-4 0 -11.5 1.5t-11.5 1.5q-21 0 -32 12q-6 6 -6 40
q0 12 9 17q7 8 20 8q6 0 17.5 -2t15.5 -2z" />
    <glyph glyph-name="degree" unicode="&#xb0;" horiz-adv-x="301" 
d="M66 662q24 27 86 30q39 0 59 -12q30 -11 41 -28q27 -33 29 -48q2 -14 2 -35q0 -6 -2.5 -18t-2.5 -19q0 -3 1 -8t1 -9q0 -5 -6 -15.5t-6 -16.5q0 -8 -18 -32q-5 -8 -21 -12.5t-19 -6.5q-5 -6 -13.5 -8.5t-22.5 -5t-22 -4.5q-4 -1 -14 -1q-18 0 -39.5 5t-28.5 10
q-2 2 -12 10.5t-17 15.5t-8 10q-17 28 -17 41q0 1 8 49q0 4 -0.5 13t-0.5 16q0 18 6 30q3 9 7 15.5t7 9.5t10 10.5t13 13.5zM130 607q-4 -2 -14 -20q-13 -23 -13 -27v-6q2 -6 3.5 -20.5t4.5 -18.5q7 -15 28 -18h11q22 0 30 7q18 10 21 33v17q0 17 -5 24q-12 24 -25 28
q-9 3 -23 3t-18 -2z" />
    <glyph glyph-name="plusminus" unicode="&#xb1;" horiz-adv-x="496" 
d="M189 393l-1 5q0 4 -1 16.5t-3 25.5q-6 47 -7 49q-2 8 -2 41q0 4 14 25q5 9 12.5 14.5t11.5 7t19 7.5q10 2 20 2q17 0 33.5 -6t16.5 -19t-3.5 -32t-3.5 -31q0 -7 1 -24.5t1 -25.5q0 -6 -2 -16t-2 -13q0 -14 9 -25q4 -2 13 -2q3 0 13 0.5t29 0.5q7 0 15 -0.5t11.5 -1t8 1
t8.5 4.5q12 9 43 9q24 0 31 -13q8 -12 8 -58q0 -4 -12 -34q-3 -5 -14 -5t-24.5 1.5t-29.5 -0.5q-7 -1 -64 -1q-37 0 -42 -3q1 -13 2.5 -46t3.5 -44q1 -4 1 -51q-2 -12 -25 -23.5t-45 -10.5q-1 0 -4 -0.5t-4 -0.5q-14 0 -28 11.5t-14 20.5q0 2 1 7v4q0 6 3 24t3 30
q0 16 -2.5 28.5t-2.5 18.5v32l-42 -1h-3q-24 0 -41.5 0.5t-18.5 0.5q-10 0 -32 -1q-29 0 -32 17q0 2 -5 12t-5 13q0 11 7.5 32t12.5 24q31 7 46 7q10 0 14 -1q14 -3 39 -3.5t30 -1.5q2 0 0.5 -1t0.5 -1q4 0 9 0.5t9.5 1t8 1t5.5 0.5zM81 75q13 0 38.5 2.5t30.5 2.5
q5 -1 19 -1q1 0 16 -1.5t30 -1.5h12q13 1 31.5 1t31.5 0.5t17 1.5h10q11 0 13 -1q2 -2 5 -2q2 0 9.5 1.5t10.5 1.5q9 0 25.5 0.5t23.5 0.5q18 0 25 -5q10 -6 10 -58v-14q-3 -8 -23 -8h-16q-6 0 -18.5 -2t-35.5 -2q-2 0 -13.5 1t-17.5 1q-8 0 -10 -1q-5 -3 -21 -3q-7 0 -21 1
t-18 1h-88q-22 0 -30 2q-1 1 -6 1q-9 0 -34 -5q-2 -1 -7 -1q-4 0 -11.5 1.5t-11.5 1.5q-23 2 -32 12q-6 11 -6 50q0 12 9 20q7 6 20 6q6 0 17.5 -2t15.5 -2z" />
    <glyph glyph-name="twosuperior" unicode="&#xb2;" horiz-adv-x="286" 
d="M68 551q-24 0 -34 21q-2 5 -2 38q0 6 -0.5 12t-0.5 7q0 21 9 39q3 6 7 20.5t8 19.5q29 37 45 44q26 13 55 13q14 0 33.5 -5.5t27.5 -12.5q31 -23 44 -55q8 -23 8 -58q0 -4 1.5 -14.5t1.5 -14.5q-8 -66 -25 -89q-12 -17 -23 -37q-3 -5 -6 -12t-4.5 -10t-4.5 -7t-8 -8
q-7 -5 -8.5 -6.5t-2 -5.5t-2.5 -8q-6 -13 -33 -42q-9 -11 -16 -17t-11 -10l-20 -26q34 4 48 4q7 -1 15.5 -4t13.5 -3q3 0 8 5l5 5q5 4 14.5 2.5t17.5 -1.5q1 0 9.5 1t11.5 1q12 0 16 -8q2 -3 2 -41q0 -5 -5.5 -15t-9.5 -11q-12 -5 -30 -5q-3 0 -13 2q-31 7 -39 7t-12 -1
q-16 -2 -49 -2q-4 0 -14.5 1t-16.5 1q-7 0 -15 -2q-9 -3 -17 -3q-16 0 -26 4q-12 7 -12 19q0 1 -1 8.5t-1 14t2 8.5q4 6 8.5 10.5t8 9t8.5 13.5q10 17 26 34q4 4 19 20t19 20q13 12 21.5 25.5t13.5 19.5q18 20 24 34q2 5 10 21t12 30q10 31 10 69q0 20 -5 45q-5 22 -26 22
t-32 -17q-10 -14 -12 -32q-1 -4 -1 -14q0 -8 4 -21.5t4 -16.5q0 -10 -18 -22.5t-35 -12.5z" />
    <glyph glyph-name="threesuperior" unicode="&#xb3;" horiz-adv-x="263" 
d="M98 626q-3 -7 -21.5 -12.5t-33.5 -5.5q-8 0 -14.5 7.5t-6.5 15.5q0 4 0.5 17t0.5 20q0 16 7 34t14 25q13 17 29 27q15 9 45 13q4 0 13.5 1t12.5 1q23 0 34 -9q4 -4 19 -11t18 -14q18 -28 20 -57q1 -9 3.5 -18t2.5 -13q0 -3 -3 -14q-18 -46 -18 -47q-10 -18 -24 -27
q-6 -5 -6 -9q0 -3 12.5 -10t14.5 -10q28 -36 31 -52q4 -28 4 -47v-10q0 -2 -1 -20t-3.5 -31.5t-9.5 -23.5q-8 -11 -16.5 -28t-13.5 -24q-4 -6 -10 -10t-14.5 -8.5t-13.5 -7.5q-10 -7 -64 -7q-31 0 -53 14q-30 20 -30 35q0 1 -10 31q-1 3 -1.5 5.5t-1.5 3.5v2q0 13 14 29
q4 5 16 12t17 7q12 0 17 -7q9 -13 9 -35q0 -16 13 -29q10 -10 25 -6q4 1 8 1h5.5t4.5 2.5t7 8.5q19 25 19 36q0 4 1.5 12.5t2.5 19t1 23.5v19t-2 7t-3 6q-9 25 -23 36q-11 9 -16 9h-3q-20 -10 -32 -11q-8 0 -14 15.5t-7 26.5q0 19 11 24q2 1 19 6.5t23 8.5q19 8 27 25l14 35
q1 5 1 18q0 17 -5 30q-14 33 -23 33t-32 -5q-11 -4 -11 -24q0 -3 -1 -8t-1 -7q0 -5 5.5 -13.5t5.5 -12.5q0 -5 -5 -18z" />
    <glyph glyph-name="acute" unicode="&#xb4;" horiz-adv-x="206" 
d="M187 814q-3 -8 -14.5 -16t-29 -16t-19.5 -9q-7 -2 -14.5 -12t-15.5 -14q-6 -3 -17.5 -10t-17.5 -9q-2 0 -9.5 -3.5t-13.5 -3.5q-13 0 -19.5 14t-2.5 27q1 10 20.5 27.5t19.5 18.5q3 4 55 57q12 21 31 21q14 0 26 -10q5 -3 14.5 -22t9.5 -27q0 -5 -3 -13z" />
    <glyph glyph-name="mu" unicode="&#xb5;" horiz-adv-x="443" 
d="M298 41q-10 -5 -18 -18.5t-22 -18.5q-4 -1 -13 -5.5t-14.5 -6.5t-16.5 -4t-23 -2q-6 0 -11.5 1t-8.5 2.5t-9.5 5t-11.5 5.5q0 -1 0.5 -3.5t0.5 -4.5q0 -4 -1.5 -12t-1.5 -13q0 -4 2.5 -14t2.5 -12t-0.5 -7t-0.5 -8q0 -6 1.5 -15.5t1.5 -25.5q0 -19 -2.5 -30t-10 -16
t-14.5 -6t-22 -1q-60 0 -62 11q-2 9 -9.5 19t-7.5 15l3 11q2 12 4.5 32.5t2.5 43.5q0 38 -2.5 109t-2.5 75q0 37 1 37q-1 10 -3.5 22.5t-2.5 19.5q0 13 1.5 32t1.5 27q0 4 -1 12t-1 12q0 12 3 42t3 43q0 7 -2.5 21.5t-2.5 20.5v97q-3 15 -3 33q0 117 43 117q13 0 29 -11
q6 -4 17.5 -10.5t14.5 -9t8 -9t6 -14t1 -20.5q0 -5 2 -25.5t2 -29.5t1 -26t1 -22l-1 -6q0 -6 -1 -16t-2.5 -22.5t-2 -27t-0.5 -25.5q0 -7 1.5 -19.5t1.5 -18.5q0 -12 -3 -31t-3 -26q0 -2 3.5 -35t3.5 -56q0 -6 -0.5 -12t-0.5 -7q0 -15 4 -45q2 -12 9.5 -22.5t9.5 -14.5
q6 -15 8 -19.5t6.5 -11.5t8.5 -8.5t11 -1.5h11.5t10 1t11 3t9.5 6t12 10q10 11 17.5 22.5t12 27t7.5 25t4 30.5t1 26.5v30.5v27q0 30 8.5 43t8.5 17q0 13 -7.5 32.5t-7.5 30.5q0 10 3 31.5t3 33.5q0 44 -10 122v44q0 41 80 41q27 0 34 -27t7 -101q0 -12 -2.5 -34t-2.5 -33
q0 -7 1 -19.5t1 -16.5q0 -13 -2.5 -61t-2.5 -57q0 -2 0.5 -8t0.5 -10q0 -97 -8 -150q-3 -19 3 -45t1 -34q-5 -7 -5 -11.5t3 -11.5t4 -14q7 -56 -4 -61q-7 -3 -48 -3t-50 3q-5 2 -7.5 14t-2.5 24v11z" />
    <glyph glyph-name="paragraph" unicode="&#xb6;" horiz-adv-x="504" 
d="M457 592q-9 -7 -9 -41q0 -25 4 -37q3 -10 3 -36q0 -14 -1 -39t-1 -29q0 -8 9.5 -18t12.5 -30q0 -13 -15.5 -23t-17.5 -13l-5 -7q0 -1 1.5 -3t3.5 -7.5t2 -12.5q0 -21 1 -54q0 -5 -1.5 -16t-1.5 -17q1 -7 4 -18.5t3 -15.5q0 -5 -1 -25t-1 -33q0 -47 2 -65q8 -75 8 -77
q0 -10 -1 -14q-3 -16 -27 -25t-49 -11q-26 0 -29 43q-1 8 -1 27q0 23 5 40q1 9 1 41v37q0 21 2 49q1 9 1 25q0 11 -1.5 32t-1.5 33q2 18 2 40q0 36 -5 34q-2 -1 -23 -1t-29 -3q-14 -3 -14 -18q0 -8 2 -41t2 -44q0 -48 8 -75q2 -16 2 -19q0 -5 -0.5 -15t-0.5 -15q0 -10 2 -32
q2 -15 7 -31.5t6 -30.5v-5q0 -29 -26 -59q-7 -7 -30 -7q-20 0 -31 13q-18 21 -18 45q0 19 2 39q1 9 1 37q0 24 1 32v4q0 6 -1.5 18.5t-1.5 17.5q0 8 3 13q4 5 4 30q0 11 -2.5 36t-2.5 37q-6 69 -17 69q-3 0 -4 -1q-2 -2 -12 -2q-12 0 -29 4.5t-24 5.5q-14 1 -61 14
q-38 16 -50 62q-1 7 -5 38t-6 42v6q0 8 19 71l10 26q6 16 25.5 29.5t38 20t46.5 14t34 9.5q17 6 32 6q6 0 14 -1t13 -1h5q8 1 20 6.5t20 5.5q5 0 13 -2q9 -4 18 -4t26 4t26 4q12 0 35.5 0.5t33.5 0.5h15q30 0 34 -15q4 -8 4 -17q0 -1 2 -16.5t-1 -17.5q-5 -9 -9 -12.5
t-11.5 -5t-10.5 -3.5zM287 394q0 -6 7 -6q5 0 14.5 1.5t13.5 1.5h3q5 0 10 -0.5t10 -0.5q12 0 16 6q2 6 2 14q0 6 -1.5 24t-1.5 28q0 14 1 60t1 59q0 19 -3.5 26t-13.5 11q-3 1 -9 1q-28 0 -45 -15q-7 -4 -7 -17q0 -5 1.5 -14.5t1.5 -12.5q0 -26 4 -48q0 -4 0.5 -10.5
t0.5 -8.5q0 -5 -2.5 -15t-2.5 -16q-4 -11 -4 -25q0 -10 2 -25t2 -18z" />
    <glyph glyph-name="periodcentered" unicode="&#xb7;" horiz-adv-x="191" 
d="M55 411q17 14 51 14q22 -8 52 -39q9 -8 9 -25t-10 -34q-7 -12 -28.5 -21.5t-27.5 -16.5q-8 -9 -29 -9q-14 0 -32 9q-21 21 -21 54q0 23 36 68z" />
    <glyph glyph-name="cedilla" unicode="&#xb8;" horiz-adv-x="204" 
d="M121 -8q0 17 4 17q1 0 5 0.5t7 0.5q29 0 29 -13q0 -7 -1 -14.5t-1 -9.5q0 -4 2 -8q3 -5 3 -13q0 -4 -1 -13t-1 -12v-12q0 -12 -11 -15q-3 -2 -15 -2t-16 4q-5 6 -6.5 13t-6.5 8q-5 0 -10 -2.5t-9.5 -7.5t-6.5 -6q-6 -6 -6 -27v-4q0 -24 15 -30q21 -7 26 -7q2 0 2 2
q3 2 8 2h3q6 0 10 3q5 8 24 8q1 0 2.5 -0.5t3.5 -0.5q21 -2 21 -25q0 -12 -9.5 -23.5t-25.5 -13.5q-2 0 -4 -1h-2q-17 -4 -33 -4q-10 0 -14 2q-6 3 -22 4.5t-20 3.5q-33 20 -44 35q-11 18 -11 35v5q1 7 2.5 22.5t3.5 22.5l1 1l1 1q0 1 1 2.5t1 3.5q4 18 17 29q6 7 22 13.5
t18 7.5q20 4 32 4q2 0 4.5 -0.5t3.5 -0.5q4 0 4 15z" />
    <glyph glyph-name="onesuperior" unicode="&#xb9;" horiz-adv-x="155" 
d="M5 683q0 5 7.5 12t18 14.5t14.5 11.5q9 11 23 30q14 18 29 18q3 0 4 -1q28 -12 28 -33q0 -39 -3 -68q0 -6 3 -29.5t0 -34.5q-4 -32 -4 -35q0 -8 -0.5 -16t-1 -13t-0.5 -7q2 -6 2 -18q0 -3 2.5 -20.5t1.5 -29.5q-4 -52 -4 -57q0 -3 0.5 -7t0.5 -6q0 -9 -1 -20.5t0 -17.5
q7 -33 7 -51q-1 -19 -17 -31q-22 -15 -50 -15q-18 0 -23 23q-2 13 -2 35q0 4 1 6q0 6 2.5 19t2.5 20q0 6 -0.5 12.5t-0.5 8.5q0 8 -1 33t0 32q0 6 -2 31t-2 39q0 5 0.5 13t0.5 11q2 14 2 20q0 11 -2 29t-2 24v22q0 1 -0.5 3t-0.5 3q0 7 -5 7q-1 0 -6 -1.5t-8 -1.5
q-6 1 -10 13t-4 23z" />
    <glyph glyph-name="ordmasculine" unicode="&#xba;" horiz-adv-x="318" 
d="M148 753q11 3 31 3q22 0 31 -3q8 -1 41 -22q8 -4 12.5 -9t7.5 -7q4 -3 6 -6.5t4.5 -8.5t4.5 -8t5 -8l6 -10t7 -12q6 -10 6 -30q0 -5 1 -10q1 -12 4 -25t4 -17q1 -11 1 -46q0 -8 -2.5 -35t-2.5 -35q0 -33 -8 -68q-5 -26 -7 -33q-6 -20 -14 -36q-3 -6 -11 -14.5t-10 -13.5
q-2 -4 -12.5 -13.5t-14.5 -15.5q-6 -10 -29 -22t-45 -12q-56 0 -68 12q-10 12 -34 30q-7 6 -17 24t-10 28q0 11 -7 31.5t-7 31.5q0 9 -2 14q-3 8 -3 28.5t-1 28.5q-1 5 -1 12q0 8 1.5 23t1.5 22q0 24 8 52q3 12 4.5 26t3.5 21q1 6 1.5 11.5t1 8t1.5 5.5t4 6q7 8 8 14
q7 28 24 47q12 13 24.5 21.5t19 11t18 5t13.5 3.5zM170 675q-23 0 -31 -22q-11 -28 -11 -29q-5 -35 -5 -49q0 -2 0.5 -7t0.5 -9q0 -8 -1 -12q-6 -14 -8 -42q-2 -4 -2 -7q0 -4 1 -10.5t1 -9.5q0 -1 -0.5 -4.5t-0.5 -6.5t0.5 -9t0.5 -8t-0.5 -6.5t-0.5 -8.5q0 -5 1.5 -12.5
t1.5 -11.5q2 -28 3 -31q2 -5 5 -15.5t3 -11.5q0 -3 7 -15q10 -20 30 -20q19 0 33 18q10 12 15 25q5 12 5 38q0 5 2.5 11.5t2.5 11.5q0 2 -1 7t-1 8q0 2 1 6.5t1 7.5q9 33 9 36q0 5 -1 8q-2 8 -2 16q0 3 0.5 8.5t0.5 8.5q0 2 -0.5 6t-0.5 8q0 2 0.5 9t0.5 13q0 2 -0.5 7
t-0.5 9v16q0 7 -2 14q-3 14 -7 27q-1 8 -10 20q-17 18 -40 18z" />
    <glyph glyph-name="guillemotright" unicode="&#xbb;" horiz-adv-x="555" 
d="M372 149q4 6 21 14t20 12q2 3 9 8t11 11.5t4 14.5q0 14 -7.5 23.5t-26.5 22.5q-13 8 -27.5 27t-25.5 27q-6 4 -23.5 10t-19.5 9l-3 8q-2 9 -7 9q-2 -1 -5 -1q-5 0 -13 10.5t-13 13.5q-32 26 -32 44q0 11 13 23.5t25 12.5q32 0 44 -12q11 -14 45 -27q7 -5 17 -15t16 -14
q31 -22 38 -30l14 -12q13 -11 27 -24t20 -21t13.5 -16t16 -15.5t10.5 -9.5q12 -15 12 -50q0 -11 -5.5 -25.5t-12.5 -19.5q-4 -3 -10 -10.5t-18 -18t-33 -24.5q-18 -18 -62 -40q-12 -8 -20 -14.5t-15 -10.5q-4 -3 -12 -6t-13 -6t-6 -6q-2 -4 -17 -10.5t-19 -9.5q-3 -4 -35 -4
q-13 0 -19 7q-10 11 -10 24q0 24 1 25q2 6 20.5 20t21.5 17q28 22 45 29q4 2 12.5 6.5t13 7t10.5 7t10 9.5zM142 149q4 6 21 14t20 12q2 3 9 8t11 11.5t4 14.5q0 14 -7.5 23.5t-26.5 22.5q-13 8 -27.5 27t-25.5 27q-6 4 -23.5 10t-19.5 9l-3 8q-2 9 -7 9q-2 -1 -5 -1
q-5 0 -13 10.5t-13 13.5q-32 26 -32 44q0 11 13 23.5t25 12.5q32 0 44 -12q11 -14 45 -27q7 -5 17 -15t16 -14q31 -22 38 -30l14 -12q13 -11 27 -24t20 -21t13.5 -16t16 -15.5t10.5 -9.5q12 -15 12 -50q0 -11 -5.5 -25.5t-12.5 -19.5q-4 -3 -10 -10.5t-18 -18t-33 -24.5
q-18 -18 -62 -40q-12 -8 -20 -14.5t-15 -10.5q-4 -3 -12 -6t-13 -6t-6 -6q-2 -4 -17 -10.5t-19 -9.5q-3 -4 -35 -4q-13 0 -19 7q-10 11 -10 24q0 24 1 25q2 6 20.5 20t21.5 17q28 22 45 29q5 2 13 6.5t12.5 7t10.5 7t10 9.5z" />
    <glyph glyph-name="onequarter" unicode="&#xbc;" horiz-adv-x="645" 
d="M390 484q16 16 31 16q27 0 30 -3q20 -22 20 -44v-16q0 -22 -8 -35q-3 -4 -3 -11q0 -5 2 -13t2 -12q0 -3 -1 -5q-7 -26 -11 -36q-3 -7 -6 -21.5t-5 -19.5q-1 -3 -3.5 -9.5t-2.5 -8.5q0 -4 5 -5q20 -2 33 -2q7 0 20 3t16 3l7 1q20 0 20 7q2 8 2 59q0 18 -1 38.5t-1 29.5v33
q0 22 1 29q1 14 21 30q12 8 48 8q8 0 10 -3q2 -6 2 -19q0 -15 -2 -31q-2 -15 -2 -101q-2 -27 -4 -83q0 -4 8 -22t8 -20q-2 -14 -11.5 -20t-9.5 -11q1 -8 1 -66q0 -24 3 -46q1 -4 1 -10q0 -5 -0.5 -10.5t-1.5 -16t-2 -20.5q0 -15 -4 -18q-6 -5 -21.5 -11t-21.5 -6
q-23 0 -27 20q-1 4 -3.5 16t-2.5 18q0 5 2 11q5 10 5 31q0 1 0.5 4t0.5 9.5v14.5q0 18 -1 33q0 7 1 16t1 13q0 7 -1 8q-1 4 -5.5 5t-14 1.5t-15.5 2.5t-13 2q-4 0 -15 -2t-17 -2q-5 -1 -49 -3q-2 0 -17.5 -1.5t-22.5 -1.5t-15 8t-11 17q-9 25 -9 32q0 5 2 7q1 1 9.5 7.5
t14.5 13.5t9 15q1 4 12.5 34.5t12.5 38.5q0 8 2 19.5t2 19.5q1 17 1 37q0 7 -4 23t-4 22t3 9zM5 683q0 5 7.5 12t18 14.5t14.5 11.5q9 11 23 30q14 18 29 18q3 0 4 -1q28 -12 28 -33q0 -39 -3 -68q0 -6 3 -29.5t0 -34.5q-4 -32 -4 -35q0 -8 -0.5 -16t-1 -13t-0.5 -7
q2 -6 2 -18q0 -3 2.5 -20.5t1.5 -29.5q-4 -52 -4 -57q0 -3 0.5 -7t0.5 -6q0 -9 -1 -20.5t0 -17.5q7 -33 7 -51q-1 -19 -17 -31q-22 -15 -50 -15q-18 0 -23 23q-2 13 -2 35q0 4 1 6q0 6 2.5 19t2.5 20q0 6 -0.5 12.5t-0.5 8.5q0 8 -1 33t0 32q0 6 -2 31t-2 39q0 5 0.5 13
t0.5 11q2 14 2 20q0 11 -2 29t-2 24v22q0 1 -0.5 3t-0.5 3q0 7 -5 7q-1 0 -6 -1.5t-8 -1.5q-6 1 -10 13t-4 23zM315 676q8 26 12 44q12 41 22 44h3q3 1 5 1q43 0 51 -11q12 -18 12 -23q0 -2 -0.5 -4t-1 -3.5l-1.5 -4.5t-2 -5q-3 -10 -4.5 -19t-3.5 -15t-7 -13
q-6 -8 -9.5 -16.5t-7 -22t-6.5 -21.5q-15 -49 -25 -63q-4 -6 -11 -31.5t-16 -34.5q-6 -9 -21.5 -50t-24.5 -52q-10 -12 -14 -34.5t-8 -29.5q-4 -8 -11.5 -24t-13 -26.5t-9.5 -14.5q-9 -5 -11 -27q-2 -25 -12 -37q-7 -4 -23 -71q-1 -10 -15.5 -45.5t-16.5 -48.5
q-4 -27 -60 -33q-14 0 -26 9t-12 15q0 5 8 29t13 30q21 35 24 55q10 35 20 56q5 6 11 21t9 19q7 10 16 39q3 10 12 17t11 13t4 17.5t4.5 20t6.5 13.5q6 6 31 74l25 69q3 7 8.5 19t9.5 21.5t7 17.5q5 19 18 53q1 4 8 15.5t8 12.5q0 1 4 22t10 33z" />
    <glyph glyph-name="onehalf" unicode="&#xbd;" horiz-adv-x="592" 
d="M5 683q0 5 7.5 12t18 14.5t14.5 11.5q9 11 23 30q14 18 29 18q3 0 4 -1q28 -12 28 -33q0 -39 -3 -68q0 -6 3 -29.5t0 -34.5q-4 -32 -4 -35q0 -8 -0.5 -16t-1 -13t-0.5 -7q2 -6 2 -18q0 -3 2.5 -20.5t1.5 -29.5q-4 -52 -4 -57q0 -3 0.5 -7t0.5 -6q0 -9 -1 -20.5t0 -17.5
q7 -33 7 -51q-1 -19 -17 -31q-22 -15 -50 -15q-18 0 -23 23q-2 13 -2 35q0 4 1 6q0 6 2.5 19t2.5 20q0 6 -0.5 12.5t-0.5 8.5q0 8 -1 33t0 32q0 6 -2 31t-2 39q0 5 0.5 13t0.5 11q2 14 2 20q0 11 -2 29t-2 24v22q0 1 -0.5 3t-0.5 3q0 7 -5 7q-1 0 -6 -1.5t-8 -1.5
q-6 1 -10 13t-4 23zM368 286q-24 0 -34 21q-2 5 -2 38v13l-1 6q0 21 9 39q3 6 7 20.5t8 19.5q29 37 45 44q26 13 55 13q14 0 33.5 -5.5t27.5 -12.5q31 -23 44 -55q8 -23 8 -58q0 -4 1.5 -14.5t1.5 -14.5q-8 -66 -25 -89q-12 -17 -23 -37q-3 -5 -6 -12t-4.5 -10t-4.5 -7
t-8 -8q-7 -5 -8.5 -6.5t-2 -5.5t-2.5 -8q-6 -13 -33 -42q-9 -11 -16 -17t-11 -10l-20 -26q34 4 48 4q7 -1 15.5 -4t13.5 -3q3 0 8 5l5 5q5 4 14.5 2.5t17.5 -1.5q1 0 9.5 1t11.5 1q12 0 16 -8q2 -4 2 -41q0 -5 -5.5 -15t-9.5 -11q-12 -5 -30 -5q-3 0 -13 2q-32 7 -39 7
q-8 0 -12 -1q-16 -2 -49 -2q-4 0 -14.5 1t-16.5 1q-7 0 -15 -2q-9 -3 -17 -3q-16 0 -26 4q-12 7 -12 19q0 1 -1 8.5t-1 14t2 8.5q4 6 8.5 10.5t8 9t8.5 13.5q10 17 26 34q4 4 19 20t19 20q13 12 21.5 25.5t13.5 19.5q18 20 24 34q2 5 10 21t12 30q10 31 10 69q0 20 -5 45
q-5 22 -26 22t-32 -17q-10 -14 -12 -32q-1 -4 -1 -14q0 -8 4 -21.5t4 -16.5q0 -10 -18 -22.5t-35 -12.5zM315 676q8 26 12 44q12 41 22 44h3q3 1 5 1q43 0 51 -11q12 -18 12 -23q0 -2 -0.5 -4t-1 -3.5l-1.5 -4.5t-2 -5q-3 -10 -4.5 -19t-3.5 -15t-7 -13q-6 -8 -9.5 -16.5
t-7 -22t-6.5 -21.5q-15 -49 -25 -63q-4 -6 -11 -31.5t-16 -34.5q-6 -9 -21.5 -50t-24.5 -52q-10 -12 -14 -34.5t-8 -29.5q-4 -8 -11.5 -24t-13 -26.5t-9.5 -14.5q-9 -5 -11 -27q-2 -25 -12 -37q-7 -4 -23 -71q-1 -10 -15.5 -45.5t-16.5 -48.5q-4 -27 -60 -33q-14 0 -26 9
t-12 15q0 5 8 29t13 30q21 35 24 55q10 35 20 56q5 6 11 21t9 19q7 10 16 39q3 10 12 17t11 13t4 17.5t4.5 20t6.5 13.5q6 6 31 74l25 69q3 7 8.5 19t9.5 21.5t7 17.5q5 19 18 53q1 4 8 15.5t8 12.5q0 1 4 22t10 33z" />
    <glyph glyph-name="threequarters" unicode="&#xbe;" horiz-adv-x="712" 
d="M98 626q-3 -7 -21.5 -12.5t-33.5 -5.5q-8 0 -14.5 7.5t-6.5 15.5q0 4 0.5 17t0.5 20q0 16 7 34t14 25q13 17 29 27q15 9 45 13q4 0 13.5 1t12.5 1q23 0 34 -9q4 -4 19 -11t18 -14q18 -28 20 -57q1 -9 3.5 -18t2.5 -13q0 -3 -3 -14q-18 -46 -18 -47q-10 -18 -24 -27
q-6 -5 -6 -9q0 -3 12.5 -10t14.5 -10q28 -36 31 -52q4 -28 4 -47v-10q0 -2 -1 -20t-3.5 -31.5t-9.5 -23.5q-8 -11 -16.5 -28t-13.5 -24q-4 -6 -10 -10t-14.5 -8.5t-13.5 -7.5q-10 -7 -64 -7q-31 0 -53 14q-30 20 -30 35q0 1 -10 31q-1 3 -1.5 5.5t-1.5 3.5v2q0 13 14 29
q4 5 16 12t17 7q12 0 17 -7q9 -13 9 -35q0 -16 13 -29q10 -10 25 -6q4 1 8 1h5.5t4.5 2.5t7 8.5q19 25 19 36q0 4 1.5 12.5t2.5 19t1 23.5v19t-2 7t-3 6q-9 25 -23 36q-11 9 -16 9h-3q-20 -10 -32 -11q-8 0 -14 15.5t-7 26.5q0 19 11 24q2 1 19 6.5t23 8.5q19 8 27 25l14 35
q1 5 1 18q0 17 -5 30q-14 33 -23 33t-32 -5q-11 -4 -11 -24q0 -3 -1 -8t-1 -7q0 -5 5.5 -13.5t5.5 -12.5q0 -5 -5 -18zM415 676q8 26 12 44q12 41 22 44h3q3 1 5 1q43 0 51 -11q12 -18 12 -23q0 -2 -0.5 -4t-1 -3.5l-1.5 -4.5t-2 -5q-3 -10 -4.5 -19t-3.5 -15t-7 -13
q-6 -8 -9.5 -16.5t-7 -22t-6.5 -21.5q-15 -49 -25 -63q-4 -6 -11 -31.5t-16 -34.5q-6 -9 -21.5 -50t-24.5 -52q-10 -12 -14 -34.5t-8 -29.5q-4 -8 -11.5 -24t-13 -26.5t-9.5 -14.5q-9 -5 -11 -27q-2 -25 -12 -37q-7 -4 -23 -71q-1 -10 -15.5 -45.5t-16.5 -48.5
q-4 -27 -60 -33q-14 0 -26 9t-12 15q0 5 8 29t13 30q21 35 24 55q10 35 20 56q5 6 11 21t9 19q7 10 16 39q3 10 12 17t11 13t4 17.5t4.5 20t6.5 13.5q6 6 31 74l25 69q3 7 8.5 19t9.5 21.5t7 17.5q5 19 18 53q1 4 8 15.5t8 12.5q0 1 4 22t10 33zM462 484q16 16 31 16
q27 0 30 -3q20 -22 20 -44v-16q0 -22 -8 -35q-3 -4 -3 -11q0 -5 2 -13t2 -12q0 -3 -1 -5q-7 -26 -11 -36q-3 -7 -6 -21.5t-5 -19.5q-1 -3 -3.5 -9.5t-2.5 -8.5q0 -4 5 -5q20 -2 33 -2q7 0 20 3t16 3l7 1q20 0 20 7q2 8 2 59q0 18 -1 38.5t-1 29.5v33q0 22 1 29q1 14 21 30
q12 8 48 8q8 0 10 -3q2 -6 2 -19q0 -15 -2 -31q-2 -15 -2 -101q-2 -27 -4 -83q0 -4 8 -22t8 -20q-2 -14 -11.5 -20t-9.5 -11q1 -8 1 -66q0 -24 3 -46q1 -4 1 -10q0 -5 -0.5 -10.5t-1.5 -16t-2 -20.5q0 -15 -4 -18q-6 -5 -21.5 -11t-21.5 -6q-23 0 -27 20q-1 4 -3.5 16
t-2.5 18q0 5 2 11q5 10 5 31q0 1 0.5 4t0.5 9.5v14.5q0 18 -1 33q0 7 1 16t1 13q0 7 -1 8q-1 4 -5.5 5t-14 1.5t-15.5 2.5t-13 2q-4 0 -15 -2t-17 -2q-5 -1 -49 -3q-2 0 -17.5 -1.5t-22.5 -1.5t-15 8t-11 17q-9 25 -9 32q0 5 2 7q1 1 9.5 7.5t14.5 13.5t9 15q1 4 12.5 34.5
t12.5 38.5q0 8 2 19.5t2 19.5q1 17 1 37q0 7 -4 23t-4 22t3 9z" />
    <glyph glyph-name="questiondown" unicode="&#xbf;" horiz-adv-x="345" 
d="M254 275q-16 0 -27 -13t-11 -26t12 -55q8 -28 -4 -73q-5 -17 -18.5 -31t-26.5 -14t-21.5 5.5t-12 11t-9.5 19.5t-10 21q-7 12 -9 20.5t-2.5 19t-2.5 19.5q-2 19 -2 22.5t4 23t6 36.5q3 26 7 33.5t5 19.5q1 9 5.5 16.5t8.5 11t12.5 8.5t10.5 7q15 10 53 35q27 17 43 46
q16 31 12 80q-2 18 -20 27.5t-39 11.5q-43 4 -51 -14q-11 -23 -8.5 -41.5t-0.5 -24.5q-10 -23 -36 -39q-6 -4 -20.5 -11.5t-25.5 -14.5t-17 -13q-7 -7 -12.5 -18t-13 -28t-9.5 -21q-20 -42 -20 -104q0 -96 10 -114q6 -10 17 -35.5t16 -36.5t13.5 -19t21.5 -17t17 -12
q17 -14 92 -14q16 0 47 11t39 25q16 28 30 45q12 15 20 51q2 8 2.5 32t3.5 37q8 32 -6 71q-8 23 -73 23zM245 605q-17 -14 -51 -14q-22 8 -52 39q-9 8 -9 25t10 34q7 12 28.5 21.5t27.5 16.5q8 9 29 9q14 0 32 -9q21 -21 21 -54q0 -23 -36 -68z" />
    <glyph glyph-name="Agrave" unicode="&#xc0;" horiz-adv-x="514" 
d="M99 -1q-2 0 -4 -0.5t-3 -0.5q-5 0 -9 3t-8 3q-19 0 -19 16q0 7 -1.5 16.5t-1.5 17.5t-1 20.5t-1 21.5q0 31 4 40q2 4 2 7t-8 24q-18 49 -18 50q0 2 -0.5 7.5t-0.5 8.5q0 11 5 15q3 2 13 4t12 5q1 1 1 6q0 2 -1.5 16t-1.5 27q0 44 6 50q3 3 3 16v122q0 10 3 25v5q1 3 1 11
q0 5 -1 17t-1 17q0 15 5 21q5 7 8.5 21t7.5 21q25 37 25 43q0 8 5.5 15.5t10 11t14.5 10t12 8.5q8 6 27 14t22 11q6 5 33.5 11t43.5 6q47 0 75 -17q22 -14 49 -41q33 -33 42 -66q16 -50 16 -79q0 -4 1.5 -29t1.5 -36q0 -8 -1 -11q-4 -11 -4 -45q0 -25 2 -37q2 -14 2 -86
q0 -30 4 -58q2 -16 2 -30q0 -17 -2 -25q-8 -45 -8 -54v-5q4 -24 4 -50q0 -10 0.5 -29t0.5 -24q0 -12 -5 -28.5t-13 -17.5q-14 -2 -36 -2q-39 0 -55 2q-21 4 -24 24v27q0 13 -1 21q0 2 -2.5 13.5t-2.5 17.5q0 11 5 16q1 1 5 3.5t5 6t1 12.5q0 6 1.5 12t1.5 7q0 5 -14 5
q-9 0 -16 1t-16 1q-4 0 -23 3.5t-32 3.5q-12 0 -19.5 -2.5t-18.5 -2.5q-14 0 -21 -7q-6 -6 -9 -10t-4.5 -9t-2 -8t-1 -11.5t-1.5 -14.5q0 -5 -1.5 -16t-1.5 -23q0 -9 3 -17.5t3 -13.5q0 -6 -1 -10q-1 -6 -9 -10t-15.5 -5.5t-18.5 -3t-12 -1.5t-3 -1h-1q-1 -1 -2 -1t-3 -1h-4
q-4 -1 -5 -1zM185 276q2 -11 10 -11q1 0 5.5 0.5t9.5 0.5q9 0 20 2.5t17 2.5q4 0 8 0.5t9 0.5q7 0 22.5 -4.5t18.5 -4.5q9 0 12 3.5t7 3.5q8 0 27 14q3 3 3 6q0 6 -2 14.5t-2 15.5q0 8 4 19q3 10 13 10q3 0 4 7q0 4 -9 4q-8 0 -11 5q-6 11 -6 34q0 9 2 19q2 8 2 14
q0 5 -1 15.5t-1 16.5v13q0 11 -2.5 32.5t-2.5 25.5q0 6 -3.5 23.5t-3.5 31.5q0 8 -0.5 14.5t-3.5 11.5t-4.5 8t-7 6.5t-7 4.5t-9.5 4.5t-10 4.5q-4 2 -16 2q-13 0 -44 -13q-9 -4 -18 -17q-14 -20 -19 -35q-3 -8 -3.5 -21t-4.5 -23q-4 -11 -4 -19q0 -1 4 -33q1 -6 1 -13
q0 -4 -1 -12t-1 -16v-21q0 -12 -3 -26t-3 -24q0 -11 -2 -26t-2 -32q0 -12 1.5 -18.5t3.5 -11t3 -9.5zM168 886q-3 8 -3 13q0 8 9.5 27t14.5 22q13 10 26 10q19 0 31 -21q53 -53 55 -57q1 -1 20 -18.5t20 -27.5q4 -13 -2.5 -27t-19.5 -14q-6 0 -13.5 3.5t-9.5 3.5
q-6 2 -17.5 9t-17.5 10q-8 4 -15.5 14t-14.5 12q-2 1 -19.5 9t-29 16t-14.5 16z" />
    <glyph glyph-name="Aacute" unicode="&#xc1;" horiz-adv-x="514" 
d="M99 -1q-2 0 -4 -0.5t-3 -0.5q-5 0 -9 3t-8 3q-19 0 -19 16q0 7 -1.5 16.5t-1.5 17.5t-1 20.5t-1 21.5q0 31 4 40q2 4 2 7t-8 24q-18 49 -18 50q0 2 -0.5 7.5t-0.5 8.5q0 11 5 15q3 2 13 4t12 5q1 1 1 6q0 2 -1.5 16t-1.5 27q0 44 6 50q3 3 3 16v122q0 10 3 25v5q1 3 1 11
q0 5 -1 17t-1 17q0 15 5 21q5 7 8.5 21t7.5 21q25 37 25 43q0 8 5.5 15.5t10 11t14.5 10t12 8.5q8 6 27 14t22 11q6 5 33.5 11t43.5 6q47 0 75 -17q22 -14 49 -41q33 -33 42 -66q16 -50 16 -79q0 -4 1.5 -29t1.5 -36q0 -8 -1 -11q-4 -11 -4 -45q0 -25 2 -37q2 -14 2 -86
q0 -30 4 -58q2 -16 2 -30q0 -17 -2 -25q-8 -45 -8 -54v-5q4 -24 4 -50q0 -10 0.5 -29t0.5 -24q0 -12 -5 -28.5t-13 -17.5q-14 -2 -36 -2q-39 0 -55 2q-21 4 -24 24v27q0 13 -1 21q0 2 -2.5 13.5t-2.5 17.5q0 11 5 16q1 1 5 3.5t5 6t1 12.5q0 6 1.5 12t1.5 7q0 5 -14 5
q-9 0 -16 1t-16 1q-4 0 -23 3.5t-32 3.5q-12 0 -19.5 -2.5t-18.5 -2.5q-14 0 -21 -7q-6 -6 -9 -10t-4.5 -9t-2 -8t-1 -11.5t-1.5 -14.5q0 -5 -1.5 -16t-1.5 -23q0 -9 3 -17.5t3 -13.5q0 -6 -1 -10q-1 -6 -9 -10t-15.5 -5.5t-18.5 -3t-12 -1.5t-3 -1h-1q-1 -1 -2 -1t-3 -1h-4
q-4 -1 -5 -1zM185 276q2 -11 10 -11q1 0 5.5 0.5t9.5 0.5q9 0 20 2.5t17 2.5q4 0 8 0.5t9 0.5q7 0 22.5 -4.5t18.5 -4.5q9 0 12 3.5t7 3.5q8 0 27 14q3 3 3 6q0 6 -2 14.5t-2 15.5q0 8 4 19q3 10 13 10q3 0 4 7q0 4 -9 4q-8 0 -11 5q-6 11 -6 34q0 9 2 19q2 8 2 14
q0 5 -1 15.5t-1 16.5v13q0 11 -2.5 32.5t-2.5 25.5q0 6 -3.5 23.5t-3.5 31.5q0 8 -0.5 14.5t-3.5 11.5t-4.5 8t-7 6.5t-7 4.5t-9.5 4.5t-10 4.5q-4 2 -16 2q-13 0 -44 -13q-9 -4 -18 -17q-14 -20 -19 -35q-3 -8 -3.5 -21t-4.5 -23q-4 -11 -4 -19q0 -1 4 -33q1 -6 1 -13
q0 -4 -1 -12t-1 -16v-21q0 -12 -3 -26t-3 -24q0 -11 -2 -26t-2 -32q0 -12 1.5 -18.5t3.5 -11t3 -9.5zM337 868q-3 -8 -14.5 -16t-29 -16t-19.5 -9q-7 -2 -14.5 -12t-15.5 -14q-6 -3 -17.5 -10t-17.5 -9q-2 0 -9.5 -3.5t-13.5 -3.5q-13 0 -19.5 14t-2.5 27q1 10 20.5 27.5
t19.5 18.5q2 4 55 57q12 21 31 21q14 0 26 -10q5 -3 14.5 -22t9.5 -27q0 -5 -3 -13z" />
    <glyph glyph-name="Acircumflex" unicode="&#xc2;" horiz-adv-x="514" 
d="M99 -1q-2 0 -4 -0.5t-3 -0.5q-5 0 -9 3t-8 3q-19 0 -19 16q0 7 -1.5 16.5t-1.5 17.5t-1 20.5t-1 21.5q0 31 4 40q2 4 2 7t-8 24q-18 49 -18 50q0 2 -0.5 7.5t-0.5 8.5q0 11 5 15q3 2 13 4t12 5q1 1 1 6q0 2 -1.5 16t-1.5 27q0 44 6 50q3 3 3 16v122q0 10 3 25v5q1 3 1 11
q0 5 -1 17t-1 17q0 15 5 21q5 7 8.5 21t7.5 21q25 37 25 43q0 8 5.5 15.5t10 11t14.5 10t12 8.5q8 6 27 14t22 11q6 5 33.5 11t43.5 6q47 0 75 -17q22 -14 49 -41q33 -33 42 -66q16 -50 16 -79q0 -4 1.5 -29t1.5 -36q0 -8 -1 -11q-4 -11 -4 -45q0 -25 2 -37q2 -14 2 -86
q0 -30 4 -58q2 -16 2 -30q0 -17 -2 -25q-8 -45 -8 -54v-5q4 -24 4 -50q0 -10 0.5 -29t0.5 -24q0 -12 -5 -28.5t-13 -17.5q-14 -2 -36 -2q-39 0 -55 2q-21 4 -24 24v27q0 13 -1 21q0 2 -2.5 13.5t-2.5 17.5q0 11 5 16q1 1 5 3.5t5 6t1 12.5q0 6 1.5 12t1.5 7q0 5 -14 5
q-9 0 -16 1t-16 1q-4 0 -23 3.5t-32 3.5q-12 0 -19.5 -2.5t-18.5 -2.5q-14 0 -21 -7q-6 -6 -9 -10t-4.5 -9t-2 -8t-1 -11.5t-1.5 -14.5q0 -5 -1.5 -16t-1.5 -23q0 -9 3 -17.5t3 -13.5q0 -6 -1 -10q-1 -6 -9 -10t-15.5 -5.5t-18.5 -3t-12 -1.5t-3 -1h-1q-1 -1 -2 -1t-3 -1h-4
q-4 -1 -5 -1zM185 276q2 -11 10 -11q1 0 5.5 0.5t9.5 0.5q9 0 20 2.5t17 2.5q4 0 8 0.5t9 0.5q7 0 22.5 -4.5t18.5 -4.5q9 0 12 3.5t7 3.5q8 0 27 14q3 3 3 6q0 6 -2 14.5t-2 15.5q0 8 4 19q3 10 13 10q3 0 4 7q0 4 -9 4q-8 0 -11 5q-6 11 -6 34q0 9 2 19q2 8 2 14
q0 5 -1 15.5t-1 16.5v13q0 11 -2.5 32.5t-2.5 25.5q0 6 -3.5 23.5t-3.5 31.5q0 8 -0.5 14.5t-3.5 11.5t-4.5 8t-7 6.5t-7 4.5t-9.5 4.5t-10 4.5q-4 2 -16 2q-13 0 -44 -13q-9 -4 -18 -17q-14 -20 -19 -35q-3 -8 -3.5 -21t-4.5 -23q-4 -11 -4 -19q0 -1 4 -33q1 -6 1 -13
q0 -4 -1 -12t-1 -16v-21q0 -12 -3 -26t-3 -24q0 -11 -2 -26t-2 -32q0 -12 1.5 -18.5t3.5 -11t3 -9.5zM150 772q-13 3 -24 13.5t-12 21.5v6q0 18 13 30q3 3 11 8.5t12.5 9.5t5.5 7q2 5 16.5 18.5t17.5 17.5q18 18 23 25q4 7 24.5 22t32.5 15q13 -1 29.5 -10t23.5 -19
q2 -4 4 -7t5 -6t5 -4.5t7 -4.5t8 -6q6 -5 14.5 -21.5t20.5 -24.5q24 -13 33 -39q5 -13 5 -18q0 -6 -5 -14q-19 -22 -39 -22q-22 0 -25 3q-12 1 -26 13t-18 25q-4 9 -25 37q-1 2 -3 6.5t-3.5 7.5t-3.5 6.5t-5 5t-7 1.5q-7 0 -18.5 -12.5t-18.5 -23.5q-2 -5 -29 -47
q-3 -8 -20 -14t-29 -6z" />
    <glyph glyph-name="Atilde" unicode="&#xc3;" horiz-adv-x="514" 
d="M99 -1q-2 0 -4 -0.5t-3 -0.5q-5 0 -9 3t-8 3q-19 0 -19 16q0 7 -1.5 16.5t-1.5 17.5t-1 20.5t-1 21.5q0 31 4 40q2 4 2 7t-8 24q-18 49 -18 50q0 2 -0.5 7.5t-0.5 8.5q0 11 5 15q3 2 13 4t12 5q1 1 1 6q0 2 -1.5 16t-1.5 27q0 44 6 50q3 3 3 16v122q0 10 3 25v5q1 3 1 11
q0 5 -1 17t-1 17q0 15 5 21q5 7 8.5 21t7.5 21q25 37 25 43q0 8 5.5 15.5t10 11t14.5 10t12 8.5q8 6 27 14t22 11q6 5 33.5 11t43.5 6q47 0 75 -17q22 -14 49 -41q33 -33 42 -66q16 -50 16 -79q0 -4 1.5 -29t1.5 -36q0 -8 -1 -11q-4 -11 -4 -45q0 -25 2 -37q2 -14 2 -86
q0 -30 4 -58q2 -16 2 -30q0 -17 -2 -25q-8 -45 -8 -54v-5q4 -24 4 -50q0 -10 0.5 -29t0.5 -24q0 -12 -5 -28.5t-13 -17.5q-14 -2 -36 -2q-39 0 -55 2q-21 4 -24 24v27q0 13 -1 21q0 2 -2.5 13.5t-2.5 17.5q0 11 5 16q1 1 5 3.5t5 6t1 12.5q0 6 1.5 12t1.5 7q0 5 -14 5
q-9 0 -16 1t-16 1q-4 0 -23 3.5t-32 3.5q-12 0 -19.5 -2.5t-18.5 -2.5q-14 0 -21 -7q-6 -6 -9 -10t-4.5 -9t-2 -8t-1 -11.5t-1.5 -14.5q0 -5 -1.5 -16t-1.5 -23q0 -9 3 -17.5t3 -13.5q0 -6 -1 -10q-1 -6 -9 -10t-15.5 -5.5t-18.5 -3t-12 -1.5t-3 -1h-1q-1 -1 -2 -1t-3 -1h-4
q-4 -1 -5 -1zM185 276q2 -11 10 -11q1 0 5.5 0.5t9.5 0.5q9 0 20 2.5t17 2.5q4 0 8 0.5t9 0.5q7 0 22.5 -4.5t18.5 -4.5q9 0 12 3.5t7 3.5q8 0 27 14q3 3 3 6q0 6 -2 14.5t-2 15.5q0 8 4 19q3 10 13 10q3 0 4 7q0 4 -9 4q-8 0 -11 5q-6 11 -6 34q0 9 2 19q2 8 2 14
q0 5 -1 15.5t-1 16.5v13q0 11 -2.5 32.5t-2.5 25.5q0 6 -3.5 23.5t-3.5 31.5q0 8 -0.5 14.5t-3.5 11.5t-4.5 8t-7 6.5t-7 4.5t-9.5 4.5t-10 4.5q-4 2 -16 2q-13 0 -44 -13q-9 -4 -18 -17q-14 -20 -19 -35q-3 -8 -3.5 -21t-4.5 -23q-4 -11 -4 -19q0 -1 4 -33q1 -6 1 -13
q0 -4 -1 -12t-1 -16v-21q0 -12 -3 -26t-3 -24q0 -11 -2 -26t-2 -32q0 -12 1.5 -18.5t3.5 -11t3 -9.5zM108 811q0 1 -3 7t-3 8q0 18 10 30q4 5 9 10.5t8.5 9.5t5.5 7q1 3 13.5 10t19.5 9q13 8 37 8q9 0 48 -9q1 0 2 -0.5t2 -0.5q25 -5 35 -16q10 -13 34 -17q8 0 16 5.5
t8 10.5q0 7 15 17.5t23 10.5q13 0 21 -15t8 -34q0 -11 -10.5 -30t-22.5 -24q-8 -4 -13.5 -5.5t-11.5 -2t-10 -1.5q-5 -2 -18 -2q-19 0 -31 6q-38 21 -47 21q-4 1 -9.5 4t-6.5 4q-4 1 -13 4.5t-16 5.5h-3q-15 0 -27 -13q-17 -15 -19 -23q-2 -15 -21 -17q-24 0 -30 22z" />
    <glyph glyph-name="Adieresis" unicode="&#xc4;" horiz-adv-x="514" 
d="M99 -1q-2 0 -4 -0.5t-3 -0.5q-5 0 -9 3t-8 3q-19 0 -19 16q0 7 -1.5 16.5t-1.5 17.5t-1 20.5t-1 21.5q0 31 4 40q2 4 2 7t-8 24q-18 49 -18 50q0 2 -0.5 7.5t-0.5 8.5q0 11 5 15q3 2 13 4t12 5q1 1 1 6q0 2 -1.5 16t-1.5 27q0 44 6 50q3 3 3 16v122q0 10 3 25v5q1 3 1 11
q0 5 -1 17t-1 17q0 15 5 21q5 7 8.5 21t7.5 21q25 37 25 43q0 8 5.5 15.5t10 11t14.5 10t12 8.5q8 6 27 14t22 11q6 5 33.5 11t43.5 6q47 0 75 -17q22 -14 49 -41q33 -33 42 -66q16 -50 16 -79q0 -4 1.5 -29t1.5 -36q0 -8 -1 -11q-4 -11 -4 -45q0 -25 2 -37q2 -14 2 -86
q0 -30 4 -58q2 -16 2 -30q0 -17 -2 -25q-8 -45 -8 -54v-5q4 -24 4 -50q0 -10 0.5 -29t0.5 -24q0 -12 -5 -28.5t-13 -17.5q-14 -2 -36 -2q-39 0 -55 2q-21 4 -24 24v27q0 13 -1 21q0 2 -2.5 13.5t-2.5 17.5q0 11 5 16q1 1 5 3.5t5 6t1 12.5q0 6 1.5 12t1.5 7q0 5 -14 5
q-9 0 -16 1t-16 1q-4 0 -23 3.5t-32 3.5q-12 0 -19.5 -2.5t-18.5 -2.5q-14 0 -21 -7q-6 -6 -9 -10t-4.5 -9t-2 -8t-1 -11.5t-1.5 -14.5q0 -5 -1.5 -16t-1.5 -23q0 -9 3 -17.5t3 -13.5q0 -6 -1 -10q-1 -6 -9 -10t-15.5 -5.5t-18.5 -3t-12 -1.5t-3 -1h-1q-1 -1 -2 -1t-3 -1h-4
q-4 -1 -5 -1zM185 276q2 -11 10 -11q1 0 5.5 0.5t9.5 0.5q9 0 20 2.5t17 2.5q4 0 8 0.5t9 0.5q7 0 22.5 -4.5t18.5 -4.5q9 0 12 3.5t7 3.5q8 0 27 14q3 3 3 6q0 6 -2 14.5t-2 15.5q0 8 4 19q3 10 13 10q3 0 4 7q0 4 -9 4q-8 0 -11 5q-6 11 -6 34q0 9 2 19q2 8 2 14
q0 5 -1 15.5t-1 16.5v13q0 11 -2.5 32.5t-2.5 25.5q0 6 -3.5 23.5t-3.5 31.5q0 8 -0.5 14.5t-3.5 11.5t-4.5 8t-7 6.5t-7 4.5t-9.5 4.5t-10 4.5q-4 2 -16 2q-13 0 -44 -13q-9 -4 -18 -17q-14 -20 -19 -35q-3 -8 -3.5 -21t-4.5 -23q-4 -11 -4 -19q0 -1 4 -33q1 -6 1 -13
q0 -4 -1 -12t-1 -16v-21q0 -12 -3 -26t-3 -24q0 -11 -2 -26t-2 -32q0 -12 1.5 -18.5t3.5 -11t3 -9.5zM164 909q10 14 34 14h9q16 -3 43 -32q9 -9 9 -23q0 -12 -10 -29q-6 -10 -24 -18t-22 -12q-6 -9 -25 -9q-16 0 -26 9q-6 6 -12.5 21t-6.5 23q0 15 31 56zM326 908
q9 13 40 13l11 2q18 -4 42 -32q8 -9 8 -23t-9 -29q-5 -8 -10 -13t-12.5 -11.5t-11.5 -9.5q-5 -5 -25 -5h-12q-7 1 -16.5 9.5t-10.5 9.5q-17 22 -17 34q0 10 7 28t16 27z" />
    <glyph glyph-name="Aring" unicode="&#xc5;" horiz-adv-x="514" 
d="M99 -1q-2 0 -4 -0.5t-3 -0.5q-5 0 -9 3t-8 3q-19 0 -19 16q0 7 -1.5 16.5t-1.5 17.5t-1 20.5t-1 21.5q0 31 4 40q2 4 2 7t-8 24q-18 49 -18 50q0 2 -0.5 7.5t-0.5 8.5q0 11 5 15q3 2 13 4t12 5q1 1 1 6q0 2 -1.5 16t-1.5 27q0 44 6 50q3 3 3 16v122q0 10 3 25v5q1 3 1 11
q0 5 -1 17t-1 17q0 15 5 21q5 7 8.5 21t7.5 21q25 37 25 43q0 8 5.5 15.5t10 11t14.5 10t12 8.5q8 6 27 14t22 11q6 5 33.5 11t43.5 6q47 0 75 -17q22 -14 49 -41q33 -33 42 -66q16 -50 16 -79q0 -4 1.5 -29t1.5 -36q0 -8 -1 -11q-4 -11 -4 -45q0 -25 2 -37q2 -14 2 -86
q0 -30 4 -58q2 -16 2 -30q0 -17 -2 -25q-8 -45 -8 -54v-5q4 -24 4 -50q0 -10 0.5 -29t0.5 -24q0 -12 -5 -28.5t-13 -17.5q-14 -2 -36 -2q-39 0 -55 2q-21 4 -24 24v27q0 13 -1 21q0 2 -2.5 13.5t-2.5 17.5q0 11 5 16q1 1 5 3.5t5 6t1 12.5q0 6 1.5 12t1.5 7q0 5 -14 5
q-9 0 -16 1t-16 1q-4 0 -23 3.5t-32 3.5q-12 0 -19.5 -2.5t-18.5 -2.5q-14 0 -21 -7q-6 -6 -9 -10t-4.5 -9t-2 -8t-1 -11.5t-1.5 -14.5q0 -5 -1.5 -16t-1.5 -23q0 -9 3 -17.5t3 -13.5q0 -6 -1 -10q-1 -6 -9 -10t-15.5 -5.5t-18.5 -3t-12 -1.5t-3 -1h-1q-1 -1 -2 -1t-3 -1h-4
q-4 -1 -5 -1zM185 276q2 -11 10 -11q1 0 5.5 0.5t9.5 0.5q9 0 20 2.5t17 2.5q4 0 8 0.5t9 0.5q7 0 22.5 -4.5t18.5 -4.5q9 0 12 3.5t7 3.5q8 0 27 14q3 3 3 6q0 6 -2 14.5t-2 15.5q0 8 4 19q3 10 13 10q3 0 4 7q0 4 -9 4q-8 0 -11 5q-6 11 -6 34q0 9 2 19q2 8 2 14
q0 5 -1 15.5t-1 16.5v13q0 11 -2.5 32.5t-2.5 25.5q0 6 -3.5 23.5t-3.5 31.5q0 8 -0.5 14.5t-3.5 11.5t-4.5 8t-7 6.5t-7 4.5t-9.5 4.5t-10 4.5q-4 2 -16 2q-13 0 -44 -13q-9 -4 -18 -17q-14 -20 -19 -35q-3 -8 -3.5 -21t-4.5 -23q-4 -11 -4 -19q0 -1 4 -33q1 -6 1 -13
q0 -4 -1 -12t-1 -16v-21q0 -12 -3 -26t-3 -24q0 -11 -2 -26t-2 -32q0 -12 1.5 -18.5t3.5 -11t3 -9.5zM209 975q21 20 63 20q36 0 58 -17t27 -33t5 -32q0 -11 -1.5 -19.5t-1.5 -9.5q0 -2 0.5 -6t0.5 -8l-9 -18q0 -9 -6.5 -16t-17.5 -13t-15 -10q-4 -8 -42 -8
q-42 0 -71.5 18.5t-29.5 42.5q0 4 7 35q0 2 -1 8.5t-1 10.5q0 11 3.5 20t6.5 12.5t12.5 11.5t12.5 11zM253 934q-2 -1 -10 -14t-8 -17q0 -35 25 -38q36 0 39 27q0 22 -9.5 33.5t-23.5 11.5q-1 0 -13 -3z" />
    <glyph glyph-name="AE" unicode="&#xc6;" horiz-adv-x="686" 
d="M285 758q5 0 71 -3t71 -4q18 -2 27 -2q10 0 23.5 1t15.5 1h22q34 0 45 -2q3 -1 12 -1q8 0 25 1.5t24 1.5q16 -1 29 -9.5t13 -16.5v-42q0 -12 -6 -30t-14 -21q-21 -8 -58 -8q-6 0 -10 1q-17 3 -62 5q-6 -1 -31 -1q-10 0 -10 -23q0 -16 -2.5 -22t-3.5 -23q-3 -48 -4 -52
q-2 -5 -2 -16q0 -4 2 -32q1 -9 2.5 -17.5t1.5 -12.5q-4 -29 -4 -31q0 -41 19 -42q9 -1 30 -1q26 0 35 1h34q39 0 39 -20q0 -22 -12.5 -56.5t-34.5 -34.5q-21 0 -31 -1q-15 0 -28.5 0.5t-15.5 0.5q-8 0 -12 -1q-24 -5 -24 -52q0 -18 1 -31l3 -40q2 -5 16 -5q9 0 21 2.5
t21 2.5q5 0 8 -1q18 -3 38 -3h19q4 0 14.5 0.5t16.5 0.5t15.5 -0.5t12.5 -0.5q2 0 7.5 -0.5t8 -0.5t6 -1.5t5.5 -3.5t3 -6q1 -3 1 -9q0 -14 -4 -41.5t-9 -36.5q-5 -8 -12 -11t-19.5 -4t-16.5 -2q-16 -4 -72 -4q-25 0 -32 1q-40 5 -64 5q-14 0 -37 -4.5t-33 -4.5q-21 0 -35 8
t-14 21q1 14 0 45.5t2 42.5q1 3 1 32v59q0 1 1.5 13t0 19t-7.5 9h-10q-14 0 -26 0.5t-28 0.5q-36 -3 -49 -3q-30 0 -35 -14q-3 -9 -11 -40.5t-17 -66.5t-11 -44q-13 -26 -13 -35q-12 -45 -34 -51q-2 -1 -25 1l-24 2q-14 0 -24 7.5t-10 20.5q0 33 15 65q4 8 19.5 66t19.5 66
q13 26 13 28q0 6 -33 6q-20 0 -2 52q4 11 9 23q5 10 48 22q-8 -2 30 80q6 13 9 33.5t8 32.5q6 13 13.5 39t11.5 38q6 16 14 49.5t12 42.5q4 10 14 27t12 23q8 22 27.5 32t34.5 10zM342 353q0 4 -0.5 19t-0.5 23q1 10 -0.5 34t-1.5 34q0 14 1 23q7 63 5 73q0 72 -14 72
q-17 0 -37 -70q-5 -17 -14 -41t-18 -45.5t-11 -26.5q-23 -64 -29 -97q46 0 61 -1q3 0 16.5 0.5t27.5 1.5t15 1z" />
    <glyph glyph-name="Ccedilla" unicode="&#xc7;" horiz-adv-x="456" 
d="M264 -22v9q-66 3 -138 60q-7 5 -14.5 15.5t-14.5 22t-9 14.5q-17 22 -27 53q-10 32 -13 80q0 6 0.5 16t0.5 14q0 6 -3.5 18.5t-3.5 20.5q0 5 2.5 15.5t2.5 15.5q0 1 -3 7t-3 17v4q0 8 0.5 33.5t1.5 37.5q4 44 10 55q4 7 5 14t1 18t1 17q4 35 24 74l33 63q2 4 8 8
t11.5 5.5t12 3t7.5 1.5q3 1 3.5 5t1 10.5t2.5 10.5q2 5 8.5 10t18 11.5t16.5 10.5q8 6 32.5 11t41.5 5q12 0 30.5 -4t27.5 -5q39 -4 58 -28q2 -3 10.5 -12.5t12.5 -15.5t5 -13q1 -8 1 -15q0 -8 4 -16q3 -9 3 -17q0 -16 -7 -28q-24 -39 -53 -39q-44 0 -56 45q-7 26 -15 37.5
t-24 11.5q-5 0 -20 -5q-8 -4 -14 -9t-9.5 -8.5t-7 -10.5t-4.5 -10t-3.5 -12.5t-3.5 -11.5q-3 -10 -10.5 -30t-12.5 -36.5t-6 -33.5q-1 -10 -4 -47t-3 -48q0 -10 -7 -24t-7 -20q0 -12 7 -20t9 -12q1 -2 5 -90q1 -10 7.5 -30t6.5 -27q0 -6 2 -10.5t6.5 -13.5t8.5 -21
q5 -13 21 -24t31 -11q22 0 32.5 13t28.5 55q6 14 12 20t19 6q14 0 41 -12.5t32 -26.5q2 -6 2 -8q0 -5 -3 -18t-4 -20q-1 -9 -3 -13t-8 -9.5t-8 -7.5q-7 -7 -21 -32q-8 -14 -29 -35q-11 -11 -55 -21q4 -4 4 -8q0 -7 -1 -14.5t-1 -9.5q0 -4 2 -8q3 -5 3 -13q0 -4 -1 -13
t-1 -12v-12q0 -12 -11 -15q-3 -2 -15 -2t-16 4q-5 6 -6.5 13t-6.5 8q-5 0 -10 -2.5t-9.5 -7.5t-6.5 -6q-6 -6 -6 -27v-4q0 -24 15 -30q21 -7 26 -7q2 0 2 2q3 2 8 2h3q6 0 10 3q5 8 24 8q1 0 2.5 -0.5t3.5 -0.5q21 -2 21 -25q0 -12 -9.5 -23.5t-25.5 -13.5q-2 0 -4 -1h-2
q-17 -4 -33 -4q-10 0 -14 2q-6 3 -22 4.5t-20 3.5q-33 20 -44 35q-11 18 -11 35v5q1 7 3 22.5t3 22.5l1 1l1 1q0 1 1 2.5t1 3.5q4 18 17 29q6 7 22 13.5t18 7.5q20 4 32 4q2 0 4.5 -0.5t3.5 -0.5q4 0 4 15z" />
    <glyph glyph-name="Egrave" unicode="&#xc8;" horiz-adv-x="445" 
d="M168 387q0 -8 0.5 -19t0.5 -20t33 -9q14 0 39.5 3t37.5 3q34 0 34 -13q-2 -34 -30 -80q-4 -6 -9 -7t-12 -1t-12 -2l-2 -2q-3 -1 -4 -1t-4.5 0.5t-12 1t-18.5 0.5q-22 0 -29 -4q-6 -3 -6 -14q0 -4 1.5 -13t1.5 -10q1 -4 1 -13t2 -17.5t8 -14.5t8 -10.5t2.5 -9.5t3.5 -11
q10 -23 48 -23q6 0 18 2q3 1 11 3.5t14 6t13 9.5q27 25 27 39q7 22 25 27q12 6 14 6q18 0 38 -26q14 -16 14 -34q0 -9 -2 -21q-1 -7 -10.5 -18t-11.5 -14q-4 -7 -36 -35q-6 -5 -19 -13t-18 -14q-25 -27 -76 -27q-48 0 -90 20q-34 17 -47 29q-41 39 -49 67q-20 71 -21 125
q-1 4 -7.5 16t-6.5 21q0 50 16 65q0 4 3 13.5t3 14.5q0 10 -4.5 34t-4.5 43q0 13 3 31t4 25q5 49 20 93q2 7 3.5 14.5t3.5 11.5t8 9q8 6 18 44q2 8 8.5 15t19 17t16.5 13q8 7 21.5 13.5t16.5 12.5q10 19 88 19q47 0 93 -35q27 -21 38 -39q8 -13 8 -27q0 -6 4 -21.5t4 -22.5
q0 -3 -2.5 -12t-2.5 -16q0 -9 -16 -20t-27 -11q-6 -3 -35 -3q-5 0 -11.5 6t-7.5 14q-1 6 -1.5 23.5t-4.5 30.5q-9 27 -42 27q-21 0 -38 -10q-39 -23 -46 -73q0 -1 -3 -21.5t-5 -33.5q-4 -26 -4 -33t-3 -23t-3 -27q0 -2 -1 -9t-1 -13q0 -13 2 -22zM182 890q-3 8 -3 13
q0 8 9.5 27t14.5 22q12 10 26 10q19 0 31 -21q52 -53 55 -57q1 -1 20 -18.5t20 -27.5q4 -13 -2.5 -27t-19.5 -14q-6 0 -13.5 3.5t-9.5 3.5q-6 2 -17.5 9t-17.5 10q-8 4 -15.5 14t-14.5 12q-2 1 -19.5 9t-29 16t-14.5 16z" />
    <glyph glyph-name="Eacute" unicode="&#xc9;" horiz-adv-x="445" 
d="M168 387q0 -8 0.5 -19t0.5 -20t33 -9q14 0 39.5 3t37.5 3q34 0 34 -13q-2 -34 -30 -80q-4 -6 -9 -7t-12 -1t-12 -2l-2 -2q-3 -1 -4 -1t-4.5 0.5t-12 1t-18.5 0.5q-22 0 -29 -4q-6 -3 -6 -14q0 -4 1.5 -13t1.5 -10q1 -4 1 -13t2 -17.5t8 -14.5t8 -10.5t2.5 -9.5t3.5 -11
q10 -23 48 -23q6 0 18 2q3 1 11 3.5t14 6t13 9.5q27 25 27 39q7 22 25 27q12 6 14 6q18 0 38 -26q14 -16 14 -34q0 -9 -2 -21q-1 -7 -10.5 -18t-11.5 -14q-4 -7 -36 -35q-6 -5 -19 -13t-18 -14q-25 -27 -76 -27q-48 0 -90 20q-34 17 -47 29q-41 39 -49 67q-20 71 -21 125
q-1 4 -7.5 16t-6.5 21q0 50 16 65q0 4 3 13.5t3 14.5q0 10 -4.5 34t-4.5 43q0 13 3 31t4 25q5 49 20 93q2 7 3.5 14.5t3.5 11.5t8 9q8 6 18 44q2 8 8.5 15t19 17t16.5 13q8 7 21.5 13.5t16.5 12.5q10 19 88 19q47 0 93 -35q27 -21 38 -39q8 -13 8 -27q0 -6 4 -21.5t4 -22.5
q0 -3 -2.5 -12t-2.5 -16q0 -9 -16 -20t-27 -11q-6 -3 -35 -3q-5 0 -11.5 6t-7.5 14q-1 6 -1.5 23.5t-4.5 30.5q-9 27 -42 27q-21 0 -38 -10q-39 -23 -46 -73q0 -1 -3 -21.5t-5 -33.5q-4 -26 -4 -33t-3 -23t-3 -27q0 -2 -1 -9t-1 -13q0 -13 2 -22zM341 866q-3 -8 -14.5 -16
t-29 -16t-19.5 -9q-7 -2 -14.5 -12t-15.5 -14q-6 -3 -17.5 -10t-17.5 -9q-2 0 -9.5 -3.5t-13.5 -3.5q-13 0 -19.5 14t-2.5 27q1 10 20.5 27.5t19.5 18.5q3 4 55 57q12 21 31 21q14 0 26 -10q5 -3 14.5 -22t9.5 -27q0 -5 -3 -13z" />
    <glyph glyph-name="Ecircumflex" unicode="&#xca;" horiz-adv-x="445" 
d="M168 387q0 -8 0.5 -19t0.5 -20t33 -9q14 0 39.5 3t37.5 3q34 0 34 -13q-2 -34 -30 -80q-4 -6 -9 -7t-12 -1t-12 -2l-2 -2q-3 -1 -4 -1t-4.5 0.5t-12 1t-18.5 0.5q-22 0 -29 -4q-6 -3 -6 -14q0 -4 1.5 -13t1.5 -10q1 -4 1 -13t2 -17.5t8 -14.5t8 -10.5t2.5 -9.5t3.5 -11
q10 -23 48 -23q6 0 18 2q3 1 11 3.5t14 6t13 9.5q27 25 27 39q7 22 25 27q12 6 14 6q18 0 38 -26q14 -16 14 -34q0 -9 -2 -21q-1 -7 -10.5 -18t-11.5 -14q-4 -7 -36 -35q-6 -5 -19 -13t-18 -14q-25 -27 -76 -27q-48 0 -90 20q-34 17 -47 29q-41 39 -49 67q-20 71 -21 125
q-1 4 -7.5 16t-6.5 21q0 50 16 65q0 4 3 13.5t3 14.5q0 10 -4.5 34t-4.5 43q0 13 3 31t4 25q5 49 20 93q2 7 3.5 14.5t3.5 11.5t8 9q8 6 18 44q2 8 8.5 15t19 17t16.5 13q8 7 21.5 13.5t16.5 12.5q10 19 88 19q47 0 93 -35q27 -21 38 -39q8 -13 8 -27q0 -6 4 -21.5t4 -22.5
q0 -3 -2.5 -12t-2.5 -16q0 -9 -16 -20t-27 -11q-6 -3 -35 -3q-5 0 -11.5 6t-7.5 14q-1 6 -1.5 23.5t-4.5 30.5q-9 27 -42 27q-21 0 -38 -10q-39 -23 -46 -73q0 -1 -3 -21.5t-5 -33.5q-4 -26 -4 -33t-3 -23t-3 -27q0 -2 -1 -9t-1 -13q0 -13 2 -22zM145 760q-13 3 -24 13.5
t-12 21.5v6q0 18 13 30q3 3 11 8.5t12.5 9.5t5.5 7q2 5 16.5 18.5t17.5 17.5q18 18 23 25q4 7 24.5 22t32.5 15q13 -1 29.5 -10t23.5 -19q2 -4 4 -7t5 -6t5 -4.5t7 -4.5t8 -6q6 -5 14.5 -21.5t20.5 -24.5q24 -13 33 -39q5 -13 5 -18q0 -6 -5 -14q-19 -22 -39 -22
q-22 0 -25 3q-12 1 -25.5 13t-18.5 25q-4 9 -25 37q-1 2 -3 6.5t-3.5 7.5t-3.5 6.5t-5 5t-7 1.5q-7 0 -18.5 -12.5t-18.5 -23.5q-2 -5 -29 -47q-3 -8 -20 -14t-29 -6z" />
    <glyph glyph-name="Edieresis" unicode="&#xcb;" horiz-adv-x="445" 
d="M168 387q0 -8 0.5 -19t0.5 -20t33 -9q14 0 39.5 3t37.5 3q34 0 34 -13q-2 -34 -30 -80q-4 -6 -9 -7t-12 -1t-12 -2l-2 -2q-3 -1 -4 -1t-4.5 0.5t-12 1t-18.5 0.5q-22 0 -29 -4q-6 -3 -6 -14q0 -4 1.5 -13t1.5 -10q1 -4 1 -13t2 -17.5t8 -14.5t8 -10.5t2.5 -9.5t3.5 -11
q10 -23 48 -23q6 0 18 2q3 1 11 3.5t14 6t13 9.5q27 25 27 39q7 22 25 27q12 6 14 6q18 0 38 -26q14 -16 14 -34q0 -9 -2 -21q-1 -7 -10.5 -18t-11.5 -14q-4 -7 -36 -35q-6 -5 -19 -13t-18 -14q-25 -27 -76 -27q-48 0 -90 20q-34 17 -47 29q-41 39 -49 67q-20 71 -21 125
q-1 4 -7.5 16t-6.5 21q0 50 16 65q0 4 3 13.5t3 14.5q0 10 -4.5 34t-4.5 43q0 13 3 31t4 25q5 49 20 93q2 7 3.5 14.5t3.5 11.5t8 9q8 6 18 44q2 8 8.5 15t19 17t16.5 13q8 7 21.5 13.5t16.5 12.5q10 19 88 19q47 0 93 -35q27 -21 38 -39q8 -13 8 -27q0 -6 4 -21.5t4 -22.5
q0 -3 -2.5 -12t-2.5 -16q0 -9 -16 -20t-27 -11q-6 -3 -35 -3q-5 0 -11.5 6t-7.5 14q-1 6 -1.5 23.5t-4.5 30.5q-9 27 -42 27q-21 0 -38 -10q-39 -23 -46 -73q0 -1 -3 -21.5t-5 -33.5q-4 -26 -4 -33t-3 -23t-3 -27q0 -2 -1 -9t-1 -13q0 -13 2 -22zM157 891q10 14 34 14h9
q16 -3 43 -32q9 -9 9 -23q0 -12 -10 -29q-6 -10 -24 -18t-22 -12q-6 -9 -25 -9q-15 0 -26 9q-6 6 -12.5 21t-6.5 23q0 15 31 56zM319 890q9 13 40 13l11 2q18 -4 42 -32q8 -9 8 -23t-9 -29q-5 -8 -10 -13t-12.5 -11.5t-11.5 -9.5q-5 -5 -25 -5h-12q-7 1 -16.5 9.5t-10.5 9.5
q-17 22 -17 34q0 10 7 28t16 27z" />
    <glyph glyph-name="Igrave" unicode="&#xcc;" horiz-adv-x="231" 
d="M49 703q0 46 17 53q14 7 58 7t48 -13q3 -10 11 -21.5t8 -16.5q0 -3 -1 -5q-3 -8 -4.5 -31t-4.5 -40q-2 -16 -2 -20q0 -10 2.5 -26.5t2.5 -26.5q-1 -15 -2 -36.5t-1.5 -36t-2.5 -22.5t-2 -33q0 -11 0.5 -31t0.5 -28t-1 -21t-1 -20q0 -13 3 -37q2 -11 4 -24t3 -20.5
t1 -14.5q0 -14 -2 -24q-5 -32 -5 -51q0 -18 3 -28q8 -27 8 -75q0 -20 -20 -45t-42 -25q-5 0 -10 0.5t-9.5 2l-7.5 2.5t-7 3.5t-6.5 3.5t-6 4.5t-5 4.5t-5.5 5l-5 5q-25 23 -25 55q0 33 4 74q1 8 5.5 33t4.5 45q0 9 2.5 37.5t2.5 50.5q-1 18 -1.5 49.5t-1.5 45.5q-1 8 -1 24
v28q0 20 -1 33q0 3 -0.5 8t-0.5 7q0 10 1.5 24.5t1.5 19.5t-2 15q-2 8 -2 13t1.5 14.5t1.5 13.5t-2 12q-3 10 -3 17q0 3 0.5 8t0.5 9q0 7 -1.5 17t-1.5 28zM26 892q-3 8 -3 13q0 8 9.5 27t14.5 22q13 10 26 10q19 0 31 -21q52 -53 55 -57q1 -1 20 -18.5t20 -27.5
q4 -13 -2.5 -27t-19.5 -14q-6 0 -13.5 3.5t-9.5 3.5q-6 2 -17.5 9t-17.5 10q-8 4 -15.5 14t-14.5 12q-2 1 -19.5 9t-29 16t-14.5 16z" />
    <glyph glyph-name="Iacute" unicode="&#xcd;" horiz-adv-x="231" 
d="M49 703q0 46 17 53q14 7 58 7t48 -13q3 -10 11 -21.5t8 -16.5q0 -3 -1 -5q-3 -8 -4.5 -31t-4.5 -40q-2 -16 -2 -20q0 -10 2.5 -26.5t2.5 -26.5q-1 -15 -2 -36.5t-1.5 -36t-2.5 -22.5t-2 -33q0 -11 0.5 -31t0.5 -28t-1 -21t-1 -20q0 -13 3 -37q2 -11 4 -24t3 -20.5
t1 -14.5q0 -14 -2 -24q-5 -32 -5 -51q0 -18 3 -28q8 -27 8 -75q0 -20 -20 -45t-42 -25q-5 0 -10 0.5t-9.5 2l-7.5 2.5t-7 3.5t-6.5 3.5t-6 4.5t-5 4.5t-5.5 5l-5 5q-25 23 -25 55q0 33 4 74q1 8 5.5 33t4.5 45q0 9 2.5 37.5t2.5 50.5q-1 18 -1.5 49.5t-1.5 45.5q-1 8 -1 24
v28q0 20 -1 33q0 3 -0.5 8t-0.5 7q0 10 1.5 24.5t1.5 19.5t-2 15q-2 8 -2 13t1.5 14.5t1.5 13.5t-2 12q-3 10 -3 17q0 3 0.5 8t0.5 9q0 7 -1.5 17t-1.5 28zM213 890q-3 -8 -14.5 -16t-29 -16t-19.5 -9q-7 -2 -14.5 -12t-15.5 -14q-6 -3 -17.5 -10t-17.5 -9q-2 0 -9.5 -3.5
t-13.5 -3.5q-13 0 -19.5 14t-2.5 27q1 10 20.5 27.5t19.5 18.5q2 5 55 57q12 21 31 21q14 0 26 -10q5 -3 14.5 -22t9.5 -27q0 -5 -3 -13z" />
    <glyph glyph-name="Icircumflex" unicode="&#xce;" horiz-adv-x="231" 
d="M49 703q0 -18 1.5 -28t1.5 -17q0 -4 -0.5 -9t-0.5 -8q0 -7 3 -17q2 -8 2 -12t-1.5 -13.5t-1.5 -14.5t2 -13q2 -10 2 -15t-1.5 -19.5t-1.5 -24.5q0 -2 0.5 -7t0.5 -8q1 -13 1 -33v-28q0 -16 1 -24q1 -14 1.5 -45.5t1.5 -49.5q0 -22 -2.5 -50.5t-2.5 -37.5q0 -20 -4.5 -45
t-5.5 -33q-4 -41 -4 -74q0 -32 25 -55q26 -25 44 -29q8 -2 18 -2q22 0 42 25t20 45q0 48 -8 75q-3 11 -3 28q0 19 5 51q2 10 2 24q0 7 -1 14.5t-3 20.5t-4 24q-3 24 -3 37q0 7 1 20t1 21t-0.5 28t-0.5 31q0 25 2 33t2.5 22.5t1.5 36t2 36.5q0 10 -2.5 26.5t-2.5 26.5
q0 4 2 20q3 17 4.5 40t4.5 31q1 2 1 5q0 5 -8 16.5t-11 21.5q-4 13 -48 13t-58 -7q-17 -7 -17 -53zM0 787q-13 3 -24 13.5t-12 21.5v6q0 18 13 30q3 3 11 8.5t12.5 9.5t5.5 7q2 5 16.5 18.5t17.5 17.5q18 18 23 25q4 7 24.5 22t32.5 15q13 -1 29.5 -10t23.5 -19q2 -4 4 -7
t5 -6t5 -4.5t7 -4.5t8 -6q6 -5 14.5 -21.5t20.5 -24.5q24 -13 33 -39q5 -13 5 -18q0 -6 -5 -14q-19 -22 -39 -22q-22 0 -25 3q-12 1 -26 12.5t-18 25.5q-4 9 -25 37q-1 2 -3 6.5t-3.5 7.5t-3.5 6.5t-5 5t-7 1.5q-7 0 -18.5 -12.5t-18.5 -23.5q-2 -5 -29 -47q-3 -8 -20 -14
t-29 -6z" />
    <glyph glyph-name="Idieresis" unicode="&#xcf;" horiz-adv-x="231" 
d="M49 703q0 -18 1.5 -28t1.5 -17q0 -4 -0.5 -9t-0.5 -8q0 -7 3 -17q2 -8 2 -12t-1.5 -13.5t-1.5 -14.5t2 -13q2 -10 2 -15t-1.5 -19.5t-1.5 -24.5q0 -2 0.5 -7t0.5 -8q1 -13 1 -33v-28q0 -16 1 -24q1 -14 1.5 -45.5t1.5 -49.5q0 -22 -2.5 -50.5t-2.5 -37.5q0 -20 -4.5 -45
t-5.5 -33q-4 -41 -4 -74q0 -32 25 -55q26 -25 44 -29q8 -2 18 -2q22 0 42 25t20 45q0 48 -8 75q-3 11 -3 28q0 19 5 51q2 10 2 24q0 7 -1 14.5t-3 20.5t-4 24q-3 24 -3 37q0 7 1 20t1 21t-0.5 28t-0.5 31q0 25 2 33t2.5 22.5t1.5 36t2 36.5q0 10 -2.5 26.5t-2.5 26.5
q0 4 2 20q3 17 4.5 40t4.5 31q1 2 1 5q0 5 -8 16.5t-11 21.5q-4 13 -48 13t-58 -7q-17 -7 -17 -53zM-9 898q10 14 34 14h9q16 -3 43 -32q9 -9 9 -23q0 -12 -10 -29q-6 -10 -24 -18t-22 -12q-6 -9 -25 -9q-15 0 -26 9q-6 6 -12.5 21t-6.5 23q0 15 31 56zM153 897q9 13 40 13
l11 2q18 -4 42 -32q8 -9 8 -23t-9 -29q-5 -8 -10 -13t-12.5 -11.5t-11.5 -9.5q-5 -5 -25 -5h-12q-7 1 -16.5 9.5t-10.5 9.5q-17 22 -17 34q0 10 7 28t16 27z" />
    <glyph glyph-name="Eth" unicode="&#xd0;" horiz-adv-x="487" 
d="M51 376q3 19 1 54q-1 11 -1.5 34.5t-1.5 32.5v7q0 4 0.5 10t0.5 11q0 9 -1 15q-2 14 -2 19q0 4 0.5 11t0.5 10q0 9 -1 14q-2 8 -2.5 16.5t-2.5 31.5t-4 48q-3 21 -3 28t5 16q9 17 24 22q10 2 48 2q7 0 16 -0.5t12 -0.5q1 0 20.5 -0.5t33.5 -2.5t20 -6q20 -14 44 -19
q8 -2 27.5 -11t25.5 -15q3 -3 25 -15.5t27 -19.5q3 -4 14 -26.5t18 -30.5q20 -23 24 -39q1 -4 17 -38.5t16 -52.5q0 -13 2 -51t2 -52q-5 -80 -9 -97q-2 -7 -4 -22.5t-4.5 -26t-6.5 -13.5q-6 -5 -16 -24.5t-14 -32.5q-3 -8 -14.5 -24.5t-14.5 -24.5q-12 -30 -30 -42
q-4 -3 -17 -14.5t-25.5 -20.5t-20.5 -10q-21 -2 -42 -19q-10 -8 -45 -15q-20 -4 -80 -4q-71 0 -71 27q0 6 -0.5 24t-0.5 26q0 20 2 23q6 10 6 49v35q0 35 3 46q17 58 5 73l-8 -1q-4 0 -12 1.5t-10 1.5q-26 4 -33 12q-7 14 -7 50q0 9 9 19q12 8 21 8q6 0 17.5 -3t16.5 -3z
M167 630v-41q0 -14 1.5 -43.5t1.5 -44.5v-19q-1 -16 -1 -30q0 -4 1.5 -11t1.5 -11q1 -4 1 -10q0 -4 -1 -11.5t-1 -11.5q0 -12 3 -17q2 0 6.5 1.5t9.5 2t11 0.5q24 0 30 -14q7 -5 12.5 -25.5t5.5 -32.5q-1 -17 -40 -17h-31q0 -6 -2 -18.5t-2 -19.5v-29q0 -8 -1 -27t-1 -29
q0 -42 7 -57q3 -7 20 -7q13 0 23 4q22 9 39 30q13 17 16.5 22.5t8 16t11.5 25.5q17 36 21 68q1 7 1.5 15.5t1 13t2 11t5.5 14.5q7 16 7 49v34q0 29 -18 92q-2 4 -2 6q-3 12 -17.5 39t-21.5 37q-6 9 -17.5 19.5t-19.5 11.5q-11 2 -29.5 16.5t-27.5 14.5q-13 0 -15 -17z" />
    <glyph glyph-name="Ntilde" unicode="&#xd1;" horiz-adv-x="583" 
d="M408 287q0 12 1 32.5t1 36.5q0 15 3 32.5t3 18.5q0 5 0.5 18t0.5 30q0 21 -1 46.5t-1 39.5v16q0 13 1 26t1 26t-7 67q-1 9 -3.5 23.5t-2.5 21.5t1 11q4 22 31 30q6 2 47 2q43 0 49 -14q10 -18 10 -54q0 -15 -2 -20q-3 -11 -5 -34.5t-3 -33.5q-2 -14 -2.5 -45t-1.5 -41
q-1 -7 -1 -64q0 -25 -1 -34q-1 -8 -1 -45q0 -26 -3 -37q-5 -17 -5 -72q0 -18 -0.5 -53.5t-0.5 -51.5q0 -32 1 -42q0 -7 1.5 -27t1.5 -30q0 -15 -1 -22v-4q-5 -35 -38 -44q-10 -2 -13 -2q-44 0 -58 18q-9 11 -21.5 40t-13.5 30q-6 9 -12.5 27t-12.5 26q-14 18 -26 54
q-5 16 -15 34.5t-14 27.5q-4 8 -9 31t-17 36q-14 20 -22 31.5t-11 16.5t-3 6q-3 4 -10.5 25.5t-10.5 26.5l-34 61q0 -7 -1 -42.5t-1 -40.5q0 -10 -2 -15q-5 -11 -5 -27q0 -5 2 -25q1 -6 4.5 -24.5t3.5 -27.5v-7q-4 -40 -8 -60q-4 -24 -4 -43q0 -13 1 -19q1 -4 1 -13
q0 -6 -1 -19t-1 -20t2 -23q3 -18 4.5 -32t1.5 -16v-4q0 -12 -7.5 -23.5t-19.5 -13.5t-42 -2q-47 0 -55 13q-11 16 -11 38q0 5 2 17q7 29 8 51v6q0 7 -1.5 20t-1.5 20q0 9 -1 14q-1 4 -1 12q0 10 4.5 31.5t4.5 32.5q0 1 -0.5 4t-0.5 5q0 3 -0.5 6.5t-0.5 5.5q0 7 2 21.5
t2 25.5t-1 18q-1 9 -1 26q0 9 1 24.5t1 22.5q0 2 -0.5 7t-0.5 8v6q0 9 3 25t3 26q0 6 -2 18q-7 28 -7 68q0 13 2.5 36t2.5 31t-1 12q-1 7 -5.5 22t-4.5 23q0 7 1 10q1 4 3 13.5t3.5 14.5t4.5 10.5t7 8.5q31 22 54 22q4 0 7 -1t12 -3.5t13.5 -4t11.5 -4.5t11.5 -7.5
t7.5 -10.5q4 -7 20.5 -31t18.5 -34q2 -9 15.5 -29t15.5 -28q7 -29 16 -42q5 -8 13 -22t15 -25q32 -45 36 -57q2 -7 8 -19t9.5 -21t3.5 -15t3 -13.5t9.5 -20.5l9.5 -19l12 -24l14 -28t7 -17zM145 810q0 1 -3 7t-3 8q0 18 10 30q4 5 9 10.5t8.5 9.5t5.5 7q1 3 13.5 10t19.5 9
q13 8 37 8q9 0 48 -9h2l2 -1q25 -5 35 -16q10 -13 34 -17q8 0 16 5.5t8 10.5q0 7 15 17.5t23 10.5q13 0 21 -15t8 -34q0 -11 -10.5 -30t-22.5 -24q-8 -4 -13.5 -5.5t-11.5 -2t-10 -1.5q-5 -2 -18 -2q-19 0 -31 6q-38 21 -47 21q-4 1 -9.5 4t-6.5 4q-4 1 -13 4.5t-16 5.5h-3
q-15 0 -27 -13q-17 -15 -19 -23q-2 -15 -21 -17q-24 0 -30 22z" />
    <glyph glyph-name="Ograve" unicode="&#xd2;" horiz-adv-x="545" 
d="M243 763q14 5 46 5q35 0 48 -3q8 -1 17.5 -6t24.5 -15t19 -13q12 -7 19 -14.5t12 -10.5q5 -4 8.5 -8.5t7.5 -13t7 -13.5t7 -12.5t8.5 -15t11.5 -17.5q9 -15 9 -45q0 -9 1 -15q2 -17 7 -36.5t6 -28.5q2 -17 2 -69q0 -12 -4 -52.5t-4 -53.5q0 -46 -12 -104q-8 -39 -11 -49
q-9 -32 -21 -54q-5 -10 -17.5 -23.5t-15.5 -19.5q-3 -7 -19 -22t-21 -22q-10 -15 -45 -33.5t-67 -18.5q-35 0 -65 6t-37 13q-10 10 -52 45q-10 9 -25 36t-15 43t-11 47t-11 48q0 14 -3 22q-4 12 -4 43t-2 43q-1 7 -1 19q0 11 2 33t2 34q0 36 12 79q5 18 7.5 39t4.5 32
q2 9 3 17.5t1 12.5t2 8.5t6 8.5q12 13 13 21q7 39 36 71q18 20 37 33t28 16.5t28 8t20 4.5zM271 657q-33 -11 -41 -34q-2 -5 -14 -24.5t-14 -30.5q0 -4 -4 -32.5t-4 -40.5q0 -3 1 -11.5t1 -13.5q0 -12 -2 -18q-8 -18 -12 -64q-2 -6 -2 -11q0 -4 1.5 -14t1.5 -16v-42
q0 -8 -1 -12q-1 -5 -1 -11q0 -7 2 -18t2 -18q4 -44 5 -47q3 -8 7 -22.5t5 -18.5q3 -21 11 -34q6 -12 22 -21.5t33 -9.5q29 0 51 27q11 17 23 50q18 40 19 57q1 9 4 19t3 16q0 4 -1.5 11.5t-1.5 12.5q0 3 1.5 10.5t1.5 10.5q13 41 13 54q0 2 -1 7v5q-4 16 -4 25q0 4 1 12
t1 12q0 5 -0.5 16t-0.5 17q1 10 1 22q0 3 -0.5 7.5t-1 15.5t-0.5 26q0 11 -2 21q-4 20 -11 41q0 1 -0.5 2.5t-0.5 2.5q-3 22 -15 37q-18 21 -31 27q-10 2 -25 2q-6 0 -20 -2zM178 892q-3 7 -3 13q0 8 9.5 27t14.5 22q13 10 26 10q19 0 31 -21q53 -53 55 -57q1 -1 20 -18.5
t20 -27.5q4 -13 -2.5 -27t-19.5 -14q-6 0 -13.5 3.5t-9.5 3.5q-6 2 -17.5 9t-17.5 10q-8 4 -15.5 14t-14.5 12q-2 1 -19.5 9t-29 16t-14.5 16z" />
    <glyph glyph-name="Oacute" unicode="&#xd3;" horiz-adv-x="545" 
d="M243 763q14 5 46 5q35 0 48 -3q8 -1 17.5 -6t24.5 -15t19 -13q12 -7 19 -14.5t12 -10.5q5 -4 8.5 -8.5t7.5 -13t7 -13.5t7 -12.5t8.5 -15t11.5 -17.5q9 -15 9 -45q0 -9 1 -15q2 -17 7 -36.5t6 -28.5q2 -17 2 -69q0 -12 -4 -52.5t-4 -53.5q0 -46 -12 -104q-8 -39 -11 -49
q-9 -32 -21 -54q-5 -10 -17.5 -23.5t-15.5 -19.5q-3 -7 -19 -22t-21 -22q-10 -15 -45 -33.5t-67 -18.5q-35 0 -65 6t-37 13q-10 10 -52 45q-10 9 -25 36t-15 43t-11 47t-11 48q0 14 -3 22q-4 12 -4 43t-2 43q-1 7 -1 19q0 11 2 33t2 34q0 36 12 79q5 18 7.5 39t4.5 32
q2 9 3 17.5t1 12.5t2 8.5t6 8.5q12 13 13 21q7 39 36 71q18 20 37 33t28 16.5t28 8t20 4.5zM271 657q-33 -11 -41 -34q-2 -5 -14 -24.5t-14 -30.5q0 -4 -4 -32.5t-4 -40.5q0 -3 1 -11.5t1 -13.5q0 -12 -2 -18q-8 -18 -12 -64q-2 -6 -2 -11q0 -4 1.5 -14t1.5 -16v-42
q0 -8 -1 -12q-1 -5 -1 -11q0 -7 2 -18t2 -18q4 -44 5 -47q3 -8 7 -22.5t5 -18.5q3 -21 11 -34q6 -12 22 -21.5t33 -9.5q29 0 51 27q11 17 23 50q18 40 19 57q1 9 4 19t3 16q0 4 -1.5 11.5t-1.5 12.5q0 3 1.5 10.5t1.5 10.5q13 41 13 54q0 2 -1 7v5q-4 16 -4 25q0 4 1 12
t1 12q0 5 -0.5 16t-0.5 17q1 10 1 22q0 3 -0.5 7.5t-1 15.5t-0.5 26q0 11 -2 21q-4 20 -11 41q0 1 -0.5 2.5t-0.5 2.5q-3 22 -15 37q-18 21 -31 27q-10 2 -25 2q-6 0 -20 -2zM341 869q-3 -8 -14.5 -16t-29 -16t-19.5 -9q-7 -2 -14.5 -12t-15.5 -14q-6 -3 -17.5 -10t-17.5 -9
q-2 0 -9.5 -3.5t-13.5 -3.5q-13 0 -19.5 14t-2.5 27q1 10 20.5 27.5t19.5 18.5q3 5 55 57q12 21 31 21q14 0 26 -10q5 -3 14.5 -22t9.5 -27q0 -6 -3 -13z" />
    <glyph glyph-name="Ocircumflex" unicode="&#xd4;" horiz-adv-x="545" 
d="M243 763q14 5 46 5q35 0 48 -3q8 -1 17.5 -6t24.5 -15t19 -13q12 -7 19 -14.5t12 -10.5q5 -4 8.5 -8.5t7.5 -13t7 -13.5t7 -12.5t8.5 -15t11.5 -17.5q9 -15 9 -45q0 -9 1 -15q2 -17 7 -36.5t6 -28.5q2 -17 2 -69q0 -12 -4 -52.5t-4 -53.5q0 -46 -12 -104q-8 -39 -11 -49
q-9 -32 -21 -54q-5 -10 -17.5 -23.5t-15.5 -19.5q-3 -7 -19 -22t-21 -22q-10 -15 -45 -33.5t-67 -18.5q-35 0 -65 6t-37 13q-10 10 -52 45q-10 9 -25 36t-15 43t-11 47t-11 48q0 14 -3 22q-4 12 -4 43t-2 43q-1 7 -1 19q0 11 2 33t2 34q0 36 12 79q5 18 7.5 39t4.5 32
q2 9 3 17.5t1 12.5t2 8.5t6 8.5q12 13 13 21q7 39 36 71q18 20 37 33t28 16.5t28 8t20 4.5zM271 657q-33 -11 -41 -34q-2 -5 -14 -24.5t-14 -30.5q0 -4 -4 -32.5t-4 -40.5q0 -3 1 -11.5t1 -13.5q0 -12 -2 -18q-8 -18 -12 -64q-2 -6 -2 -11q0 -4 1.5 -14t1.5 -16v-42
q0 -8 -1 -12q-1 -5 -1 -11q0 -7 2 -18t2 -18q4 -44 5 -47q3 -8 7 -22.5t5 -18.5q3 -21 11 -34q6 -12 22 -21.5t33 -9.5q29 0 51 27q11 17 23 50q18 40 19 57q1 9 4 19t3 16q0 4 -1.5 11.5t-1.5 12.5q0 3 1.5 10.5t1.5 10.5q13 41 13 54q0 2 -1 7v5q-4 16 -4 25q0 4 1 12
t1 12q0 5 -0.5 16t-0.5 17q1 10 1 22q0 3 -0.5 7.5t-1 15.5t-0.5 26q0 11 -2 21q-4 20 -11 41q0 1 -0.5 2.5t-0.5 2.5q-3 22 -15 37q-18 21 -31 27q-10 2 -25 2q-6 0 -20 -2zM163 767q-13 3 -24 13.5t-12 21.5v6q0 18 13 30q3 3 11 8.5t12.5 9.5t5.5 7q2 5 16.5 18.5
t17.5 17.5q18 18 23 25q4 7 24.5 22t32.5 15q13 -1 29.5 -10t23.5 -19q2 -4 4 -7t5 -6t5 -4.5t7 -4.5t8 -6q6 -5 14.5 -21.5t20.5 -24.5q24 -13 33 -39q5 -13 5 -18q0 -6 -5 -14q-19 -22 -39 -22q-22 0 -25 3q-12 1 -25.5 12.5t-18.5 25.5q-4 9 -25 37q-1 2 -3 6.5t-3.5 7.5
t-3.5 6.5t-5 5t-7 1.5q-7 0 -18.5 -12.5t-18.5 -23.5q-2 -5 -29 -47q-3 -8 -20 -14t-29 -6z" />
    <glyph glyph-name="Otilde" unicode="&#xd5;" horiz-adv-x="545" 
d="M243 763q14 5 46 5q35 0 48 -3q8 -1 17.5 -6t24.5 -15t19 -13q12 -7 19 -14.5t12 -10.5q5 -4 8.5 -8.5t7.5 -13t7 -13.5t7 -12.5t8.5 -15t11.5 -17.5q9 -15 9 -45q0 -9 1 -15q2 -17 7 -36.5t6 -28.5q2 -17 2 -69q0 -12 -4 -52.5t-4 -53.5q0 -46 -12 -104q-8 -39 -11 -49
q-9 -32 -21 -54q-5 -10 -17.5 -23.5t-15.5 -19.5q-3 -7 -19 -22t-21 -22q-10 -15 -45 -33.5t-67 -18.5q-35 0 -65 6t-37 13q-10 10 -52 45q-10 9 -25 36t-15 43t-11 47t-11 48q0 14 -3 22q-4 12 -4 43t-2 43q-1 7 -1 19q0 11 2 33t2 34q0 36 12 79q5 18 7.5 39t4.5 32
q2 9 3 17.5t1 12.5t2 8.5t6 8.5q12 13 13 21q7 39 36 71q18 20 37 33t28 16.5t28 8t20 4.5zM271 657q-33 -11 -41 -34q-2 -5 -14 -24.5t-14 -30.5q0 -4 -4 -32.5t-4 -40.5q0 -3 1 -11.5t1 -13.5q0 -12 -2 -18q-8 -18 -12 -64q-2 -6 -2 -11q0 -4 1.5 -14t1.5 -16v-42
q0 -8 -1 -12q-1 -5 -1 -11q0 -7 2 -18t2 -18q4 -44 5 -47q3 -8 7 -22.5t5 -18.5q3 -21 11 -34q6 -12 22 -21.5t33 -9.5q29 0 51 27q11 17 23 50q18 40 19 57q1 9 4 19t3 16q0 4 -1.5 11.5t-1.5 12.5q0 3 1.5 10.5t1.5 10.5q13 41 13 54q0 2 -1 7v5q-4 16 -4 25q0 4 1 12
t1 12q0 5 -0.5 16t-0.5 17q1 10 1 22q0 3 -0.5 7.5t-1 15.5t-0.5 26q0 11 -2 21q-4 20 -11 41q0 1 -0.5 2.5t-0.5 2.5q-3 22 -15 37q-18 21 -31 27q-10 2 -25 2q-6 0 -20 -2zM138 818q0 1 -3 7t-3 8q0 18 10 30q4 5 9 10.5t8.5 9.5t5.5 7q1 3 13.5 10t19.5 9q13 8 37 8
q9 0 48 -9q1 0 2 -0.5t2 -0.5q25 -5 35 -16q10 -13 34 -17q8 0 16 5.5t8 10.5q0 7 15 17.5t23 10.5q13 0 21 -15t8 -34q0 -11 -10.5 -30t-22.5 -24q-8 -4 -13.5 -5.5t-11.5 -2t-10 -1.5q-5 -2 -18 -2q-19 0 -31 6q-38 21 -47 21q-4 1 -9.5 4t-6.5 4q-4 1 -13 4.5t-16 5.5h-3
q-15 0 -27 -13q-17 -15 -19 -23q-2 -15 -21 -17q-24 0 -30 22z" />
    <glyph glyph-name="Odieresis" unicode="&#xd6;" horiz-adv-x="545" 
d="M243 763q14 5 46 5q35 0 48 -3q8 -1 17.5 -6t24.5 -15t19 -13q12 -7 19 -14.5t12 -10.5q5 -4 8.5 -8.5t7.5 -13t7 -13.5t7 -12.5t8.5 -15t11.5 -17.5q9 -15 9 -45q0 -9 1 -15q2 -17 7 -36.5t6 -28.5q2 -17 2 -69q0 -12 -4 -52.5t-4 -53.5q0 -46 -12 -104q-8 -39 -11 -49
q-9 -32 -21 -54q-5 -10 -17.5 -23.5t-15.5 -19.5q-3 -7 -19 -22t-21 -22q-10 -15 -45 -33.5t-67 -18.5q-35 0 -65 6t-37 13q-10 10 -52 45q-10 9 -25 36t-15 43t-11 47t-11 48q0 14 -3 22q-4 12 -4 43t-2 43q-1 7 -1 19q0 11 2 33t2 34q0 36 12 79q5 18 7.5 39t4.5 32
q2 9 3 17.5t1 12.5t2 8.5t6 8.5q12 13 13 21q7 39 36 71q18 20 37 33t28 16.5t28 8t20 4.5zM271 657q-33 -11 -41 -34q-2 -5 -14 -24.5t-14 -30.5q0 -4 -4 -32.5t-4 -40.5q0 -3 1 -11.5t1 -13.5q0 -12 -2 -18q-8 -18 -12 -64q-2 -6 -2 -11q0 -4 1.5 -14t1.5 -16v-42
q0 -8 -1 -12q-1 -5 -1 -11q0 -7 2 -18t2 -18q4 -44 5 -47q3 -8 7 -22.5t5 -18.5q3 -21 11 -34q6 -12 22 -21.5t33 -9.5q29 0 51 27q11 17 23 50q18 40 19 57q1 9 4 19t3 16q0 4 -1.5 11.5t-1.5 12.5q0 3 1.5 10.5t1.5 10.5q13 41 13 54q0 2 -1 7v5q-4 16 -4 25q0 4 1 12
t1 12q0 5 -0.5 16t-0.5 17q1 10 1 22q0 3 -0.5 7.5t-1 15.5t-0.5 26q0 11 -2 21q-4 20 -11 41q0 1 -0.5 2.5t-0.5 2.5q-3 22 -15 37q-18 21 -31 27q-10 2 -25 2q-6 0 -20 -2zM169 899q10 14 34 14h9q16 -3 43 -32q9 -9 9 -23q0 -12 -10 -29q-6 -10 -24 -18t-22 -12
q-6 -9 -25 -9q-15 0 -26 9q-6 6 -12.5 21t-6.5 23q0 15 31 56zM331 898q9 13 40 13l11 2q18 -4 42 -32q8 -9 8 -23t-9 -29q-5 -8 -10 -13t-12.5 -11.5t-11.5 -9.5q-5 -5 -25 -5h-12q-7 1 -16.5 9.5t-10.5 9.5q-17 22 -17 34q0 10 7 28t16 27z" />
    <glyph glyph-name="multiply" unicode="&#xd7;" horiz-adv-x="420" 
d="M205 420l3 4q3 3 10.5 12t16.5 20q6 7 11 13.5t7.5 9.5t5.5 7t5 10q4 6 28 30q3 5 27 8q20 2 26 0.5t25 -10.5q10 -6 16 -12q34 -37 18 -54q-9 -8 -25 -19t-25 -20q-6 -6 -17.5 -19t-16.5 -18q-4 -4 -12 -9.5t-11 -8.5q-10 -9 -12 -24q2 -4 8 -10q3 -3 10.5 -10t20.5 -19
q5 -5 10 -11t7.5 -8.5t6.5 -5t9 -3.5q14 -1 37 -24q16 -16 12 -31q-1 -9 -35 -47q-3 -3 -33 -15q-5 -1 -12 6t-17.5 19.5t-20.5 19.5q-13 10 -46 45q-4 4 -10 9.5t-8.5 8.5t-6.5 5.5t-7 3.5q-8 -9 -31 -33.5t-29 -34.5q-5 -9 -35 -36q-9 -8 -34 0t-40 25q-4 4 -6 5
q-9 9 -11 27.5t4 24.5q7 7 9 7q4 5 19 15.5t23 18.5q11 11 18 21.5t12 15.5l22 23l-32 31q-13 12 -22 21.5t-13.5 14.5t-6.5 7q-7 7 -23 22q-21 21 -11 35q1 1 4.5 11.5t6.5 12.5q7 8 27 17.5t26 8.5q27 -17 38 -28q7 -7 9 -10q8 -12 25 -30t20 -23v-2q5 -5 11 -10.5
t10.5 -8t4.5 -1.5z" />
    <glyph glyph-name="Oslash" unicode="&#xd8;" horiz-adv-x="545" 
d="M165 -1q-5 -25 -76 -31q-18 0 -33 10t-15 16q0 12 7 28t21.5 38.5t15.5 23.5q-12 24 -12 39q0 16 -11 47t-11 48q0 14 -3 22q-7 23 -7 105q0 90 16 146q6 20 9.5 47.5t6 46t8.5 24.5q12 13 13 21q3 17 9.5 32.5t15.5 27t19 21.5t21.5 17.5t21.5 13t21.5 9.5t18.5 6t15 4
l7 2q14 5 46 5h17.5t14.5 -1t11.5 -1.5t10.5 -3t8.5 -3.5t9 -4.5t8.5 -5t10.5 -7t11.5 -7.5q7 22 13.5 31t20.5 9q78 0 78 -35q0 -13 -9 -35.5t-16 -30.5q-11 -13 -15 -23l5 -7q6 -8 8 -11.5t5.5 -12t5 -18t1.5 -21.5q0 -31 8 -65t8 -84q0 -12 -4 -52.5t-4 -53.5
q0 -55 -14.5 -116t-29.5 -91q-5 -10 -17.5 -23.5t-15.5 -19.5q-3 -7 -19 -22t-21 -22q-10 -15 -45 -33.5t-67 -18.5q-35 0 -65 6t-37 13zM184 261q8 5 15 35.5t15 38.5q8 7 38 76l30 71q14 25 30.5 63.5t24.5 51.5q5 25 10 33q-5 6 -9.5 10.5t-7.5 8t-7 5.5l-6 3t-6 1.5
t-5.5 0.5h-7h-7.5q-47 0 -61 -36q-3 -8 -14.5 -26.5t-13.5 -28.5q0 -4 -4 -32.5t-4 -40.5q0 -3 1 -11.5t1 -13.5q0 -10 -8 -44t-8 -49q0 -4 1.5 -14t1.5 -16v-42q0 -4 -1 -12t-1 -11q0 -9 3 -21zM213 124q6 -12 22 -21.5t33 -9.5q14 0 29.5 8.5t21.5 18.5q13 20 31 72.5
t18 69.5q0 4 -1.5 11.5t-1.5 12.5q0 20 8 44t8 31q0 13 -2.5 22.5t-2.5 14.5q0 4 1 12t1 12q0 5 -0.5 16t-0.5 17q-4 -7 -14 -27t-18.5 -33.5t-16.5 -21.5q-12 -12 -16.5 -35.5t-10.5 -31.5t-14.5 -24t-15 -27.5t-11.5 -14.5q-12 -5 -16 -32.5t-14 -34.5q-1 0 -17 -49z" />
    <glyph glyph-name="Ugrave" unicode="&#xd9;" horiz-adv-x="523" 
d="M69 114q-10 39 -12 71q-1 23 -3.5 42.5t-2.5 25.5v26q0 7 1.5 21t1.5 20t-1 14t-1 12q0 7 1 23t1 25t2 23.5t2 21.5q0 11 -2 18q-3 15 -3 27v42q-1 15 -1.5 34t-1.5 33q-1 8 -3.5 33.5t-4 47.5t-1.5 34q3 33 9 42q3 5 18 11t27 6q3 0 8.5 -2t7.5 -2q60 -8 62 -33
q0 -2 3 -17t3 -26q0 -5 -2 -21q-2 -9 -2 -50q0 -11 1 -28.5t1 -23.5q0 -2 -0.5 -6t-0.5 -5q-2 -8 -2 -36q0 -32 -1 -47q0 -3 -0.5 -7t-0.5 -6q0 -8 1.5 -22t1.5 -21t-2 -19.5t-2 -18.5q0 -10 4 -27t5 -26q4 -38 4 -87q0 -19 -1 -24v-4q0 -10 9 -27.5t10 -26.5
q3 -21 16.5 -34t32.5 -13q52 0 69 49q3 8 10.5 25t9.5 31q9 66 9 97q0 55 11 67q7 8 7 26t-7 32q-6 12 -6 25q0 15 6 42t6 40q-5 80 -5 83q0 10 -3.5 31t-3.5 29q-1 9 -6 20.5t-5 17.5q0 5 1 8q3 8 14.5 16.5t26.5 15.5t17 8q6 4 24 4q42 0 46 -20q8 -38 8 -42q0 -6 -1 -10
q0 -1 -0.5 -4.5t-0.5 -5.5q0 -8 2.5 -34.5t2.5 -38.5q0 -9 -1 -13q-8 -64 -8 -72q1 -14 4 -31.5t3 -28.5q0 -2 -0.5 -6.5t-0.5 -7.5q-5 -55 -5 -76q0 -63 -3 -84q-1 -8 -2 -39t-4 -55q0 -2 -0.5 -4.5t-0.5 -3.5q-7 -51 -18 -70q-5 -8 -11.5 -28t-12.5 -27q-4 -4 -10 -12.5
t-13 -15.5q-6 -6 -19 -13t-20 -14q-7 -8 -22.5 -12t-22.5 -8q-27 -15 -79 -15q-21 0 -48.5 7t-37.5 17q-4 4 -29.5 24.5t-30.5 29.5q-10 16 -22 53zM142 895q-3 9 -3 14q0 9 10 29.5t15 23.5q17 11 28 11q9 0 19 -7.5t14 -15.5q55 -55 59 -61q1 -2 21 -20.5t21 -29.5
q5 -14 -2 -29t-21 -15q-7 0 -14.5 3.5t-10.5 3.5q-6 2 -18 9.5t-19 11.5q-8 4 -16.5 15t-15.5 13q-3 2 -21 10.5t-30.5 17t-15.5 16.5z" />
    <glyph glyph-name="Uacute" unicode="&#xda;" horiz-adv-x="523" 
d="M69 114q-10 39 -12 71q-1 23 -3.5 42.5t-2.5 25.5v26q0 7 1.5 21t1.5 20t-1 14t-1 12q0 7 1 23t1 25t2 23.5t2 21.5q0 11 -2 18q-3 15 -3 27v42q-1 15 -1.5 34t-1.5 33q-1 8 -3.5 33.5t-4 47.5t-1.5 34q3 33 9 42q3 5 18 11t27 6q3 0 8.5 -2t7.5 -2q60 -8 62 -33
q0 -2 3 -17t3 -26q0 -5 -2 -21q-2 -9 -2 -50q0 -11 1 -28.5t1 -23.5q0 -2 -0.5 -6t-0.5 -5q-2 -8 -2 -36q0 -32 -1 -47q0 -3 -0.5 -7t-0.5 -6q0 -8 1.5 -22t1.5 -21t-2 -19.5t-2 -18.5q0 -10 4 -27t5 -26q4 -38 4 -87q0 -19 -1 -24v-4q0 -10 9 -27.5t10 -26.5
q3 -21 16.5 -34t32.5 -13q52 0 69 49q3 8 10.5 25t9.5 31q9 66 9 97q0 55 11 67q7 8 7 26t-7 32q-6 12 -6 25q0 15 6 42t6 40q-5 80 -5 83q0 10 -3.5 31t-3.5 29q-1 9 -6 20.5t-5 17.5q0 5 1 8q3 8 14.5 16.5t26.5 15.5t17 8q6 4 24 4q42 0 46 -20q8 -38 8 -42q0 -6 -1 -10
q0 -1 -0.5 -4.5t-0.5 -5.5q0 -8 2.5 -34.5t2.5 -38.5q0 -9 -1 -13q-8 -64 -8 -72q1 -14 4 -31.5t3 -28.5q0 -2 -0.5 -6.5t-0.5 -7.5q-5 -55 -5 -76q0 -63 -3 -84q-1 -8 -2 -39t-4 -55q0 -2 -0.5 -4.5t-0.5 -3.5q-7 -51 -18 -70q-5 -8 -11.5 -28t-12.5 -27q-4 -4 -10 -12.5
t-13 -15.5q-6 -6 -19 -13t-20 -14q-7 -8 -22.5 -12t-22.5 -8q-27 -15 -79 -15q-21 0 -48.5 7t-37.5 17q-4 4 -29.5 24.5t-30.5 29.5q-10 16 -22 53zM375 873q-2 -7 -11.5 -14t-18 -11.5t-21 -10t-15.5 -7.5q-7 -2 -15 -12.5t-16 -14.5t-19.5 -11t-17.5 -9q-2 0 -10 -3.5
t-14 -3.5q-14 0 -21 15t-2 28q1 8 9.5 17t19.5 18t13 12q2 4 57 59q13 22 33 22q14 0 27 -10q6 -3 15.5 -22.5t9.5 -28.5q0 -5 -3 -13z" />
    <glyph glyph-name="Ucircumflex" unicode="&#xdb;" horiz-adv-x="523" 
d="M69 114q12 -37 22 -53q5 -9 30.5 -29.5t29.5 -24.5q10 -10 37.5 -17t48.5 -7q52 0 79 15q7 4 22.5 8t22.5 12q7 7 20 14t19 13q7 7 13 15.5t10 12.5q6 7 12.5 27t11.5 28q11 19 18 70q0 1 0.5 3.5t0.5 4.5q3 24 4 55t2 39q3 21 3 84q0 21 5 76q0 3 0.5 7.5t0.5 6.5
q0 11 -3 28.5t-4 31.5q0 8 8 72q1 4 1 13q0 12 -2.5 38.5t-2.5 34.5q0 2 0.5 5.5t0.5 4.5q1 4 1 10q0 4 -8 42q-4 20 -46 20q-18 0 -24 -4q-2 -1 -17 -8t-26.5 -15.5t-14.5 -16.5q-1 -3 -1 -8q0 -6 5 -17.5t6 -20.5q0 -8 3.5 -29t3.5 -31q0 -3 5 -83q0 -13 -6 -40t-6 -42
q0 -13 6 -25q7 -14 7 -32t-7 -26q-11 -12 -11 -67q0 -31 -9 -97q-2 -14 -9.5 -31t-10.5 -25q-17 -49 -69 -49q-19 0 -32.5 13t-16.5 34q-1 9 -10 26.5t-9 27.5v4q1 5 1 24q0 49 -4 87q-1 9 -5 26t-4 27q0 6 2 18.5t2 19.5t-1.5 21t-1.5 22q0 2 0.5 6t0.5 7q1 15 1 47
q0 28 2 36q0 1 0.5 5t0.5 6q0 6 -1 23.5t-1 28.5q0 41 2 50q2 16 2 21q0 11 -3 26t-3 17q-2 25 -62 33q-2 0 -7.5 2t-8.5 2q-12 0 -27 -6t-18 -11q-6 -9 -9 -42q0 -12 1.5 -34t4 -47.5t3.5 -33.5q1 -14 1.5 -33t1.5 -34v-42q0 -12 3 -27q2 -7 2 -18q0 -7 -2 -21.5t-2 -23.5
t-1 -25t-1 -23q0 -4 1 -12t1 -14t-1.5 -20t-1.5 -21v-26q0 -6 2.5 -25.5t3.5 -42.5q2 -32 12 -71zM131 804q-13 3 -24 13.5t-12 21.5v6q0 18 13 30q3 3 11 8.5t12.5 9.5t5.5 7q2 5 16.5 18.5t17.5 17.5q18 18 23 25q4 7 24.5 22t32.5 15q13 -1 29.5 -10t23.5 -19q2 -4 4 -7
t5 -6t5 -4.5t7 -4.5t8 -6q6 -5 14.5 -21.5t20.5 -24.5q24 -13 33 -39q5 -13 5 -18q0 -6 -5 -14q-19 -22 -39 -22q-22 0 -25 3q-12 1 -25.5 12.5t-18.5 25.5q-4 9 -25 37q-1 2 -3 6.5t-3.5 7.5t-3.5 6.5t-5 5t-7 1.5q-7 0 -18.5 -12.5t-18.5 -23.5q-2 -5 -29 -47
q-3 -8 -20 -14t-29 -6z" />
    <glyph glyph-name="Udieresis" unicode="&#xdc;" horiz-adv-x="523" 
d="M69 114q12 -37 22 -53q5 -9 30.5 -29.5t29.5 -24.5q10 -10 37.5 -17t48.5 -7q52 0 79 15q7 4 22.5 8t22.5 12q7 7 20 14t19 13q7 7 13 15.5t10 12.5q6 7 12.5 27t11.5 28q11 19 18 70q0 1 0.5 3.5t0.5 4.5q3 24 4 55t2 39q3 21 3 84q0 21 5 76q0 3 0.5 7.5t0.5 6.5
q0 11 -3 28.5t-4 31.5q0 8 8 72q1 4 1 13q0 12 -2.5 38.5t-2.5 34.5q0 2 0.5 5.5t0.5 4.5q1 4 1 10q0 4 -8 42q-4 20 -46 20q-18 0 -24 -4q-2 -1 -17 -8t-26.5 -15.5t-14.5 -16.5q-1 -3 -1 -8q0 -6 5 -17.5t6 -20.5q0 -8 3.5 -29t3.5 -31q0 -3 5 -83q0 -13 -6 -40t-6 -42
q0 -13 6 -25q7 -14 7 -32t-7 -26q-11 -12 -11 -67q0 -31 -9 -97q-2 -14 -9.5 -31t-10.5 -25q-17 -49 -69 -49q-19 0 -32.5 13t-16.5 34q-1 9 -10 26.5t-9 27.5v4q1 5 1 24q0 49 -4 87q-1 9 -5 26t-4 27q0 6 2 18.5t2 19.5t-1.5 21t-1.5 22q0 2 0.5 6t0.5 7q1 15 1 47
q0 28 2 36q0 1 0.5 5t0.5 6q0 6 -1 23.5t-1 28.5q0 41 2 50q2 16 2 21q0 11 -3 26t-3 17q-2 25 -62 33q-2 0 -7.5 2t-8.5 2q-12 0 -27 -6t-18 -11q-6 -9 -9 -42q0 -12 1.5 -34t4 -47.5t3.5 -33.5q1 -14 1.5 -33t1.5 -34v-42q0 -12 3 -27q2 -7 2 -18q0 -7 -2 -21.5t-2 -23.5
t-1 -25t-1 -23q0 -4 1 -12t1 -14t-1.5 -20t-1.5 -21v-26q0 -6 2.5 -25.5t3.5 -42.5q2 -32 12 -71zM145 901q10 14 34 14h9q16 -3 43 -32q9 -9 9 -23q0 -12 -10 -29q-6 -10 -24 -18t-22 -12q-6 -9 -25 -9q-15 0 -26 9q-6 6 -12.5 21t-6.5 23q0 15 31 56zM307 900q9 13 40 13
l11 2q18 -4 42 -32q8 -9 8 -23t-9 -29q-5 -8 -10 -13t-12.5 -11.5t-11.5 -9.5q-5 -5 -25 -5h-12q-7 1 -16.5 9.5t-10.5 9.5q-17 22 -17 34q0 10 7 28t16 27z" />
    <glyph glyph-name="Yacute" unicode="&#xdd;" horiz-adv-x="516" 
d="M21 706q0 17 16.5 30t28.5 14q27 3 30 3q2 0 5 -1t5 -1q15 0 38.5 -13.5t23.5 -26.5q0 -8 -4.5 -21t-5.5 -16q0 -4 4 -13.5t4 -14.5v-39q0 -9 3 -24t3 -29q0 -11 8 -55q7 -39 14 -52l3.5 -7t4 -7.5t4 -6.5t6.5 -6l9 -4.5t13 -3.5t18 -1q57 0 78 55q3 6 6.5 13.5t5 11.5
t4 11.5t3.5 17.5q6 44 6 60q0 9 3 24.5t3 22.5q0 4 -2 12q0 10 -6.5 29t-6.5 29q0 1 0.5 4t0.5 5q1 8 3 13t3 7t5 6l6 6q6 7 34.5 13t40.5 6q15 -1 34.5 -9.5t20.5 -19.5q0 -12 0.5 -22t0.5 -11q-6 -23 -7.5 -44t-3.5 -33q-3 -16 -3 -23q0 -27 -2 -38q-2 -10 -3 -20.5
t-2 -15.5t-3.5 -12.5t-7.5 -17.5q-8 -15 -27 -63l-2 -11q-3 -11 -11 -24q-23 -36 -31 -40q-22 -12 -38 -22t-23 -14.5t-10 -5.5q-7 -3 -7 -35q0 -20 -3 -43t-3 -48q0 -18 3 -37q6 -39 9 -50q8 -26 10 -43q0 -16 -9.5 -33t-20.5 -25t-31 -8q-61 0 -67 10q0 4 -9 19t-9 24
t5.5 24t5.5 23q0 2 -0.5 5.5t-0.5 6.5q-2 24 -2 30q0 1 2 39q0 9 2 29.5t2 29.5q0 11 -1 16l-7 44q-3 12 -11.5 20t-16 11t-22.5 8q-38 12 -57 37q-8 11 -13.5 26t-9.5 21q-16 26 -16 52q0 12 -6 33.5t-6 28.5q1 7 2.5 18.5t2.5 20.5t1 15q0 8 -1.5 23t-1.5 23q0 9 -6 36
t-8 44zM368 850q-3 -8 -14.5 -16t-29 -16t-19.5 -9q-7 -2 -14.5 -12t-15.5 -14q-6 -3 -17.5 -10t-17.5 -9q-2 0 -9.5 -3.5t-13.5 -3.5q-13 0 -19.5 14t-2.5 27q1 10 20.5 27.5t19.5 18.5q3 4 55 57q12 21 31 21q13 0 26 -10q5 -3 14.5 -22t9.5 -27q0 -5 -3 -13z" />
    <glyph glyph-name="Thorn" unicode="&#xde;" horiz-adv-x="431" 
d="M140 405q0 -6 2 -10v-7q0 -8 -2.5 -26.5t-2.5 -24.5q0 -2 1 -4t1 -3q0 -4 1.5 -25.5t2.5 -32.5q3 -3 6 -9.5t6 -8.5q12 -8 47 -8q19 0 24 1q25 6 60 23l4 1q12 6 19.5 28t7.5 40q0 1 -1 4t-1 4q-1 3 -1 11v15q0 20 -5 29q-6 15 -24 31t-33 24q-12 4 -22 4
q-2 0 -10.5 -0.5t-15.5 -0.5q-12 -1 -25 -12t-18 -24q-10 -14 -21 -19zM141 520q17 16 42.5 24.5t36.5 8.5q48 0 116 -27q9 -4 19 -20.5t13 -19.5q29 -32 31 -48q3 -26 8 -41l1 -1v-3q4 -16 4 -36q0 -11 -2 -29q-4 -30 -13 -58q-5 -15 -20.5 -38t-27.5 -32q-39 -31 -71 -31
q-13 0 -36 -6.5t-34 -6.5q-7 0 -11 2q-33 7 -34 7q-1 3 -2 4l-15 5q0 -2 -0.5 -8.5t-0.5 -10.5q-1 -15 -4 -22t-3 -12q0 -9 2 -18q3 -17 3 -78q0 -37 -42 -39h-34q-13 0 -23.5 6t-10.5 15q0 50 4 78v8q0 9 -3 24t-3 18q1 3 1.5 58t2.5 66v26q0 26 2 33q5 30 5 51q0 12 -1 17
q-4 24 -4 56q-4 60 -4 70q0 7 0.5 11t0.5 7q0 11 -1 23q-5 43 -5 54q0 6 1 8v7q0 4 -1 10.5t-1 11.5q0 1 0.5 4t0.5 5q1 14 12.5 23.5t22.5 12.5q4 1 44 1q33 0 33 -24q-1 -12 3.5 -36t1.5 -33q-2 -10 -2.5 -40t-1.5 -37z" />
    <glyph glyph-name="germandbls" unicode="&#xdf;" horiz-adv-x="463" 
d="M319 130q3 12 3 22.5t-1.5 19.5t-1.5 12q-2 6 -9.5 22t-10.5 18q-7 4 -15.5 20t-15.5 20q-12 7 -21 18t-16.5 24t-9.5 15q-7 9 -9 24q0 15 2 23q14 33 29 51q31 37 28 88v11.5t-2 12.5q-6 13 -15 27t-12 22q-7 22 -53 21q-12 -1 -18 -9.5t-11 -28.5q-3 -2 -1 -44.5
t2 -61.5t1 -39t2.5 -31t0.5 -15q-2 -3 -2.5 -24.5t-1.5 -28.5t2 -34.5t3 -39.5q0 -11 1 -32.5t2 -34.5q1 -4 1 -10v-9q-4 -14 -3 -51.5t1 -38.5q-3 -8 -3.5 -26.5t-7.5 -28.5q-12 -18 -66 -22q-27 0 -30 3q-19 10 -19 34q0 8 3 28.5t4 31.5v20q-1 7 -2 16.5t-2 16.5t-1 11
t5.5 25.5t4.5 35.5q-1 6 -5.5 21.5t-4.5 23.5q-1 16 3 29q0 76 -1 92q0 4 -2 15.5t-2 17.5q-1 8 2 21.5t3 19.5q0 5 -3 13.5t-3 12.5q-1 11 2 38.5t3 38.5q0 7 -3 9q-1 3 -1 13q-1 13 2.5 37.5t3.5 25.5q0 5 3 10t8.5 10t10 8.5t12 8.5l10.5 7q12 11 70 13q10 0 24 -2
q7 -2 27 -5t32.5 -5.5t25.5 -8t18 -11.5q7 -10 30.5 -19.5t30.5 -18.5q7 -10 18 -26.5t18 -26.5q5 -8 7.5 -18t3 -16t0.5 -17v-14q2 -28 -25 -72q-34 -63 -34 -76q3 -30 19 -43q7 -6 20 -19t20 -19q24 -24 36 -55q4 -12 6 -25.5t2 -29.5t1 -22q3 -28 -31 -95q-7 -15 -38 -34
t-46 -23q-65 -16 -85 -10q-15 5 -26 19.5t-11 33.5q0 21 9.5 39t23.5 18q8 0 19 -3t20 -1q16 3 28 15t14 21z" />
    <glyph glyph-name="agrave" unicode="&#xe0;" horiz-adv-x="468" 
d="M92 -1q-2 0 -4 -0.5t-3 -0.5q-5 0 -8 3t-7 3q-6 0 -9 0.5t-5.5 3.5t-2.5 10q0 6 -1.5 14.5t-1.5 16.5q0 7 -0.5 18t-0.5 19q0 30 3 36q2 4 2 7q0 2 -7 21q-16 39 -16 45q0 2 -0.5 7t-0.5 8q0 9 4 13q3 2 12 3.5t11 4.5q1 1 1 6q0 2 -1.5 14t-1.5 24q0 40 5 45q3 3 3 15
v110q0 10 3 22v5q1 2 1 9q0 5 -1 15.5t-1 15.5q0 12 4 19q5 7 8 19.5t7 18.5q21 31 22 38q0 7 5 14t8.5 10t13.5 9.5t11 7.5q7 5 24 12t20 10q5 5 30 10.5t39 5.5q42 0 68 -16q13 -8 44 -36q29 -29 38 -60q14 -47 14 -71q0 -4 1.5 -26t1.5 -32q0 -8 -1 -10q-4 -11 -4 -41
q0 -23 2 -33q2 -13 2 -78q0 -15 2 -31t2 -21q0 -3 0.5 -12.5t0.5 -14.5q0 -15 -1 -22q-8 -43 -8 -49q4 -30 4 -49q0 -9 0.5 -26t0.5 -22q0 -11 -4.5 -25.5t-11.5 -15.5q-14 -2 -33 -2q-45 0 -59 2q-19 3 -22 21v24q0 12 -1 19q0 4 -2.5 11t-2.5 11q0 6 5 11l5 2q4 3 4.5 6
t0.5 11q0 5 1.5 11t1.5 7q0 4 -13 4q-8 0 -9 1t-10 1q-4 0 -20.5 3t-28.5 3q-32 0 -46 -14q-13 -13 -13 -34q0 -5 -1.5 -15t-1.5 -20q0 -8 2.5 -16t2.5 -12q0 -6 -1 -9q-2 -12 -59 -18l-5 -2q-1 0 -3 -1h-4zM179 248q3 -10 9 -10q1 0 5 0.5t9 0.5q7 0 11.5 2.5t11.5 2.5
q3 0 7 0.5t8 0.5q6 0 20.5 -4t16.5 -4q6 0 6 1l-1 2l-1 2q0 1 3 1q8 0 25 13q2 2 2 5q0 5 -1.5 12.5t-1.5 14.5q0 6 3 17q3 9 12 9q3 0 4 6q0 4 -9 4q-7 0 -9 4q-6 11 -6 31q0 9 2 17t2 13q0 3 -1 15.5t-1 24.5q0 9 -2.5 29t-2.5 23q0 7 -3 22.5t-3 27.5q0 25 -5 32.5
t-23 16.5q-3 1 -14 1q-14 0 -37 -11q-6 -2 -19 -16q-6 -8 -6 -14q0 -2 0.5 -5t0.5 -4l-2 -8q-3 -7 -3 -19t-4 -21t-4 -17l4 -30q0 -2 0.5 -4t0.5 -4q0 -4 -1 -13.5t-1 -14.5v-19q0 -11 -2.5 -23.5t-2.5 -21.5q0 -10 -2 -24t-2 -29q0 -11 1 -16.5t3 -10t3 -8.5zM142 814
q-3 8 -3 13q0 8 9.5 27t14.5 22q12 10 26 10q19 0 31 -21q52 -53 55 -57q1 -1 20 -18.5t20 -27.5q4 -13 -2.5 -27t-19.5 -14q-6 0 -13.5 3.5t-9.5 3.5q-6 2 -17.5 9t-17.5 10q-8 4 -15.5 14t-14.5 12q-2 1 -19.5 9t-29 16t-14.5 16z" />
    <glyph glyph-name="aacute" unicode="&#xe1;" horiz-adv-x="468" 
d="M92 -1q-2 0 -4 -0.5t-3 -0.5q-5 0 -8 3t-7 3q-6 0 -9 0.5t-5.5 3.5t-2.5 10q0 6 -1.5 14.5t-1.5 16.5q0 7 -0.5 18t-0.5 19q0 30 3 36q2 4 2 7q0 2 -7 21q-16 39 -16 45q0 2 -0.5 7t-0.5 8q0 9 4 13q3 2 12 3.5t11 4.5q1 1 1 6q0 2 -1.5 14t-1.5 24q0 40 5 45q3 3 3 15
v110q0 10 3 22v5q1 2 1 9q0 5 -1 15.5t-1 15.5q0 12 4 19q5 7 8 19.5t7 18.5q21 31 22 38q0 7 5 14t8.5 10t13.5 9.5t11 7.5q7 5 24 12t20 10q5 5 30 10.5t39 5.5q42 0 68 -16q13 -8 44 -36q29 -29 38 -60q14 -47 14 -71q0 -4 1.5 -26t1.5 -32q0 -8 -1 -10q-4 -11 -4 -41
q0 -23 2 -33q2 -13 2 -78q0 -15 2 -31t2 -21q0 -3 0.5 -12.5t0.5 -14.5q0 -15 -1 -22q-8 -43 -8 -49q4 -30 4 -49q0 -9 0.5 -26t0.5 -22q0 -11 -4.5 -25.5t-11.5 -15.5q-14 -2 -33 -2q-45 0 -59 2q-19 3 -22 21v24q0 12 -1 19q0 4 -2.5 11t-2.5 11q0 6 5 11l5 2q4 3 4.5 6
t0.5 11q0 5 1.5 11t1.5 7q0 4 -13 4q-8 0 -9 1t-10 1q-4 0 -20.5 3t-28.5 3q-32 0 -46 -14q-13 -13 -13 -34q0 -5 -1.5 -15t-1.5 -20q0 -8 2.5 -16t2.5 -12q0 -6 -1 -9q-2 -12 -59 -18l-5 -2q-1 0 -3 -1h-4zM179 248q3 -10 9 -10q1 0 5 0.5t9 0.5q7 0 11.5 2.5t11.5 2.5
q3 0 7 0.5t8 0.5q6 0 20.5 -4t16.5 -4q6 0 6 1l-1 2l-1 2q0 1 3 1q8 0 25 13q2 2 2 5q0 5 -1.5 12.5t-1.5 14.5q0 6 3 17q3 9 12 9q3 0 4 6q0 4 -9 4q-7 0 -9 4q-6 11 -6 31q0 9 2 17t2 13q0 3 -1 15.5t-1 24.5q0 9 -2.5 29t-2.5 23q0 7 -3 22.5t-3 27.5q0 25 -5 32.5
t-23 16.5q-3 1 -14 1q-14 0 -37 -11q-6 -2 -19 -16q-6 -8 -6 -14q0 -2 0.5 -5t0.5 -4l-2 -8q-3 -7 -3 -19t-4 -21t-4 -17l4 -30q0 -2 0.5 -4t0.5 -4q0 -4 -1 -13.5t-1 -14.5v-19q0 -11 -2.5 -23.5t-2.5 -21.5q0 -10 -2 -24t-2 -29q0 -11 1 -16.5t3 -10t3 -8.5zM323 807
q-3 -8 -14.5 -16t-29 -16t-19.5 -9q-7 -2 -14.5 -12t-15.5 -14q-6 -3 -17.5 -10t-17.5 -9q-2 0 -9.5 -3.5t-13.5 -3.5q-13 0 -19.5 14t-2.5 27q1 10 20.5 27.5t19.5 18.5q2 5 55 57q12 21 31 21q14 0 26 -10q5 -3 14.5 -22t9.5 -27q0 -6 -3 -13z" />
    <glyph glyph-name="acircumflex" unicode="&#xe2;" horiz-adv-x="468" 
d="M92 -1q-2 0 -4 -0.5t-3 -0.5q-5 0 -8 3t-7 3q-6 0 -9 0.5t-5.5 3.5t-2.5 10q0 6 -1.5 14.5t-1.5 16.5q0 7 -0.5 18t-0.5 19q0 30 3 36q2 4 2 7q0 2 -7 21q-16 39 -16 45q0 2 -0.5 7t-0.5 8q0 9 4 13q3 2 12 3.5t11 4.5q1 1 1 6q0 2 -1.5 14t-1.5 24q0 40 5 45q3 3 3 15
v110q0 10 3 22v5q1 2 1 9q0 5 -1 15.5t-1 15.5q0 12 4 19q5 7 8 19.5t7 18.5q21 31 22 38q0 7 5 14t8.5 10t13.5 9.5t11 7.5q7 5 24 12t20 10q5 5 30 10.5t39 5.5q42 0 68 -16q13 -8 44 -36q29 -29 38 -60q14 -47 14 -71q0 -4 1.5 -26t1.5 -32q0 -8 -1 -10q-4 -11 -4 -41
q0 -23 2 -33q2 -13 2 -78q0 -15 2 -31t2 -21q0 -3 0.5 -12.5t0.5 -14.5q0 -15 -1 -22q-8 -43 -8 -49q4 -30 4 -49q0 -9 0.5 -26t0.5 -22q0 -11 -4.5 -25.5t-11.5 -15.5q-14 -2 -33 -2q-45 0 -59 2q-19 3 -22 21v24q0 12 -1 19q0 4 -2.5 11t-2.5 11q0 6 5 11l5 2q4 3 4.5 6
t0.5 11q0 5 1.5 11t1.5 7q0 4 -13 4q-8 0 -9 1t-10 1q-4 0 -20.5 3t-28.5 3q-32 0 -46 -14q-13 -13 -13 -34q0 -5 -1.5 -15t-1.5 -20q0 -8 2.5 -16t2.5 -12q0 -6 -1 -9q-2 -12 -59 -18l-5 -2q-1 0 -3 -1h-4zM179 248q3 -10 9 -10q1 0 5 0.5t9 0.5q7 0 11.5 2.5t11.5 2.5
q3 0 7 0.5t8 0.5q6 0 20.5 -4t16.5 -4q6 0 6 1l-1 2l-1 2q0 1 3 1q8 0 25 13q2 2 2 5q0 5 -1.5 12.5t-1.5 14.5q0 6 3 17q3 9 12 9q3 0 4 6q0 4 -9 4q-7 0 -9 4q-6 11 -6 31q0 9 2 17t2 13q0 3 -1 15.5t-1 24.5q0 9 -2.5 29t-2.5 23q0 7 -3 22.5t-3 27.5q0 25 -5 32.5
t-23 16.5q-3 1 -14 1q-14 0 -37 -11q-6 -2 -19 -16q-6 -8 -6 -14q0 -2 0.5 -5t0.5 -4l-2 -8q-3 -7 -3 -19t-4 -21t-4 -17l4 -30q0 -2 0.5 -4t0.5 -4q0 -4 -1 -13.5t-1 -14.5v-19q0 -11 -2.5 -23.5t-2.5 -21.5q0 -10 -2 -24t-2 -29q0 -11 1 -16.5t3 -10t3 -8.5zM129 706
q-13 3 -24 13.5t-12 21.5v6q0 18 13 30q3 3 11 8.5t12.5 9.5t5.5 7q2 5 16.5 18.5t17.5 17.5q18 18 23 25q4 7 24.5 22t32.5 15q13 -1 29.5 -10t23.5 -19q2 -4 4 -7t5 -6t5 -4.5t7 -4.5t8 -6q6 -5 14.5 -21.5t20.5 -24.5q24 -13 33 -39q5 -13 5 -18q0 -6 -5 -14
q-19 -22 -39 -22q-22 0 -25 3q-12 1 -25.5 13t-18.5 25q-4 9 -25 37q-1 2 -3 6.5t-3.5 7.5t-3.5 6.5t-5 5t-7 1.5q-7 0 -18.5 -12.5t-18.5 -23.5q-2 -5 -29 -47q-3 -8 -20 -14t-29 -6z" />
    <glyph glyph-name="atilde" unicode="&#xe3;" horiz-adv-x="468" 
d="M92 -1q-2 0 -4 -0.5t-3 -0.5q-5 0 -8 3t-7 3q-6 0 -9 0.5t-5.5 3.5t-2.5 10q0 6 -1.5 14.5t-1.5 16.5q0 7 -0.5 18t-0.5 19q0 30 3 36q2 4 2 7q0 2 -7 21q-16 39 -16 45q0 2 -0.5 7t-0.5 8q0 9 4 13q3 2 12 3.5t11 4.5q1 1 1 6q0 2 -1.5 14t-1.5 24q0 40 5 45q3 3 3 15
v110q0 10 3 22v5q1 2 1 9q0 5 -1 15.5t-1 15.5q0 12 4 19q5 7 8 19.5t7 18.5q21 31 22 38q0 7 5 14t8.5 10t13.5 9.5t11 7.5q7 5 24 12t20 10q5 5 30 10.5t39 5.5q42 0 68 -16q13 -8 44 -36q29 -29 38 -60q14 -47 14 -71q0 -4 1.5 -26t1.5 -32q0 -8 -1 -10q-4 -11 -4 -41
q0 -23 2 -33q2 -13 2 -78q0 -15 2 -31t2 -21q0 -3 0.5 -12.5t0.5 -14.5q0 -15 -1 -22q-8 -43 -8 -49q4 -30 4 -49q0 -9 0.5 -26t0.5 -22q0 -11 -4.5 -25.5t-11.5 -15.5q-14 -2 -33 -2q-45 0 -59 2q-19 3 -22 21v24q0 12 -1 19q0 4 -2.5 11t-2.5 11q0 6 5 11l5 2q4 3 4.5 6
t0.5 11q0 5 1.5 11t1.5 7q0 4 -13 4q-8 0 -9 1t-10 1q-4 0 -20.5 3t-28.5 3q-32 0 -46 -14q-13 -13 -13 -34q0 -5 -1.5 -15t-1.5 -20q0 -8 2.5 -16t2.5 -12q0 -6 -1 -9q-2 -12 -59 -18l-5 -2q-1 0 -3 -1h-4zM179 248q3 -10 9 -10q1 0 5 0.5t9 0.5q7 0 11.5 2.5t11.5 2.5
q3 0 7 0.5t8 0.5q6 0 20.5 -4t16.5 -4q6 0 6 1l-1 2l-1 2q0 1 3 1q8 0 25 13q2 2 2 5q0 5 -1.5 12.5t-1.5 14.5q0 6 3 17q3 9 12 9q3 0 4 6q0 4 -9 4q-7 0 -9 4q-6 11 -6 31q0 9 2 17t2 13q0 3 -1 15.5t-1 24.5q0 9 -2.5 29t-2.5 23q0 7 -3 22.5t-3 27.5q0 25 -5 32.5
t-23 16.5q-3 1 -14 1q-14 0 -37 -11q-6 -2 -19 -16q-6 -8 -6 -14q0 -2 0.5 -5t0.5 -4l-2 -8q-3 -7 -3 -19t-4 -21t-4 -17l4 -30q0 -2 0.5 -4t0.5 -4q0 -4 -1 -13.5t-1 -14.5v-19q0 -11 -2.5 -23.5t-2.5 -21.5q0 -10 -2 -24t-2 -29q0 -11 1 -16.5t3 -10t3 -8.5zM90 738
q0 1 -3 7t-3 8q0 18 10 30q4 5 9 10.5t8.5 9.5t5.5 7q1 3 13.5 10t19.5 9q13 8 37 8q9 0 48 -9q1 0 2 -0.5t2 -0.5q25 -5 35 -16q10 -13 34 -17q8 0 16 5.5t8 10.5q0 7 15 17.5t23 10.5q13 0 21 -15t8 -34q0 -11 -10.5 -30t-22.5 -24q-8 -4 -13.5 -5.5t-11.5 -2t-10 -1.5
q-5 -2 -18 -2q-19 0 -31 6q-38 21 -47 21q-4 1 -9.5 4t-6.5 4q-4 1 -13 4.5t-16 5.5h-3q-15 0 -27 -13q-17 -15 -19 -23q-2 -15 -21 -17q-24 0 -30 22z" />
    <glyph glyph-name="adieresis" unicode="&#xe4;" horiz-adv-x="468" 
d="M92 -1q-2 0 -4 -0.5t-3 -0.5q-5 0 -8 3t-7 3q-6 0 -9 0.5t-5.5 3.5t-2.5 10q0 6 -1.5 14.5t-1.5 16.5q0 7 -0.5 18t-0.5 19q0 30 3 36q2 4 2 7q0 2 -7 21q-16 39 -16 45q0 2 -0.5 7t-0.5 8q0 9 4 13q3 2 12 3.5t11 4.5q1 1 1 6q0 2 -1.5 14t-1.5 24q0 40 5 45q3 3 3 15
v110q0 10 3 22v5q1 2 1 9q0 5 -1 15.5t-1 15.5q0 12 4 19q5 7 8 19.5t7 18.5q21 31 22 38q0 7 5 14t8.5 10t13.5 9.5t11 7.5q7 5 24 12t20 10q5 5 30 10.5t39 5.5q42 0 68 -16q13 -8 44 -36q29 -29 38 -60q14 -47 14 -71q0 -4 1.5 -26t1.5 -32q0 -8 -1 -10q-4 -11 -4 -41
q0 -23 2 -33q2 -13 2 -78q0 -15 2 -31t2 -21q0 -3 0.5 -12.5t0.5 -14.5q0 -15 -1 -22q-8 -43 -8 -49q4 -30 4 -49q0 -9 0.5 -26t0.5 -22q0 -11 -4.5 -25.5t-11.5 -15.5q-14 -2 -33 -2q-45 0 -59 2q-19 3 -22 21v24q0 12 -1 19q0 4 -2.5 11t-2.5 11q0 6 5 11l5 2q4 3 4.5 6
t0.5 11q0 5 1.5 11t1.5 7q0 4 -13 4q-8 0 -9 1t-10 1q-4 0 -20.5 3t-28.5 3q-32 0 -46 -14q-13 -13 -13 -34q0 -5 -1.5 -15t-1.5 -20q0 -8 2.5 -16t2.5 -12q0 -6 -1 -9q-2 -12 -59 -18l-5 -2q-1 0 -3 -1h-4zM179 248q3 -10 9 -10q1 0 5 0.5t9 0.5q7 0 11.5 2.5t11.5 2.5
q3 0 7 0.5t8 0.5q6 0 20.5 -4t16.5 -4q6 0 6 1l-1 2l-1 2q0 1 3 1q8 0 25 13q2 2 2 5q0 5 -1.5 12.5t-1.5 14.5q0 6 3 17q3 9 12 9q3 0 4 6q0 4 -9 4q-7 0 -9 4q-6 11 -6 31q0 9 2 17t2 13q0 3 -1 15.5t-1 24.5q0 9 -2.5 29t-2.5 23q0 7 -3 22.5t-3 27.5q0 25 -5 32.5
t-23 16.5q-3 1 -14 1q-14 0 -37 -11q-6 -2 -19 -16q-6 -8 -6 -14q0 -2 0.5 -5t0.5 -4l-2 -8q-3 -7 -3 -19t-4 -21t-4 -17l4 -30q0 -2 0.5 -4t0.5 -4q0 -4 -1 -13.5t-1 -14.5v-19q0 -11 -2.5 -23.5t-2.5 -21.5q0 -10 -2 -24t-2 -29q0 -11 1 -16.5t3 -10t3 -8.5zM133 822
q10 14 34 14h9q16 -3 43 -32q9 -9 9 -23q0 -12 -10 -29q-6 -10 -24 -18t-22 -12q-6 -9 -25 -9q-15 0 -26 9q-6 6 -12.5 21t-6.5 23q0 15 31 56zM295 821q9 13 40 13l11 2q18 -4 42 -32q8 -9 8 -23t-9 -29q-5 -8 -10 -13t-12.5 -11.5t-11.5 -9.5q-5 -5 -25 -5h-12
q-7 1 -16.5 9.5t-10.5 9.5q-17 22 -17 34q0 10 7 28t16 27z" />
    <glyph glyph-name="aring" unicode="&#xe5;" horiz-adv-x="468" 
d="M92 -1q-2 0 -4 -0.5t-3 -0.5q-5 0 -8 3t-7 3q-6 0 -9 0.5t-5.5 3.5t-2.5 10q0 6 -1.5 14.5t-1.5 16.5q0 7 -0.5 18t-0.5 19q0 30 3 36q2 4 2 7q0 2 -7 21q-16 39 -16 45q0 2 -0.5 7t-0.5 8q0 9 4 13q3 2 12 3.5t11 4.5q1 1 1 6q0 2 -1.5 14t-1.5 24q0 40 5 45q3 3 3 15
v110q0 10 3 22v5q1 2 1 9q0 5 -1 15.5t-1 15.5q0 12 4 19q5 7 8 19.5t7 18.5q21 31 22 38q0 7 5 14t8.5 10t13.5 9.5t11 7.5q7 5 24 12t20 10q5 5 30 10.5t39 5.5q42 0 68 -16q13 -8 44 -36q29 -29 38 -60q14 -47 14 -71q0 -4 1.5 -26t1.5 -32q0 -8 -1 -10q-4 -11 -4 -41
q0 -23 2 -33q2 -13 2 -78q0 -15 2 -31t2 -21q0 -3 0.5 -12.5t0.5 -14.5q0 -15 -1 -22q-8 -43 -8 -49q4 -30 4 -49q0 -9 0.5 -26t0.5 -22q0 -11 -4.5 -25.5t-11.5 -15.5q-14 -2 -33 -2q-45 0 -59 2q-19 3 -22 21v24q0 12 -1 19q0 4 -2.5 11t-2.5 11q0 6 5 11l5 2q4 3 4.5 6
t0.5 11q0 5 1.5 11t1.5 7q0 4 -13 4q-8 0 -9 1t-10 1q-4 0 -20.5 3t-28.5 3q-32 0 -46 -14q-13 -13 -13 -34q0 -5 -1.5 -15t-1.5 -20q0 -8 2.5 -16t2.5 -12q0 -6 -1 -9q-2 -12 -59 -18l-5 -2q-1 0 -3 -1h-4zM179 248q3 -10 9 -10q1 0 5 0.5t9 0.5q7 0 11.5 2.5t11.5 2.5
q3 0 7 0.5t8 0.5q6 0 20.5 -4t16.5 -4q6 0 6 1l-1 2l-1 2q0 1 3 1q8 0 25 13q2 2 2 5q0 5 -1.5 12.5t-1.5 14.5q0 6 3 17q3 9 12 9q3 0 4 6q0 4 -9 4q-7 0 -9 4q-6 11 -6 31q0 9 2 17t2 13q0 3 -1 15.5t-1 24.5q0 9 -2.5 29t-2.5 23q0 7 -3 22.5t-3 27.5q0 25 -5 32.5
t-23 16.5q-3 1 -14 1q-14 0 -37 -11q-6 -2 -19 -16q-6 -8 -6 -14q0 -2 0.5 -5t0.5 -4l-2 -8q-3 -7 -3 -19t-4 -21t-4 -17l4 -30q0 -2 0.5 -4t0.5 -4q0 -4 -1 -13.5t-1 -14.5v-19q0 -11 -2.5 -23.5t-2.5 -21.5q0 -10 -2 -24t-2 -29q0 -11 1 -16.5t3 -10t3 -8.5zM191 892
q21 20 63 20q36 0 58 -17t27 -33t5 -32q0 -11 -1.5 -19.5t-1.5 -9.5q0 -2 0.5 -6t0.5 -8l-9 -18q0 -9 -6.5 -16t-17.5 -13t-15 -10q-4 -8 -42 -8q-42 0 -71.5 18.5t-29.5 42.5q0 3 7 35q0 2 -1 8.5t-1 10.5q0 11 3.5 20t6.5 12.5t12.5 11.5t12.5 11zM235 851q-2 -1 -10 -14
t-8 -17q0 -35 25 -38q36 0 39 27q0 22 -9.5 33.5t-23.5 11.5q-1 0 -13 -3z" />
    <glyph glyph-name="ae" unicode="&#xe6;" horiz-adv-x="631" 
d="M241 682q9 2 23 1.5t35.5 -2t24.5 -1.5q33 0 61 -4q16 -2 25 -2q8 0 25 1t20 1h19q31 0 41 -2q3 -1 11 -1q7 0 22.5 1.5t21.5 1.5q15 -1 26.5 -8.5t11.5 -15.5v-37q0 -12 -5.5 -33t-12.5 -23q-18 -7 -53 -7h-9q-15 3 -55 5q-5 -1 -18 -1q-9 0 -9 -21q0 -4 -4 -12.5
t-5 -26.5q-2 -38 -2 -52q0 -5 2 -29q1 -8 2 -15.5t1 -11.5q-1 -8 -1.5 -13.5t-1 -8t-0.5 -6.5q0 -27 17 -28q8 -1 17 -1q23 0 31 1h31q35 0 35 -18q0 -21 -11.5 -56.5t-30.5 -35.5t-28 -1q-14 0 -21 0.5t-9 0.5q-7 0 -11 -1q-21 -3 -21 -32v-14q0 -17 1 -28q1 -12 0.5 -23.5
t1.5 -12.5q2 -5 15 -5q7 0 13.5 2.5t14.5 2.5q4 0 7 -1q17 -3 34 -3h17q3 0 13 0.5t15 0.5q6 0 14 -0.5t11 -0.5q2 0 7 -0.5t7 -0.5t5.5 -1t5 -3.5t2.5 -5.5q1 -2 1 -8q0 -58 -12 -76q-4 -7 -10 -9.5t-18.5 -4t-14.5 -1.5q-15 -4 -65 -4q-22 0 -28 1q-30 4 -58 4
q-12 0 -32.5 -4t-30.5 -4q-19 0 -31.5 7t-12.5 19q1 12 0 43.5t2 42.5q1 2 1 28v54q0 2 0.5 9t1 11.5t-1.5 9.5t-6 6q-2 0 -9 2.5t-9 2.5q-12 0 -18 0.5t-20 0.5q-33 -3 -45 -3q-26 0 -31 -13q-4 -12 -36 -140q-12 -24 -12 -31q-10 -41 -30 -46q-2 0 -14.5 0.5t-25.5 1
t-14 0.5q-13 0 -22 7t-9 19q0 30 13 58q4 8 18 67t17 66q11 25 11 26q0 6 -6 6q-3 0 -5 1t-3 3t-1 3.5t0.5 4.5t0.5 5t6 17.5t6 16.5q6 19 15 22q5 1 7.5 4.5t4.5 9t4 7.5q3 4 7 20t7 24l-1 1q12 44 21 64q6 12 12.5 35.5t10.5 34.5q5 14 12.5 44t10.5 38q4 9 8.5 24.5
t6.5 20.5q7 20 21.5 29t26.5 9zM310 571q-6 0 -11.5 -7t-11.5 -22.5t-9.5 -26t-9.5 -30t-7 -22.5l-22 -54l-5 -9q-4 -10 -8.5 -22t-5.5 -20q-2 -7 -3.5 -13t-2.5 -9t-1 -4q0 -4 6 -8h17h26h58q0 4 -1 14t-1 17q1 9 -0.5 31t-1.5 31q0 12 1 20q4 34 4 66q0 7 0.5 20.5
t0.5 19.5t-1 14t-3.5 11t-7.5 3z" />
    <glyph glyph-name="ccedilla" unicode="&#xe7;" horiz-adv-x="418" 
d="M237 -22v11q-55 3 -119 53q-8 6 -21 26t-14 21q-13 18 -24 48q-9 32 -12 72q0 6 0.5 14.5t0.5 12.5q0 5 -3 16t-3 19q0 5 2.5 14t2.5 14l-3 5q-3 6 -3 16v4q0 7 0.5 30t1.5 34q4 40 9 49q3 6 4 13t1 16t1 15q4 32 22 67q10 21 30 57q2 4 7.5 7t10 4.5t10.5 3t7 1.5
q2 1 2.5 4.5t1 9t2.5 9.5t7.5 8.5t16 11t15.5 9.5q7 5 29 10t37 5q11 0 27.5 -4t24.5 -5q35 -2 53 -25q23 -28 25 -37q1 -7 1 -13q0 -7 3 -15q3 -7 3 -15q0 -13 -6 -25q-25 -35 -54 -35q-40 0 -50 40q-6 23 -10.5 28.5t-18.5 5.5q-10 0 -18 -4q-19 -16 -28 -46
q-3 -10 -10 -28t-11 -32.5t-5 -29.5q-1 -9 -4 -42t-3 -43q0 -9 -6 -21.5t-6 -18.5q0 -11 6.5 -17.5t7.5 -11.5q1 -1 5 -81q1 -9 6.5 -27t5.5 -24t2 -10l6 -12t8 -19q7 -21 36 -21q28 0 50 51q6 14 11 19t17 5q13 0 40 -11.5t31 -24.5q2 -4 2 -7q0 -4 -3 -15.5t-4 -18.5
q-1 -8 -2.5 -11.5t-7 -8.5t-7.5 -7t-19 -29q-6 -11 -26 -31q-11 -11 -51 -19q5 -3 5 -9q0 -7 -1 -14.5t-1 -9.5q0 -4 2 -8q3 -4 3 -13q0 -4 -1 -13t-1 -12v-12q0 -12 -11 -15q-3 -2 -15 -2t-16 4q-5 6 -6.5 13t-6.5 8q-5 0 -10 -2.5t-9.5 -7.5t-6.5 -6q-6 -6 -6 -27v-4
q0 -24 15 -30q21 -7 26 -7q2 0 2 2q3 2 8 2h3q6 0 10 3q5 8 24 8q1 0 2.5 -0.5t3.5 -0.5q21 -2 21 -25q0 -12 -9.5 -23.5t-25.5 -13.5q-2 0 -4 -1h-2q-17 -4 -33 -4q-10 0 -14 2q-6 3 -22 4.5t-20 3.5q-33 20 -44 35q-11 18 -11 35v5q2 7 3 22.5t3 22.5l1 1l1 1q0 1 1 2.5
t1 3.5q4 18 17 29q6 7 22 13.5t18 7.5q20 4 32 4q2 0 4.5 -0.5t3.5 -0.5q4 0 4 15z" />
    <glyph glyph-name="egrave" unicode="&#xe8;" horiz-adv-x="405" 
d="M164 358q0 -7 0.5 -17t0.5 -18t20 -8h10q13 0 30.5 2.5t28.5 2.5q31 0 31 -11q-1 -14 -11 -43.5t-16 -38.5q-5 -8 -19 -8q-7 0 -11 -1q-1 -3 -3 -3q-1 0 -4 0.5t-9 1t-11 0.5q-21 0 -26 -4q-5 -3 -5 -12q0 -7 2 -21q1 -4 1 -12t2 -15.5t7 -13.5q6 -5 7.5 -8t2 -7t3.5 -9
q9 -19 40 -19q10 0 16 1q24 11 34 21q4 4 17.5 26.5t22.5 24.5q12 6 13 6q16 0 34 -24q13 -16 13 -30q0 -9 -2 -19q-1 -6 -10 -16t-10 -13q-3 -5 -32 -32q-5 -4 -17 -11t-17 -13q-22 -24 -68 -24q-41 0 -78 16l-3 2q-32 16 -42 26q-36 32 -45 60q-18 72 -18 113
q-1 2 -7 13.5t-6 19.5q0 45 14 58q0 5 3 13t3 13q0 9 -4 30t-4 39q0 12 3 28.5t3 21.5q5 44 18 84q2 6 3.5 13t3 10.5t6.5 8.5q4 3 6.5 8t4 8.5t3.5 11t3 11.5q2 7 7.5 13.5t16.5 15t15 12.5q7 6 19 12t15 11q10 17 80 17q45 0 83 -31q25 -19 35 -35q7 -13 7 -25
q0 -5 3.5 -19t3.5 -20q0 -4 -2.5 -12t-2.5 -14q0 -7 -19 -17t-29 -10q-6 -3 -23 -3q-4 0 -10 5.5t-7 12.5q-2 16 -3.5 23.5t-5 20t-9.5 18t-14 5.5q-23 -2 -34 -9q-36 -20 -42 -60q-2 -28 -7 -49q-3 -18 -3 -30q0 -6 -3 -20t-3 -24q0 -1 -1 -5t-1 -8q0 -2 2 -18zM158 806
q-3 8 -3 13q0 8 9.5 27t14.5 22q13 10 26 10q19 0 31 -21q53 -53 55 -57q1 -1 20 -18.5t20 -27.5q4 -13 -2.5 -27t-19.5 -14q-6 0 -13.5 3.5t-9.5 3.5q-6 2 -17.5 9t-17.5 10q-8 4 -15.5 14t-14.5 12q-2 1 -19.5 9t-29 16t-14.5 16z" />
    <glyph glyph-name="eacute" unicode="&#xe9;" horiz-adv-x="405" 
d="M164 358q0 -7 0.5 -17t0.5 -18t20 -8h10q13 0 30.5 2.5t28.5 2.5q31 0 31 -11q-1 -14 -11 -43.5t-16 -38.5q-5 -8 -19 -8q-7 0 -11 -1q-1 -3 -3 -3q-1 0 -4 0.5t-9 1t-11 0.5q-21 0 -26 -4q-5 -3 -5 -12q0 -7 2 -21q1 -4 1 -12t2 -15.5t7 -13.5q6 -5 7.5 -8t2 -7t3.5 -9
q9 -19 40 -19q10 0 16 1q24 11 34 21q4 4 17.5 26.5t22.5 24.5q12 6 13 6q16 0 34 -24q13 -16 13 -30q0 -9 -2 -19q-1 -6 -10 -16t-10 -13q-3 -5 -32 -32q-5 -4 -17 -11t-17 -13q-22 -24 -68 -24q-41 0 -78 16l-3 2q-32 16 -42 26q-36 32 -45 60q-18 72 -18 113
q-1 2 -7 13.5t-6 19.5q0 45 14 58q0 5 3 13t3 13q0 9 -4 30t-4 39q0 12 3 28.5t3 21.5q5 44 18 84q2 6 3.5 13t3 10.5t6.5 8.5q4 3 6.5 8t4 8.5t3.5 11t3 11.5q2 7 7.5 13.5t16.5 15t15 12.5q7 6 19 12t15 11q10 17 80 17q45 0 83 -31q25 -19 35 -35q7 -13 7 -25
q0 -5 3.5 -19t3.5 -20q0 -4 -2.5 -12t-2.5 -14q0 -7 -19 -17t-29 -10q-6 -3 -23 -3q-4 0 -10 5.5t-7 12.5q-2 16 -3.5 23.5t-5 20t-9.5 18t-14 5.5q-23 -2 -34 -9q-36 -20 -42 -60q-2 -28 -7 -49q-3 -18 -3 -30q0 -6 -3 -20t-3 -24q0 -1 -1 -5t-1 -8q0 -2 2 -18zM332 805
q-3 -8 -14.5 -16t-29 -16t-19.5 -9q-7 -2 -14.5 -12t-15.5 -14q-6 -3 -17.5 -10t-17.5 -9q-2 0 -9.5 -3.5t-13.5 -3.5q-13 0 -19.5 14t-2.5 27q1 10 20.5 27.5t19.5 18.5q2 5 55 57q12 21 31 21q13 0 26 -10q5 -3 14.5 -22t9.5 -27q0 -6 -3 -13z" />
    <glyph glyph-name="ecircumflex" unicode="&#xea;" horiz-adv-x="415" 
d="M164 358q0 -7 0.5 -17t0.5 -18t20 -8h10q13 0 30.5 2.5t28.5 2.5q31 0 31 -11q-1 -14 -11 -43.5t-16 -38.5q-5 -8 -19 -8q-7 0 -11 -1q-1 -3 -3 -3q-1 0 -4 0.5t-9 1t-11 0.5q-21 0 -26 -4q-5 -3 -5 -12q0 -7 2 -21q1 -4 1 -12t2 -15.5t7 -13.5q6 -5 7.5 -8t2 -7t3.5 -9
q9 -19 40 -19q10 0 16 1q24 11 34 21q4 4 17.5 26.5t22.5 24.5q12 6 13 6q16 0 34 -24q13 -16 13 -30q0 -9 -2 -19q-1 -6 -10 -16t-10 -13q-3 -5 -32 -32q-5 -4 -17 -11t-17 -13q-22 -24 -68 -24q-41 0 -78 16l-3 2q-32 16 -42 26q-36 32 -45 60q-18 72 -18 113
q-1 2 -7 13.5t-6 19.5q0 45 14 58q0 5 3 13t3 13q0 9 -4 30t-4 39q0 12 3 28.5t3 21.5q5 44 18 84q2 6 3.5 13t3 10.5t6.5 8.5q4 3 6.5 8t4 8.5t3.5 11t3 11.5q2 7 7.5 13.5t16.5 15t15 12.5q7 6 19 12t15 11q10 17 80 17q45 0 83 -31q25 -19 35 -35q7 -13 7 -25
q0 -5 3.5 -19t3.5 -20q0 -4 -2.5 -12t-2.5 -14q0 -7 -19 -17t-29 -10q-6 -3 -23 -3q-4 0 -10 5.5t-7 12.5q-2 16 -3.5 23.5t-5 20t-9.5 18t-14 5.5q-23 -2 -34 -9q-36 -20 -42 -60q-2 -28 -7 -49q-3 -18 -3 -30q0 -6 -3 -20t-3 -24q0 -1 -1 -5t-1 -8q0 -2 2 -18zM120 698
q-13 3 -24 13.5t-12 21.5v6q0 18 13 30q3 3 11 8.5t12.5 9.5t5.5 7q2 5 16.5 18.5t17.5 17.5q18 18 23 25q4 7 24.5 22t32.5 15q13 -1 29.5 -10t23.5 -19q2 -4 4 -7t5 -6t5 -4.5t7 -4.5t8 -6q6 -5 14.5 -21.5t20.5 -24.5q24 -13 33 -39q5 -13 5 -18q0 -6 -5 -14
q-19 -22 -39 -22q-22 0 -25 3q-12 1 -26 13t-18 25q-4 9 -25 37q-1 2 -3 6.5t-3.5 7.5t-3.5 6.5t-5 5t-7 1.5q-7 0 -18.5 -12.5t-18.5 -23.5q-2 -5 -29 -47q-3 -8 -20 -14t-29 -6z" />
    <glyph glyph-name="edieresis" unicode="&#xeb;" horiz-adv-x="405" 
d="M164 358q0 -7 0.5 -17t0.5 -18t20 -8h10q13 0 30.5 2.5t28.5 2.5q31 0 31 -11q-1 -14 -11 -43.5t-16 -38.5q-5 -8 -19 -8q-7 0 -11 -1q-1 -3 -3 -3q-1 0 -4 0.5t-9 1t-11 0.5q-21 0 -26 -4q-5 -3 -5 -12q0 -7 2 -21q1 -4 1 -12t2 -15.5t7 -13.5q6 -5 7.5 -8t2 -7t3.5 -9
q9 -19 40 -19q10 0 16 1q24 11 34 21q4 4 17.5 26.5t22.5 24.5q12 6 13 6q16 0 34 -24q13 -16 13 -30q0 -9 -2 -19q-1 -6 -10 -16t-10 -13q-3 -5 -32 -32q-5 -4 -17 -11t-17 -13q-22 -24 -68 -24q-41 0 -78 16l-3 2q-32 16 -42 26q-36 32 -45 60q-18 72 -18 113
q-1 2 -7 13.5t-6 19.5q0 45 14 58q0 5 3 13t3 13q0 9 -4 30t-4 39q0 12 3 28.5t3 21.5q5 44 18 84q2 6 3.5 13t3 10.5t6.5 8.5q4 3 6.5 8t4 8.5t3.5 11t3 11.5q2 7 7.5 13.5t16.5 15t15 12.5q7 6 19 12t15 11q10 17 80 17q45 0 83 -31q25 -19 35 -35q7 -13 7 -25
q0 -5 3.5 -19t3.5 -20q0 -4 -2.5 -12t-2.5 -14q0 -7 -19 -17t-29 -10q-6 -3 -23 -3q-4 0 -10 5.5t-7 12.5q-2 16 -3.5 23.5t-5 20t-9.5 18t-14 5.5q-23 -2 -34 -9q-36 -20 -42 -60q-2 -28 -7 -49q-3 -18 -3 -30q0 -6 -3 -20t-3 -24q0 -1 -1 -5t-1 -8q0 -2 2 -18zM116 817
q10 14 34 14h9q16 -3 43 -32q9 -9 9 -23q0 -12 -10 -29q-6 -10 -24 -18t-22 -12q-6 -9 -25 -9q-16 0 -26 9q-6 6 -12.5 21t-6.5 23q0 15 31 56zM278 816q9 13 40 13l11 2q18 -4 42 -32q8 -9 8 -23t-9 -29q-5 -8 -10 -13t-12.5 -11.5t-11.5 -9.5q-5 -5 -25 -5h-12
q-7 1 -16.5 9.5t-10.5 9.5q-17 22 -17 34q0 10 7 28t16 27z" />
    <glyph glyph-name="igrave" unicode="&#xec;" horiz-adv-x="225" 
d="M48 633q0 42 15 47q2 1 24.5 4t32.5 3q45 0 48 -12q2 -8 9.5 -18.5t7.5 -15.5q0 -3 -1 -5q-2 -6 -3.5 -26t-4.5 -38q-1 -7 -1 -18q0 -9 2 -23.5t2 -23.5q-1 -16 -2 -46.5t-3 -39.5q-2 -7 -2 -30q0 -9 0.5 -27.5t0.5 -25.5t-1 -18.5t-1 -18.5q0 -11 3 -33q1 -12 4 -28.5
t3 -24.5q0 -13 -2 -22q-4 -23 -4 -45q0 -19 2 -26q7 -21 7 -67q0 -18 -20 -40.5t-40 -22.5q-33 0 -61 28q-23 19 -23 49t4 67q1 6 5 29t4 41q0 9 2 34t2 45q0 61 -2 86q-1 7 -1 21v26q0 18 -1 29q0 3 -0.5 7t-0.5 7q0 9 1.5 22t1.5 17t-2 14q-2 6 -2 12q0 5 1.5 13t1.5 12
q0 3 -2 11q-3 9 -3 15q0 2 0.5 7t0.5 8q-2 38 -2 41zM23 814q-3 8 -3 13q0 8 9.5 27t14.5 22q13 10 26 10q19 0 31 -21q53 -53 55 -57q1 -1 20 -18.5t20 -27.5q4 -13 -2.5 -27t-19.5 -14q-6 0 -13.5 3.5t-9.5 3.5q-6 2 -17.5 9t-17.5 10q-8 4 -15.5 14t-14.5 12
q-2 1 -19.5 9t-29 16t-14.5 16z" />
    <glyph glyph-name="iacute" unicode="&#xed;" horiz-adv-x="225" 
d="M48 633q0 42 15 47q2 1 24.5 4t32.5 3q45 0 48 -12q2 -8 9.5 -18.5t7.5 -15.5q0 -3 -1 -5q-2 -6 -3.5 -26t-4.5 -38q-1 -7 -1 -18q0 -9 2 -23.5t2 -23.5q-1 -16 -2 -46.5t-3 -39.5q-2 -7 -2 -30q0 -9 0.5 -27.5t0.5 -25.5t-1 -18.5t-1 -18.5q0 -11 3 -33q1 -12 4 -28.5
t3 -24.5q0 -13 -2 -22q-4 -23 -4 -45q0 -19 2 -26q7 -21 7 -67q0 -18 -20 -40.5t-40 -22.5q-33 0 -61 28q-23 19 -23 49t4 67q1 6 5 29t4 41q0 9 2 34t2 45q0 61 -2 86q-1 7 -1 21v26q0 18 -1 29q0 3 -0.5 7t-0.5 7q0 9 1.5 22t1.5 17t-2 14q-2 6 -2 12q0 5 1.5 13t1.5 12
q0 3 -2 11q-3 9 -3 15q0 2 0.5 7t0.5 8q-2 38 -2 41zM199 814q-3 -8 -14.5 -16t-29 -16t-19.5 -9q-7 -2 -14.5 -12t-15.5 -14q-6 -3 -17.5 -10t-17.5 -9q-2 0 -9.5 -3.5t-13.5 -3.5q-13 0 -19.5 14t-2.5 27q1 10 20.5 27.5t19.5 18.5q2 4 55 57q12 21 31 21q14 0 26 -10
q5 -3 14.5 -22t9.5 -27q0 -5 -3 -13z" />
    <glyph glyph-name="icircumflex" unicode="&#xee;" horiz-adv-x="225" 
d="M48 633q0 -3 2 -41q0 -3 -0.5 -8t-0.5 -7q0 -6 3 -15q2 -8 2 -11q0 -4 -1.5 -12t-1.5 -13q0 -6 2 -12q2 -10 2 -14t-1.5 -17t-1.5 -22q0 -3 0.5 -7t0.5 -7q1 -11 1 -29v-26q0 -14 1 -21q2 -25 2 -86q0 -20 -2 -45t-2 -34q0 -18 -4 -41t-5 -29q-4 -37 -4 -67t23 -49
q28 -28 61 -28q20 0 40 22.5t20 40.5q0 46 -7 67q-2 7 -2 26q0 22 4 45q2 9 2 22q0 8 -3 24.5t-4 28.5q-3 23 -3 33q0 7 1 18.5t1 18.5t-0.5 25.5t-0.5 27.5q0 23 2 30q2 9 3 39.5t2 46.5q0 9 -2 23.5t-2 23.5q0 11 1 18q3 18 4.5 38t3.5 26q1 2 1 5q0 5 -7.5 15.5
t-9.5 18.5q-3 12 -48 12q-10 0 -32.5 -3t-24.5 -4q-15 -5 -15 -47zM4 691q-13 3 -24 13.5t-12 21.5v6q0 18 13 30q3 3 11 8.5t12.5 9.5t5.5 7q2 5 16.5 18.5t17.5 17.5q18 18 23 25q4 7 24.5 22t32.5 15q13 -1 29.5 -10t23.5 -19q2 -4 4 -7t5 -6t5 -4.5t7 -4.5t8 -6
q6 -5 14.5 -21.5t20.5 -24.5q24 -13 33 -39q5 -13 5 -18q0 -6 -5 -14q-19 -22 -39 -22q-22 0 -25 3q-12 1 -26 12.5t-18 25.5q-4 9 -25 37q-1 2 -3 6.5t-3.5 7.5t-3.5 6.5t-5 5t-7 1.5q-7 0 -18.5 -12.5t-18.5 -23.5q-2 -5 -29 -47q-3 -8 -20 -14t-29 -6z" />
    <glyph glyph-name="idieresis" unicode="&#xef;" horiz-adv-x="225" 
d="M48 633q0 -3 2 -41q0 -3 -0.5 -8t-0.5 -7q0 -6 3 -15q2 -8 2 -11q0 -4 -1.5 -12t-1.5 -13q0 -6 2 -12q2 -10 2 -14t-1.5 -17t-1.5 -22q0 -3 0.5 -7t0.5 -7q1 -11 1 -29v-26q0 -14 1 -21q2 -25 2 -86q0 -20 -2 -45t-2 -34q0 -18 -4 -41t-5 -29q-4 -37 -4 -67t23 -49
q28 -28 61 -28q20 0 40 22.5t20 40.5q0 46 -7 67q-2 7 -2 26q0 22 4 45q2 9 2 22q0 8 -3 24.5t-4 28.5q-3 23 -3 33q0 7 1 18.5t1 18.5t-0.5 25.5t-0.5 27.5q0 23 2 30q2 9 3 39.5t2 46.5q0 9 -2 23.5t-2 23.5q0 11 1 18q3 18 4.5 38t3.5 26q1 2 1 5q0 5 -7.5 15.5
t-9.5 18.5q-3 12 -48 12q-10 0 -32.5 -3t-24.5 -4q-15 -5 -15 -47zM1 823q10 14 34 14h9q16 -3 43 -32q9 -9 9 -23q0 -12 -10 -29q-6 -10 -24 -18t-22 -12q-6 -9 -25 -9q-16 0 -26 9q-6 6 -12.5 21t-6.5 23q0 15 31 56zM163 822q9 13 40 13l11 2q18 -4 42 -32q8 -9 8 -23
t-9 -29q-5 -8 -10 -13t-12.5 -11.5t-11.5 -9.5q-5 -5 -25 -5h-12q-7 1 -16.5 9.5t-10.5 9.5q-17 22 -17 34q0 10 7 28t16 27z" />
    </font>
</defs>
</svg>
